<svg width="142" height="154" viewBox="0 0 142 154" fill="none" xmlns="http://www.w3.org/2000/svg">
<rect width="142" height="154" rx="16" fill="white"/>
<path d="M62 36C62 34.8181 62.2328 33.6478 62.6851 32.5558C63.1374 31.4639 63.8003 30.4718 64.636 29.636C65.4718 28.8003 66.4639 28.1374 67.5558 27.6851C68.6478 27.2328 69.8181 27 71 27C72.1819 27 73.3522 27.2328 74.4442 27.6851C75.5361 28.1374 76.5282 28.8003 77.364 29.636C78.1997 30.4718 78.8626 31.4639 79.3149 32.5558C79.7672 33.6478 80 34.8181 80 36C80 38.3869 79.0518 40.6761 77.364 42.364C75.6761 44.0518 73.3869 45 71 45C68.6131 45 66.3239 44.0518 64.636 42.364C62.9482 40.6761 62 38.3869 62 36Z" fill="#0E5BFF"/>
<path fill-rule="evenodd" clip-rule="evenodd" d="M71 42.375C72.6908 42.375 74.3123 41.7033 75.5078 40.5078C76.7033 39.3123 77.375 37.6908 77.375 36C77.375 34.3092 76.7033 32.6877 75.5078 31.4922C74.3123 30.2966 72.6908 29.625 71 29.625C69.3092 29.625 67.6877 30.2966 66.4922 31.4922C65.2966 32.6877 64.625 34.3092 64.625 36C64.625 37.6908 65.2966 39.3123 66.4922 40.5078C67.6877 41.7033 69.3092 42.375 71 42.375ZM70.25 34.125C69.629 34.125 69.125 34.629 69.125 35.25V36.75C69.125 37.371 69.629 37.875 70.25 37.875H71.75C72.371 37.875 72.875 37.371 72.875 36.75V35.25C72.875 34.629 72.371 34.125 71.75 34.125H70.25Z" fill="white"/>
<path d="M36.6022 81.5742H38.8522C38.735 82.6523 38.4264 83.6172 37.9264 84.4688C37.4264 85.3203 36.7194 85.9961 35.8053 86.4961C34.8913 86.9883 33.7506 87.2344 32.3834 87.2344C31.3834 87.2344 30.4733 87.0469 29.653 86.6719C28.8405 86.2969 28.1413 85.7656 27.5553 85.0781C26.9694 84.3828 26.5163 83.5508 26.1959 82.582C25.8834 81.6055 25.7272 80.5195 25.7272 79.3242V77.625C25.7272 76.4297 25.8834 75.3477 26.1959 74.3789C26.5163 73.4023 26.9733 72.5664 27.567 71.8711C28.1686 71.1758 28.8913 70.6406 29.735 70.2656C30.5788 69.8906 31.528 69.7031 32.5827 69.7031C33.8717 69.7031 34.9616 69.9453 35.8522 70.4297C36.7428 70.9141 37.4342 71.5859 37.9264 72.4453C38.4264 73.2969 38.735 74.2852 38.8522 75.4102H36.6022C36.4928 74.6133 36.2897 73.9297 35.9928 73.3594C35.6959 72.7812 35.2741 72.3359 34.7272 72.0234C34.1803 71.7109 33.4655 71.5547 32.5827 71.5547C31.8248 71.5547 31.1569 71.6992 30.5788 71.9883C30.0084 72.2773 29.528 72.6875 29.1373 73.2188C28.7545 73.75 28.4655 74.3867 28.2702 75.1289C28.0748 75.8711 27.9772 76.6953 27.9772 77.6016V79.3242C27.9772 80.1602 28.0631 80.9453 28.235 81.6797C28.4147 82.4141 28.6842 83.0586 29.0436 83.6133C29.403 84.168 29.86 84.6055 30.4147 84.9258C30.9694 85.2383 31.6256 85.3945 32.3834 85.3945C33.3444 85.3945 34.11 85.2422 34.6803 84.9375C35.2506 84.6328 35.6803 84.1953 35.9694 83.625C36.2663 83.0547 36.4772 82.3711 36.6022 81.5742ZM40.0719 80.8008V80.5312C40.0719 79.6172 40.2047 78.7695 40.4703 77.9883C40.7359 77.1992 41.1188 76.5156 41.6188 75.9375C42.1188 75.3516 42.7242 74.8984 43.4352 74.5781C44.1461 74.25 44.943 74.0859 45.8258 74.0859C46.7164 74.0859 47.5172 74.25 48.2281 74.5781C48.9469 74.8984 49.5563 75.3516 50.0563 75.9375C50.5641 76.5156 50.9508 77.1992 51.2164 77.9883C51.482 78.7695 51.6148 79.6172 51.6148 80.5312V80.8008C51.6148 81.7148 51.482 82.5625 51.2164 83.3438C50.9508 84.125 50.5641 84.8086 50.0563 85.3945C49.5563 85.9727 48.9508 86.4258 48.2398 86.7539C47.5367 87.0742 46.7398 87.2344 45.8492 87.2344C44.9586 87.2344 44.1578 87.0742 43.4469 86.7539C42.7359 86.4258 42.1266 85.9727 41.6188 85.3945C41.1188 84.8086 40.7359 84.125 40.4703 83.3438C40.2047 82.5625 40.0719 81.7148 40.0719 80.8008ZM42.2398 80.5312V80.8008C42.2398 81.4336 42.3141 82.0312 42.4625 82.5938C42.6109 83.1484 42.8336 83.6406 43.1305 84.0703C43.4352 84.5 43.8141 84.8398 44.2672 85.0898C44.7203 85.332 45.2477 85.4531 45.8492 85.4531C46.443 85.4531 46.9625 85.332 47.4078 85.0898C47.8609 84.8398 48.2359 84.5 48.5328 84.0703C48.8297 83.6406 49.0523 83.1484 49.2008 82.5938C49.357 82.0312 49.4352 81.4336 49.4352 80.8008V80.5312C49.4352 79.9062 49.357 79.3164 49.2008 78.7617C49.0523 78.1992 48.8258 77.7031 48.5211 77.2734C48.2242 76.8359 47.8492 76.4922 47.3961 76.2422C46.9508 75.9922 46.4273 75.8672 45.8258 75.8672C45.232 75.8672 44.7086 75.9922 44.2555 76.2422C43.8102 76.4922 43.4352 76.8359 43.1305 77.2734C42.8336 77.7031 42.6109 78.1992 42.4625 78.7617C42.3141 79.3164 42.2398 79.9062 42.2398 80.5312ZM55.7291 74.3203V87H53.5494V74.3203H55.7291ZM53.3853 70.957C53.3853 70.6055 53.4908 70.3086 53.7017 70.0664C53.9205 69.8242 54.2408 69.7031 54.6627 69.7031C55.0767 69.7031 55.3931 69.8242 55.6119 70.0664C55.8384 70.3086 55.9517 70.6055 55.9517 70.957C55.9517 71.293 55.8384 71.582 55.6119 71.8242C55.3931 72.0586 55.0767 72.1758 54.6627 72.1758C54.2408 72.1758 53.9205 72.0586 53.7017 71.8242C53.4908 71.582 53.3853 71.293 53.3853 70.957ZM60.4175 77.0273V87H58.2495V74.3203H60.3003L60.4175 77.0273ZM59.9019 80.1797L58.9995 80.1445C59.0073 79.2773 59.1362 78.4766 59.3862 77.7422C59.6362 77 59.9878 76.3555 60.4409 75.8086C60.8941 75.2617 61.4331 74.8398 62.0581 74.543C62.6909 74.2383 63.3902 74.0859 64.1558 74.0859C64.7808 74.0859 65.3433 74.1719 65.8433 74.3438C66.3433 74.5078 66.7691 74.7734 67.1206 75.1406C67.48 75.5078 67.7534 75.9844 67.9409 76.5703C68.1284 77.1484 68.2222 77.8555 68.2222 78.6914V87H66.0425V78.668C66.0425 78.0039 65.9448 77.4727 65.7495 77.0742C65.5542 76.668 65.2691 76.375 64.8941 76.1953C64.5191 76.0078 64.0581 75.9141 63.5112 75.9141C62.9722 75.9141 62.48 76.0273 62.0347 76.2539C61.5972 76.4805 61.2183 76.793 60.898 77.1914C60.5855 77.5898 60.3394 78.0469 60.1597 78.5625C59.9878 79.0703 59.9019 79.6094 59.9019 80.1797ZM70.5434 69H72.7231V84.5391L72.5356 87H70.5434V69ZM81.2895 80.5547V80.8008C81.2895 81.7227 81.1802 82.5781 80.9614 83.3672C80.7427 84.1484 80.4223 84.8281 80.0005 85.4062C79.5786 85.9844 79.063 86.4336 78.4536 86.7539C77.8442 87.0742 77.145 87.2344 76.3559 87.2344C75.5513 87.2344 74.8442 87.0977 74.2348 86.8242C73.6333 86.543 73.1255 86.1406 72.7114 85.6172C72.2973 85.0938 71.9653 84.4609 71.7153 83.7188C71.4731 82.9766 71.3052 82.1406 71.2114 81.2109V80.1328C71.3052 79.1953 71.4731 78.3555 71.7153 77.6133C71.9653 76.8711 72.2973 76.2383 72.7114 75.7148C73.1255 75.1836 73.6333 74.7812 74.2348 74.5078C74.8364 74.2266 75.5356 74.0859 76.3325 74.0859C77.1294 74.0859 77.8364 74.2422 78.4536 74.5547C79.0708 74.8594 79.5864 75.2969 80.0005 75.8672C80.4223 76.4375 80.7427 77.1211 80.9614 77.918C81.1802 78.707 81.2895 79.5859 81.2895 80.5547ZM79.1098 80.8008V80.5547C79.1098 79.9219 79.0513 79.3281 78.9341 78.7734C78.8169 78.2109 78.6294 77.7188 78.3716 77.2969C78.1138 76.8672 77.7739 76.5312 77.352 76.2891C76.9302 76.0391 76.4106 75.9141 75.7934 75.9141C75.2466 75.9141 74.77 76.0078 74.3638 76.1953C73.9653 76.3828 73.6255 76.6367 73.3442 76.957C73.063 77.2695 72.8325 77.6289 72.6528 78.0352C72.4809 78.4336 72.352 78.8477 72.2661 79.2773V82.1016C72.3911 82.6484 72.5942 83.1758 72.8755 83.6836C73.1645 84.1836 73.5473 84.5938 74.0239 84.9141C74.5083 85.2344 75.1059 85.3945 75.8169 85.3945C76.4028 85.3945 76.9028 85.2773 77.3169 85.043C77.7388 84.8008 78.0786 84.4688 78.3364 84.0469C78.602 83.625 78.7973 83.1367 78.9223 82.582C79.0473 82.0273 79.1098 81.4336 79.1098 80.8008ZM90.5483 84.832V78.3047C90.5483 77.8047 90.4467 77.3711 90.2436 77.0039C90.0483 76.6289 89.7514 76.3398 89.353 76.1367C88.9545 75.9336 88.4623 75.832 87.8764 75.832C87.3295 75.832 86.8491 75.9258 86.435 76.1133C86.0288 76.3008 85.7084 76.5469 85.4741 76.8516C85.2475 77.1562 85.1342 77.4844 85.1342 77.8359H82.9663C82.9663 77.3828 83.0834 76.9336 83.3178 76.4883C83.5522 76.043 83.8881 75.6406 84.3256 75.2812C84.7709 74.9141 85.3022 74.625 85.9194 74.4141C86.5444 74.1953 87.2397 74.0859 88.0053 74.0859C88.9272 74.0859 89.7397 74.2422 90.4428 74.5547C91.1538 74.8672 91.7084 75.3398 92.1069 75.9727C92.5131 76.5977 92.7163 77.3828 92.7163 78.3281V84.2344C92.7163 84.6562 92.7514 85.1055 92.8217 85.582C92.8998 86.0586 93.0131 86.4688 93.1616 86.8125V87H90.8998C90.7905 86.75 90.7045 86.418 90.642 86.0039C90.5795 85.582 90.5483 85.1914 90.5483 84.832ZM90.9233 79.3125L90.9467 80.8359H88.7553C88.1381 80.8359 87.5873 80.8867 87.103 80.9883C86.6186 81.082 86.2123 81.2266 85.8842 81.4219C85.5561 81.6172 85.3061 81.8633 85.1342 82.1602C84.9623 82.4492 84.8764 82.7891 84.8764 83.1797C84.8764 83.5781 84.9663 83.9414 85.1459 84.2695C85.3256 84.5977 85.5952 84.8594 85.9545 85.0547C86.3217 85.2422 86.7709 85.3359 87.3022 85.3359C87.9663 85.3359 88.5522 85.1953 89.06 84.9141C89.5678 84.6328 89.9702 84.2891 90.267 83.8828C90.5717 83.4766 90.7358 83.082 90.7592 82.6992L91.685 83.7422C91.6303 84.0703 91.4819 84.4336 91.2397 84.832C90.9975 85.2305 90.6733 85.6133 90.267 85.9805C89.8686 86.3398 89.392 86.6406 88.8373 86.8828C88.2905 87.1172 87.6733 87.2344 86.9858 87.2344C86.1264 87.2344 85.3725 87.0664 84.7241 86.7305C84.0834 86.3945 83.5834 85.9453 83.2241 85.3828C82.8725 84.8125 82.6967 84.1758 82.6967 83.4727C82.6967 82.793 82.8295 82.1953 83.0952 81.6797C83.3608 81.1562 83.7436 80.7227 84.2436 80.3789C84.7436 80.0273 85.3452 79.7617 86.0483 79.582C86.7514 79.4023 87.5366 79.3125 88.4038 79.3125H90.9233ZM102.549 83.6367C102.549 83.3242 102.479 83.0352 102.338 82.7695C102.205 82.4961 101.928 82.25 101.506 82.0312C101.092 81.8047 100.467 81.6094 99.6312 81.4453C98.9281 81.2969 98.2914 81.1211 97.7211 80.918C97.1586 80.7148 96.6781 80.4688 96.2797 80.1797C95.8891 79.8906 95.5883 79.5508 95.3773 79.1602C95.1664 78.7695 95.0609 78.3125 95.0609 77.7891C95.0609 77.2891 95.1703 76.8164 95.3891 76.3711C95.6156 75.9258 95.932 75.5312 96.3383 75.1875C96.7523 74.8438 97.2484 74.5742 97.8266 74.3789C98.4047 74.1836 99.0492 74.0859 99.7602 74.0859C100.776 74.0859 101.643 74.2656 102.362 74.625C103.08 74.9844 103.631 75.4648 104.014 76.0664C104.397 76.6602 104.588 77.3203 104.588 78.0469H102.42C102.42 77.6953 102.315 77.3555 102.104 77.0273C101.901 76.6914 101.6 76.4141 101.202 76.1953C100.811 75.9766 100.33 75.8672 99.7602 75.8672C99.1586 75.8672 98.6703 75.9609 98.2953 76.1484C97.9281 76.3281 97.6586 76.5586 97.4867 76.8398C97.3227 77.1211 97.2406 77.418 97.2406 77.7305C97.2406 77.9648 97.2797 78.1758 97.3578 78.3633C97.4437 78.543 97.5922 78.7109 97.8031 78.8672C98.0141 79.0156 98.3109 79.1562 98.6937 79.2891C99.0766 79.4219 99.5648 79.5547 100.159 79.6875C101.198 79.9219 102.053 80.2031 102.725 80.5312C103.397 80.8594 103.897 81.2617 104.225 81.7383C104.553 82.2148 104.717 82.793 104.717 83.4727C104.717 84.0273 104.6 84.5352 104.366 84.9961C104.139 85.457 103.807 85.8555 103.37 86.1914C102.94 86.5195 102.424 86.7773 101.823 86.9648C101.229 87.1445 100.561 87.2344 99.8187 87.2344C98.7016 87.2344 97.7562 87.0352 96.9828 86.6367C96.2094 86.2383 95.6234 85.7227 95.225 85.0898C94.8266 84.457 94.6273 83.7891 94.6273 83.0859H96.807C96.8383 83.6797 97.0102 84.1523 97.3227 84.5039C97.6352 84.8477 98.018 85.0938 98.4711 85.2422C98.9242 85.3828 99.3734 85.4531 99.8187 85.4531C100.412 85.4531 100.909 85.375 101.307 85.2188C101.713 85.0625 102.022 84.8477 102.233 84.5742C102.444 84.3008 102.549 83.9883 102.549 83.6367ZM111.867 87.2344C110.984 87.2344 110.183 87.0859 109.464 86.7891C108.753 86.4844 108.14 86.0586 107.624 85.5117C107.117 84.9648 106.726 84.3164 106.452 83.5664C106.179 82.8164 106.042 81.9961 106.042 81.1055V80.6133C106.042 79.582 106.195 78.6641 106.499 77.8594C106.804 77.0469 107.218 76.3594 107.742 75.7969C108.265 75.2344 108.859 74.8086 109.523 74.5195C110.187 74.2305 110.874 74.0859 111.585 74.0859C112.492 74.0859 113.273 74.2422 113.929 74.5547C114.593 74.8672 115.136 75.3047 115.558 75.8672C115.98 76.4219 116.292 77.0781 116.495 77.8359C116.699 78.5859 116.8 79.4062 116.8 80.2969V81.2695H107.331V79.5H114.632V79.3359C114.601 78.7734 114.484 78.2266 114.281 77.6953C114.085 77.1641 113.773 76.7266 113.343 76.3828C112.913 76.0391 112.327 75.8672 111.585 75.8672C111.093 75.8672 110.64 75.9727 110.226 76.1836C109.812 76.3867 109.456 76.6914 109.16 77.0977C108.863 77.5039 108.632 78 108.468 78.5859C108.304 79.1719 108.222 79.8477 108.222 80.6133V81.1055C108.222 81.707 108.304 82.2734 108.468 82.8047C108.64 83.3281 108.886 83.7891 109.206 84.1875C109.535 84.5859 109.929 84.8984 110.39 85.125C110.859 85.3516 111.39 85.4648 111.984 85.4648C112.749 85.4648 113.398 85.3086 113.929 84.9961C114.46 84.6836 114.925 84.2656 115.324 83.7422L116.636 84.7852C116.363 85.1992 116.015 85.5938 115.593 85.9688C115.171 86.3438 114.652 86.6484 114.035 86.8828C113.425 87.1172 112.702 87.2344 111.867 87.2344Z" fill="#030406"/>
<path d="M52.5294 113.562V125H51.0841V115.367L48.17 116.43V115.125L52.3028 113.562H52.5294ZM63.5925 123.812V125H56.1472V123.961L59.8737 119.812C60.3321 119.302 60.6862 118.87 60.9362 118.516C61.1915 118.156 61.3685 117.836 61.4675 117.555C61.5717 117.268 61.6237 116.977 61.6237 116.68C61.6237 116.305 61.5456 115.966 61.3894 115.664C61.2383 115.357 61.0144 115.112 60.7175 114.93C60.4206 114.747 60.0612 114.656 59.6394 114.656C59.1342 114.656 58.7123 114.755 58.3737 114.953C58.0404 115.146 57.7904 115.417 57.6237 115.766C57.4571 116.115 57.3737 116.516 57.3737 116.969H55.9284C55.9284 116.328 56.0691 115.742 56.3503 115.211C56.6316 114.68 57.0482 114.258 57.6003 113.945C58.1524 113.628 58.8321 113.469 59.6394 113.469C60.3581 113.469 60.9727 113.596 61.4831 113.852C61.9935 114.102 62.3842 114.456 62.655 114.914C62.931 115.367 63.0691 115.898 63.0691 116.508C63.0691 116.841 63.0118 117.18 62.8972 117.523C62.7878 117.862 62.6342 118.201 62.4362 118.539C62.2435 118.878 62.017 119.211 61.7566 119.539C61.5014 119.867 61.2279 120.19 60.9362 120.508L57.8894 123.812H63.5925ZM68.0234 116.547H69.4766V126.008C69.4766 126.523 69.3932 126.961 69.2266 127.32C69.0651 127.68 68.8203 127.951 68.4922 128.133C68.1693 128.32 67.7604 128.414 67.2656 128.414C67.1354 128.414 66.9844 128.401 66.8125 128.375C66.6354 128.349 66.487 128.318 66.3672 128.281L66.375 127.117C66.474 127.138 66.5859 127.154 66.7109 127.164C66.8359 127.18 66.9453 127.188 67.0391 127.188C67.2526 127.188 67.4323 127.148 67.5781 127.07C67.724 126.992 67.8333 126.867 67.9062 126.695C67.9844 126.523 68.0234 126.294 68.0234 126.008V116.547ZM67.875 114.305C67.875 114.07 67.9479 113.872 68.0938 113.711C68.2396 113.549 68.4505 113.469 68.7266 113.469C69.0078 113.469 69.2214 113.549 69.3672 113.711C69.513 113.872 69.5859 114.07 69.5859 114.305C69.5859 114.529 69.513 114.721 69.3672 114.883C69.2214 115.039 69.0078 115.117 68.7266 115.117C68.4505 115.117 68.2396 115.039 68.0938 114.883C67.9479 114.721 67.875 114.529 67.875 114.305ZM70.7897 120.867V120.688C70.7897 120.078 70.8782 119.513 71.0553 118.992C71.2324 118.466 71.4876 118.01 71.8209 117.625C72.1543 117.234 72.5579 116.932 73.0319 116.719C73.5058 116.5 74.0371 116.391 74.6256 116.391C75.2194 116.391 75.7532 116.5 76.2272 116.719C76.7064 116.932 77.1126 117.234 77.4459 117.625C77.7845 118.01 78.0423 118.466 78.2194 118.992C78.3965 119.513 78.485 120.078 78.485 120.688V120.867C78.485 121.477 78.3965 122.042 78.2194 122.562C78.0423 123.083 77.7845 123.539 77.4459 123.93C77.1126 124.315 76.709 124.617 76.235 124.836C75.7663 125.049 75.235 125.156 74.6413 125.156C74.0475 125.156 73.5136 125.049 73.0397 124.836C72.5657 124.617 72.1595 124.315 71.8209 123.93C71.4876 123.539 71.2324 123.083 71.0553 122.562C70.8782 122.042 70.7897 121.477 70.7897 120.867ZM72.235 120.688V120.867C72.235 121.289 72.2845 121.688 72.3834 122.062C72.4824 122.432 72.6308 122.76 72.8288 123.047C73.0319 123.333 73.2845 123.56 73.5866 123.727C73.8886 123.888 74.2402 123.969 74.6413 123.969C75.0371 123.969 75.3834 123.888 75.6803 123.727C75.9824 123.56 76.2324 123.333 76.4303 123.047C76.6282 122.76 76.7767 122.432 76.8756 122.062C76.9798 121.688 77.0319 121.289 77.0319 120.867V120.688C77.0319 120.271 76.9798 119.878 76.8756 119.508C76.7767 119.133 76.6256 118.802 76.4225 118.516C76.2246 118.224 75.9746 117.995 75.6725 117.828C75.3756 117.661 75.0267 117.578 74.6256 117.578C74.2298 117.578 73.8808 117.661 73.5788 117.828C73.2819 117.995 73.0319 118.224 72.8288 118.516C72.6308 118.802 72.4824 119.133 72.3834 119.508C72.2845 119.878 72.235 120.271 72.235 120.688ZM79.6497 113H81.1028V123.359L80.9778 125H79.6497V113ZM86.8138 120.703V120.867C86.8138 121.482 86.7408 122.052 86.595 122.578C86.4492 123.099 86.2356 123.552 85.9544 123.938C85.6731 124.323 85.3294 124.622 84.9231 124.836C84.5169 125.049 84.0507 125.156 83.5247 125.156C82.9882 125.156 82.5169 125.065 82.1106 124.883C81.7096 124.695 81.371 124.427 81.095 124.078C80.819 123.729 80.5976 123.307 80.4309 122.812C80.2695 122.318 80.1575 121.76 80.095 121.141V120.422C80.1575 119.797 80.2695 119.237 80.4309 118.742C80.5976 118.247 80.819 117.826 81.095 117.477C81.371 117.122 81.7096 116.854 82.1106 116.672C82.5117 116.484 82.9778 116.391 83.5091 116.391C84.0403 116.391 84.5117 116.495 84.9231 116.703C85.3346 116.906 85.6783 117.198 85.9544 117.578C86.2356 117.958 86.4492 118.414 86.595 118.945C86.7408 119.471 86.8138 120.057 86.8138 120.703ZM85.3606 120.867V120.703C85.3606 120.281 85.3216 119.885 85.2434 119.516C85.1653 119.141 85.0403 118.812 84.8684 118.531C84.6966 118.245 84.47 118.021 84.1888 117.859C83.9075 117.693 83.5611 117.609 83.1497 117.609C82.7851 117.609 82.4674 117.672 82.1966 117.797C81.9309 117.922 81.7044 118.091 81.5169 118.305C81.3294 118.513 81.1757 118.753 81.0559 119.023C80.9414 119.289 80.8554 119.565 80.7981 119.852V121.734C80.8815 122.099 81.0169 122.451 81.2044 122.789C81.3971 123.122 81.6523 123.396 81.97 123.609C82.2929 123.823 82.6914 123.93 83.1653 123.93C83.5559 123.93 83.8893 123.852 84.1653 123.695C84.4466 123.534 84.6731 123.312 84.845 123.031C85.0221 122.75 85.1523 122.424 85.2356 122.055C85.319 121.685 85.3606 121.289 85.3606 120.867ZM92.9238 122.758C92.9238 122.549 92.8769 122.357 92.7831 122.18C92.6946 121.997 92.5097 121.833 92.2284 121.688C91.9524 121.536 91.5357 121.406 90.9784 121.297C90.5097 121.198 90.0852 121.081 89.705 120.945C89.33 120.81 89.0097 120.646 88.7441 120.453C88.4836 120.26 88.2831 120.034 88.1425 119.773C88.0019 119.513 87.9316 119.208 87.9316 118.859C87.9316 118.526 88.0045 118.211 88.1503 117.914C88.3014 117.617 88.5123 117.354 88.7831 117.125C89.0592 116.896 89.3899 116.716 89.7753 116.586C90.1607 116.456 90.5904 116.391 91.0644 116.391C91.7415 116.391 92.3196 116.51 92.7988 116.75C93.2779 116.99 93.6451 117.31 93.9003 117.711C94.1555 118.107 94.2831 118.547 94.2831 119.031H92.8378C92.8378 118.797 92.7675 118.57 92.6269 118.352C92.4915 118.128 92.2909 117.943 92.0253 117.797C91.7649 117.651 91.4446 117.578 91.0644 117.578C90.6633 117.578 90.3378 117.641 90.0878 117.766C89.843 117.885 89.6633 118.039 89.5488 118.227C89.4394 118.414 89.3847 118.612 89.3847 118.82C89.3847 118.977 89.4107 119.117 89.4628 119.242C89.5201 119.362 89.6191 119.474 89.7597 119.578C89.9003 119.677 90.0982 119.771 90.3534 119.859C90.6086 119.948 90.9342 120.036 91.33 120.125C92.0227 120.281 92.593 120.469 93.0409 120.688C93.4889 120.906 93.8222 121.174 94.0409 121.492C94.2597 121.81 94.3691 122.195 94.3691 122.648C94.3691 123.018 94.2909 123.357 94.1347 123.664C93.9836 123.971 93.7623 124.237 93.4706 124.461C93.1842 124.68 92.8404 124.852 92.4394 124.977C92.0435 125.096 91.5982 125.156 91.1034 125.156C90.3586 125.156 89.7284 125.023 89.2128 124.758C88.6972 124.492 88.3066 124.148 88.0409 123.727C87.7753 123.305 87.6425 122.859 87.6425 122.391H89.0956C89.1165 122.786 89.231 123.102 89.4394 123.336C89.6477 123.565 89.9029 123.729 90.205 123.828C90.5071 123.922 90.8066 123.969 91.1034 123.969C91.4993 123.969 91.83 123.917 92.0956 123.812C92.3665 123.708 92.5722 123.565 92.7128 123.383C92.8534 123.201 92.9238 122.992 92.9238 122.758Z" fill="#666666"/>
</svg>
