<svg width="142" height="154" viewBox="0 0 142 154" fill="none" xmlns="http://www.w3.org/2000/svg">
<rect width="142" height="154" rx="16" fill="white"/>
<g clip-path="url(#clip0_2038_628)">
<path d="M71 48C77.6274 48 83 42.6274 83 36C83 29.3726 77.6274 24 71 24C64.3726 24 59 29.3726 59 36C59 42.6274 64.3726 48 71 48Z" fill="#627EEA"/>
<path d="M71.3735 27V33.6525L76.9963 36.165L71.3735 27Z" fill="white" fill-opacity="0.602"/>
<path d="M71.3735 27L65.75 36.165L71.3735 33.6525V27Z" fill="white"/>
<path d="M71.3735 40.4759V44.9962L77 37.2119L71.3735 40.4759Z" fill="white" fill-opacity="0.602"/>
<path d="M71.3735 44.9962V40.4752L65.75 37.2119L71.3735 44.9962Z" fill="white"/>
<path d="M71.3735 39.4296L76.9963 36.1648L71.3735 33.6538V39.4296Z" fill="white" fill-opacity="0.2"/>
<path d="M65.75 36.1648L71.3735 39.4296V33.6538L65.75 36.1648Z" fill="white" fill-opacity="0.602"/>
</g>
<path d="M54.3814 71.4492L48.733 87H46.4244L52.9283 69.9375H54.4166L54.3814 71.4492ZM59.1158 87L53.4556 71.4492L53.4205 69.9375H54.9088L61.4361 87H59.1158ZM58.8228 80.6836V82.5352H49.2369V80.6836H58.8228ZM69.9097 84.832V78.3047C69.9097 77.8047 69.8081 77.3711 69.605 77.0039C69.4097 76.6289 69.1128 76.3398 68.7144 76.1367C68.3159 75.9336 67.8238 75.832 67.2378 75.832C66.6909 75.832 66.2105 75.9258 65.7964 76.1133C65.3902 76.3008 65.0698 76.5469 64.8355 76.8516C64.6089 77.1562 64.4956 77.4844 64.4956 77.8359H62.3277C62.3277 77.3828 62.4448 76.9336 62.6792 76.4883C62.9136 76.043 63.2495 75.6406 63.687 75.2812C64.1323 74.9141 64.6636 74.625 65.2808 74.4141C65.9058 74.1953 66.6011 74.0859 67.3667 74.0859C68.2886 74.0859 69.1011 74.2422 69.8042 74.5547C70.5152 74.8672 71.0698 75.3398 71.4683 75.9727C71.8745 76.5977 72.0777 77.3828 72.0777 78.3281V84.2344C72.0777 84.6562 72.1128 85.1055 72.1831 85.582C72.2613 86.0586 72.3745 86.4688 72.523 86.8125V87H70.2613C70.1519 86.75 70.0659 86.418 70.0034 86.0039C69.9409 85.582 69.9097 85.1914 69.9097 84.832ZM70.2847 79.3125L70.3081 80.8359H68.1167C67.4995 80.8359 66.9488 80.8867 66.4644 80.9883C65.98 81.082 65.5738 81.2266 65.2456 81.4219C64.9175 81.6172 64.6675 81.8633 64.4956 82.1602C64.3238 82.4492 64.2378 82.7891 64.2378 83.1797C64.2378 83.5781 64.3277 83.9414 64.5073 84.2695C64.687 84.5977 64.9566 84.8594 65.3159 85.0547C65.6831 85.2422 66.1323 85.3359 66.6636 85.3359C67.3277 85.3359 67.9136 85.1953 68.4214 84.9141C68.9292 84.6328 69.3316 84.2891 69.6284 83.8828C69.9331 83.4766 70.0972 83.082 70.1206 82.6992L71.0464 83.7422C70.9917 84.0703 70.8433 84.4336 70.6011 84.832C70.3589 85.2305 70.0347 85.6133 69.6284 85.9805C69.23 86.3398 68.7534 86.6406 68.1988 86.8828C67.6519 87.1172 67.0347 87.2344 66.3472 87.2344C65.4878 87.2344 64.7339 87.0664 64.0855 86.7305C63.4448 86.3945 62.9448 85.9453 62.5855 85.3828C62.2339 84.8125 62.0581 84.1758 62.0581 83.4727C62.0581 82.793 62.1909 82.1953 62.4566 81.6797C62.7222 81.1562 63.105 80.7227 63.605 80.3789C64.105 80.0273 64.7066 79.7617 65.4097 79.582C66.1128 79.4023 66.898 79.3125 67.7652 79.3125H70.2847ZM78.1958 85.043L81.6645 74.3203H83.8794L79.3208 87H77.8677L78.1958 85.043ZM75.3013 74.3203L78.8755 85.1016L79.1216 87H77.6684L73.0747 74.3203H75.3013ZM90.103 87.2344C89.2202 87.2344 88.4194 87.0859 87.7006 86.7891C86.9897 86.4844 86.3764 86.0586 85.8608 85.5117C85.353 84.9648 84.9623 84.3164 84.6889 83.5664C84.4155 82.8164 84.2787 81.9961 84.2787 81.1055V80.6133C84.2787 79.582 84.4311 78.6641 84.7358 77.8594C85.0405 77.0469 85.4545 76.3594 85.978 75.7969C86.5014 75.2344 87.0952 74.8086 87.7592 74.5195C88.4233 74.2305 89.1108 74.0859 89.8217 74.0859C90.728 74.0859 91.5092 74.2422 92.1655 74.5547C92.8295 74.8672 93.3725 75.3047 93.7944 75.8672C94.2162 76.4219 94.5287 77.0781 94.7319 77.8359C94.935 78.5859 95.0366 79.4062 95.0366 80.2969V81.2695H85.5678V79.5H92.8686V79.3359C92.8373 78.7734 92.7202 78.2266 92.517 77.6953C92.3217 77.1641 92.0092 76.7266 91.5795 76.3828C91.1498 76.0391 90.5639 75.8672 89.8217 75.8672C89.3295 75.8672 88.8764 75.9727 88.4623 76.1836C88.0483 76.3867 87.6928 76.6914 87.3959 77.0977C87.0991 77.5039 86.8686 78 86.7045 78.5859C86.5405 79.1719 86.4584 79.8477 86.4584 80.6133V81.1055C86.4584 81.707 86.5405 82.2734 86.7045 82.8047C86.8764 83.3281 87.1225 83.7891 87.4428 84.1875C87.7709 84.5859 88.1655 84.8984 88.6264 85.125C89.0952 85.3516 89.6264 85.4648 90.2202 85.4648C90.9858 85.4648 91.6342 85.3086 92.1655 84.9961C92.6967 84.6836 93.1616 84.2656 93.56 83.7422L94.8725 84.7852C94.5991 85.1992 94.2514 85.5938 93.8295 85.9688C93.4077 86.3438 92.8881 86.6484 92.2709 86.8828C91.6616 87.1172 90.9389 87.2344 90.103 87.2344Z" fill="#030406"/>
<path d="M53.7875 119.586L52.6313 119.289L53.2016 113.625H59.0375V114.961H54.4281L54.0844 118.055C54.2927 117.935 54.5557 117.823 54.8734 117.719C55.1964 117.615 55.5661 117.562 55.9828 117.562C56.5089 117.562 56.9802 117.654 57.3969 117.836C57.8135 118.013 58.1677 118.268 58.4594 118.602C58.7563 118.935 58.9828 119.336 59.1391 119.805C59.2953 120.273 59.3734 120.797 59.3734 121.375C59.3734 121.922 59.2979 122.424 59.1469 122.883C59.001 123.341 58.7797 123.742 58.4828 124.086C58.1859 124.424 57.8109 124.688 57.3578 124.875C56.9099 125.062 56.3813 125.156 55.7719 125.156C55.3135 125.156 54.8786 125.094 54.4672 124.969C54.0609 124.839 53.6964 124.643 53.3734 124.383C53.0557 124.117 52.7953 123.789 52.5922 123.398C52.3943 123.003 52.2693 122.539 52.2172 122.008H53.5922C53.6547 122.435 53.7797 122.794 53.9672 123.086C54.1547 123.378 54.3995 123.599 54.7016 123.75C55.0089 123.896 55.3656 123.969 55.7719 123.969C56.1156 123.969 56.4203 123.909 56.6859 123.789C56.9516 123.669 57.1755 123.497 57.3578 123.273C57.5401 123.049 57.6781 122.779 57.7719 122.461C57.8708 122.143 57.9203 121.786 57.9203 121.391C57.9203 121.031 57.8708 120.698 57.7719 120.391C57.6729 120.083 57.5245 119.815 57.3266 119.586C57.1339 119.357 56.8969 119.18 56.6156 119.055C56.3344 118.924 56.0115 118.859 55.6469 118.859C55.1625 118.859 54.7953 118.924 54.5453 119.055C54.3005 119.185 54.0479 119.362 53.7875 119.586ZM63.8434 116.547H65.2966V126.008C65.2966 126.523 65.2132 126.961 65.0466 127.32C64.8851 127.68 64.6403 127.951 64.3122 128.133C63.9893 128.32 63.5804 128.414 63.0856 128.414C62.9554 128.414 62.8044 128.401 62.6325 128.375C62.4554 128.349 62.307 128.318 62.1872 128.281L62.195 127.117C62.294 127.138 62.4059 127.154 62.5309 127.164C62.6559 127.18 62.7653 127.188 62.8591 127.188C63.0726 127.188 63.2523 127.148 63.3981 127.07C63.544 126.992 63.6533 126.867 63.7263 126.695C63.8044 126.523 63.8434 126.294 63.8434 126.008V116.547ZM63.695 114.305C63.695 114.07 63.7679 113.872 63.9138 113.711C64.0596 113.549 64.2705 113.469 64.5466 113.469C64.8278 113.469 65.0414 113.549 65.1872 113.711C65.333 113.872 65.4059 114.07 65.4059 114.305C65.4059 114.529 65.333 114.721 65.1872 114.883C65.0414 115.039 64.8278 115.117 64.5466 115.117C64.2705 115.117 64.0596 115.039 63.9138 114.883C63.7679 114.721 63.695 114.529 63.695 114.305ZM66.6097 120.867V120.688C66.6097 120.078 66.6982 119.513 66.8753 118.992C67.0524 118.466 67.3076 118.01 67.6409 117.625C67.9743 117.234 68.3779 116.932 68.8519 116.719C69.3258 116.5 69.8571 116.391 70.4456 116.391C71.0394 116.391 71.5732 116.5 72.0472 116.719C72.5264 116.932 72.9326 117.234 73.2659 117.625C73.6045 118.01 73.8623 118.466 74.0394 118.992C74.2165 119.513 74.305 120.078 74.305 120.688V120.867C74.305 121.477 74.2165 122.042 74.0394 122.562C73.8623 123.083 73.6045 123.539 73.2659 123.93C72.9326 124.315 72.529 124.617 72.055 124.836C71.5863 125.049 71.055 125.156 70.4613 125.156C69.8675 125.156 69.3336 125.049 68.8597 124.836C68.3857 124.617 67.9795 124.315 67.6409 123.93C67.3076 123.539 67.0524 123.083 66.8753 122.562C66.6982 122.042 66.6097 121.477 66.6097 120.867ZM68.055 120.688V120.867C68.055 121.289 68.1045 121.688 68.2034 122.062C68.3024 122.432 68.4508 122.76 68.6488 123.047C68.8519 123.333 69.1045 123.56 69.4066 123.727C69.7086 123.888 70.0602 123.969 70.4613 123.969C70.8571 123.969 71.2034 123.888 71.5003 123.727C71.8024 123.56 72.0524 123.333 72.2503 123.047C72.4482 122.76 72.5967 122.432 72.6956 122.062C72.7998 121.688 72.8519 121.289 72.8519 120.867V120.688C72.8519 120.271 72.7998 119.878 72.6956 119.508C72.5967 119.133 72.4456 118.802 72.2425 118.516C72.0446 118.224 71.7946 117.995 71.4925 117.828C71.1956 117.661 70.8467 117.578 70.4456 117.578C70.0498 117.578 69.7008 117.661 69.3988 117.828C69.1019 117.995 68.8519 118.224 68.6488 118.516C68.4508 118.802 68.3024 119.133 68.2034 119.508C68.1045 119.878 68.055 120.271 68.055 120.688ZM75.4697 113H76.9228V123.359L76.7978 125H75.4697V113ZM82.6338 120.703V120.867C82.6338 121.482 82.5608 122.052 82.415 122.578C82.2692 123.099 82.0556 123.552 81.7744 123.938C81.4931 124.323 81.1494 124.622 80.7431 124.836C80.3369 125.049 79.8707 125.156 79.3447 125.156C78.8082 125.156 78.3369 125.065 77.9306 124.883C77.5296 124.695 77.191 124.427 76.915 124.078C76.639 123.729 76.4176 123.307 76.2509 122.812C76.0895 122.318 75.9775 121.76 75.915 121.141V120.422C75.9775 119.797 76.0895 119.237 76.2509 118.742C76.4176 118.247 76.639 117.826 76.915 117.477C77.191 117.122 77.5296 116.854 77.9306 116.672C78.3317 116.484 78.7978 116.391 79.3291 116.391C79.8603 116.391 80.3317 116.495 80.7431 116.703C81.1546 116.906 81.4983 117.198 81.7744 117.578C82.0556 117.958 82.2692 118.414 82.415 118.945C82.5608 119.471 82.6338 120.057 82.6338 120.703ZM81.1806 120.867V120.703C81.1806 120.281 81.1416 119.885 81.0634 119.516C80.9853 119.141 80.8603 118.812 80.6884 118.531C80.5166 118.245 80.29 118.021 80.0088 117.859C79.7275 117.693 79.3811 117.609 78.9697 117.609C78.6051 117.609 78.2874 117.672 78.0166 117.797C77.7509 117.922 77.5244 118.091 77.3369 118.305C77.1494 118.513 76.9957 118.753 76.8759 119.023C76.7614 119.289 76.6754 119.565 76.6181 119.852V121.734C76.7015 122.099 76.8369 122.451 77.0244 122.789C77.2171 123.122 77.4723 123.396 77.79 123.609C78.1129 123.823 78.5114 123.93 78.9853 123.93C79.3759 123.93 79.7093 123.852 79.9853 123.695C80.2666 123.534 80.4931 123.312 80.665 123.031C80.8421 122.75 80.9723 122.424 81.0556 122.055C81.139 121.685 81.1806 121.289 81.1806 120.867ZM88.7437 122.758C88.7437 122.549 88.6969 122.357 88.6031 122.18C88.5146 121.997 88.3297 121.833 88.0484 121.688C87.7724 121.536 87.3557 121.406 86.7984 121.297C86.3297 121.198 85.9052 121.081 85.525 120.945C85.15 120.81 84.8297 120.646 84.5641 120.453C84.3036 120.26 84.1031 120.034 83.9625 119.773C83.8219 119.513 83.7516 119.208 83.7516 118.859C83.7516 118.526 83.8245 118.211 83.9703 117.914C84.1214 117.617 84.3323 117.354 84.6031 117.125C84.8792 116.896 85.2099 116.716 85.5953 116.586C85.9807 116.456 86.4104 116.391 86.8844 116.391C87.5615 116.391 88.1396 116.51 88.6187 116.75C89.0979 116.99 89.4651 117.31 89.7203 117.711C89.9755 118.107 90.1031 118.547 90.1031 119.031H88.6578C88.6578 118.797 88.5875 118.57 88.4469 118.352C88.3115 118.128 88.1109 117.943 87.8453 117.797C87.5849 117.651 87.2646 117.578 86.8844 117.578C86.4833 117.578 86.1578 117.641 85.9078 117.766C85.663 117.885 85.4833 118.039 85.3687 118.227C85.2594 118.414 85.2047 118.612 85.2047 118.82C85.2047 118.977 85.2307 119.117 85.2828 119.242C85.3401 119.362 85.4391 119.474 85.5797 119.578C85.7203 119.677 85.9182 119.771 86.1734 119.859C86.4286 119.948 86.7542 120.036 87.15 120.125C87.8427 120.281 88.413 120.469 88.8609 120.688C89.3089 120.906 89.6422 121.174 89.8609 121.492C90.0797 121.81 90.1891 122.195 90.1891 122.648C90.1891 123.018 90.1109 123.357 89.9547 123.664C89.8036 123.971 89.5823 124.237 89.2906 124.461C89.0042 124.68 88.6604 124.852 88.2594 124.977C87.8635 125.096 87.4182 125.156 86.9234 125.156C86.1786 125.156 85.5484 125.023 85.0328 124.758C84.5172 124.492 84.1266 124.148 83.8609 123.727C83.5953 123.305 83.4625 122.859 83.4625 122.391H84.9156C84.9365 122.786 85.051 123.102 85.2594 123.336C85.4677 123.565 85.7229 123.729 86.025 123.828C86.3271 123.922 86.6266 123.969 86.9234 123.969C87.3193 123.969 87.65 123.917 87.9156 123.812C88.1865 123.708 88.3922 123.565 88.5328 123.383C88.6734 123.201 88.7437 122.992 88.7437 122.758Z" fill="#666666"/>
<defs>
<clipPath id="clip0_2038_628">
<rect width="24" height="24" fill="white" transform="translate(59 24)"/>
</clipPath>
</defs>
</svg>
