<svg width="142" height="154" viewBox="0 0 142 154" fill="none" xmlns="http://www.w3.org/2000/svg">
<rect width="142" height="154" rx="16" fill="white"/>
<g clip-path="url(#clip0_2038_640)">
<path d="M71 48C77.6274 48 83 42.6274 83 36C83 29.3726 77.6274 24 71 24C64.3726 24 59 29.3726 59 36C59 42.6274 64.3726 48 71 48Z" fill="#FF007A"/>
<path d="M68.1957 28.3255C67.9819 28.2925 67.9729 28.288 68.0734 28.273C68.2662 28.243 68.7222 28.2843 69.0364 28.3585C69.7692 28.5333 70.4359 28.9795 71.1484 29.7723L71.3374 29.9823L71.6074 29.9395C72.7474 29.7558 73.9077 29.902 74.8774 30.3498C75.1444 30.4728 75.5652 30.718 75.6177 30.7818C75.6349 30.8013 75.6657 30.931 75.6859 31.069C75.7579 31.5468 75.7219 31.9128 75.5764 32.1865C75.4969 32.335 75.4924 32.3815 75.5457 32.509C75.5713 32.5615 75.6109 32.6058 75.6601 32.6371C75.7094 32.6683 75.7664 32.6853 75.8247 32.686C76.0662 32.686 76.3257 32.296 76.4457 31.7538L76.4937 31.5385L76.5882 31.6458C77.1072 32.2338 77.5144 33.0355 77.5842 33.6055L77.6029 33.7548L77.5152 33.6198C77.3652 33.3873 77.2152 33.2283 77.0217 33.1C76.6737 32.8698 76.3054 32.7918 75.3304 32.74C74.4499 32.6935 73.9512 32.6185 73.4577 32.4573C72.6169 32.1835 72.1932 31.8183 71.1942 30.508C70.7509 29.926 70.4764 29.6043 70.2042 29.3455C69.5839 28.756 68.9749 28.447 68.1957 28.3255Z" fill="white"/>
<path d="M75.8165 29.6252C75.839 29.2352 75.8915 28.978 75.998 28.7432C76.04 28.6502 76.0798 28.5737 76.0858 28.5737C76.0789 28.6263 76.065 28.6778 76.0445 28.7267C75.9673 28.9547 75.9545 29.2667 76.0078 29.629C76.0753 30.0895 76.1143 30.1555 76.6003 30.6527C76.829 30.886 77.0945 31.18 77.1905 31.3067L77.3653 31.5362L77.1905 31.372C76.9768 31.1717 76.4848 30.7795 76.376 30.724C76.3033 30.6865 76.292 30.6872 76.247 30.7315C76.2058 30.7735 76.1968 30.835 76.1915 31.1282C76.1825 31.5842 76.1203 31.8782 75.9695 32.1707C75.8885 32.3282 75.8758 32.2952 75.9493 32.116C76.004 31.9825 76.0093 31.924 76.0093 31.4822C76.0093 30.5942 75.9035 30.3812 75.2848 30.0152C75.0986 29.9072 74.9074 29.808 74.7118 29.7182C74.6152 29.6793 74.5215 29.6337 74.4313 29.5817C74.4485 29.5645 75.0515 29.74 75.2938 29.8337C75.6553 29.9725 75.7145 29.9905 75.7588 29.9732C75.788 29.962 75.8023 29.8765 75.8165 29.6252ZM68.6113 31.144C68.177 30.5462 67.9085 29.629 67.9663 28.9435L67.9843 28.7312L68.0833 28.7492C68.2693 28.783 68.5895 28.9022 68.7395 28.9937C69.1505 29.2435 69.329 29.5727 69.5098 30.4172C69.563 30.6647 69.6328 30.9445 69.665 31.0397C69.716 31.192 69.911 31.5482 70.07 31.78C70.184 31.9465 70.1075 32.0252 69.8555 32.0027C69.47 31.9675 68.948 31.6075 68.6113 31.144ZM75.29 35.5952C73.2598 34.7777 72.545 34.0682 72.545 32.8712C72.545 32.695 72.551 32.551 72.5578 32.551C72.5645 32.551 72.644 32.6087 72.7325 32.68C73.1443 33.01 73.6055 33.151 74.8813 33.337C75.632 33.4472 76.055 33.5357 76.445 33.6647C77.684 34.0757 78.4505 34.9097 78.6335 36.0452C78.686 36.3752 78.6553 36.994 78.569 37.3202C78.5015 37.5782 78.2938 38.0425 78.239 38.0605C78.224 38.065 78.209 38.0072 78.2045 37.927C78.1835 37.501 77.9683 37.0855 77.606 36.7742C77.1943 36.421 76.6423 36.139 75.29 35.5952ZM73.865 35.9342C73.8407 35.7894 73.8079 35.6462 73.7668 35.5052L73.7143 35.3507L73.811 35.4587C73.9438 35.6087 74.0495 35.7992 74.138 36.0542C74.2063 36.2485 74.2138 36.3062 74.213 36.622C74.213 36.9325 74.2048 36.997 74.1418 37.1725C74.0547 37.4301 73.908 37.6634 73.7135 37.8535C73.3423 38.2315 72.866 38.44 72.1775 38.527C72.0575 38.542 71.7095 38.5675 71.4028 38.5832C70.6303 38.6237 70.1225 38.7062 69.6658 38.8667C69.6245 38.885 69.5803 38.8957 69.5353 38.8982C69.5173 38.8795 69.8278 38.6942 70.085 38.5705C70.4473 38.3957 70.8073 38.3005 71.615 38.1662C72.014 38.0995 72.4265 38.0192 72.5308 37.987C73.5193 37.684 74.0278 36.9025 73.865 35.9342Z" fill="white"/>
<path d="M74.7951 37.587C74.5251 37.0072 74.4636 36.447 74.6113 35.925C74.6271 35.8695 74.6526 35.8237 74.6676 35.8237C74.7185 35.8418 74.7663 35.8676 74.8093 35.9002C74.9338 35.9842 75.1828 36.1252 75.8466 36.4867C76.6753 36.939 77.1478 37.2892 77.4696 37.6882C77.7508 38.0385 77.9248 38.4375 78.0088 38.9235C78.0561 39.1987 78.0283 39.861 77.9578 40.1385C77.7351 41.013 77.2168 41.7 76.4788 42.1005C76.4088 42.1401 76.3367 42.1759 76.2628 42.2077C76.2523 42.2077 76.2913 42.108 76.3506 41.985C76.5981 41.466 76.6273 40.9605 76.4391 40.398C76.3243 40.0537 76.0896 39.633 75.6163 38.9235C75.0658 38.0985 74.9308 37.878 74.7951 37.587ZM67.1698 40.7152C67.9236 40.0792 68.8603 39.6277 69.7146 39.489C70.0821 39.429 70.6956 39.453 71.0361 39.54C71.5821 39.6795 72.0711 39.993 72.3253 40.3657C72.5728 40.7302 72.6801 41.0482 72.7903 41.7547C72.8353 42.0337 72.8826 42.3135 72.8968 42.3772C72.9793 42.7432 73.1421 43.0365 73.3431 43.1835C73.6618 43.4167 74.2116 43.431 74.7516 43.221C74.808 43.1952 74.8675 43.1766 74.9286 43.1655C74.9481 43.185 74.6766 43.3672 74.4846 43.4632C74.2582 43.5849 74.0043 43.6464 73.7473 43.6417C73.2523 43.6417 72.8413 43.3905 72.4986 42.8767C72.4311 42.7755 72.2796 42.4732 72.1611 42.204C71.7996 41.379 71.6211 41.127 71.2011 40.8517C70.8343 40.6117 70.3626 40.569 70.0078 40.743C69.5413 40.9717 69.4116 41.568 69.7453 41.9452C69.8781 42.0952 70.1256 42.225 70.3281 42.2497C70.4164 42.2614 70.5062 42.254 70.5914 42.228C70.6767 42.202 70.7553 42.1581 70.8221 42.099C70.8889 42.04 70.9422 41.9674 70.9784 41.886C71.0147 41.8046 71.0331 41.7163 71.0323 41.6272C71.0323 41.3782 70.9363 41.2372 70.6963 41.1285C70.3686 40.9807 70.0161 41.1532 70.0176 41.4615C70.0183 41.5927 70.0753 41.6752 70.2073 41.7352C70.2921 41.7727 70.2936 41.7765 70.2246 41.7622C69.9238 41.6992 69.8533 41.337 70.0956 41.0962C70.3858 40.8067 70.9866 40.9342 71.1928 41.3287C71.2798 41.4945 71.2896 41.8252 71.2138 42.0247C71.0451 42.471 70.5516 42.705 70.0513 42.5775C69.7108 42.4905 69.5721 42.3967 69.1618 41.9737C68.4486 41.2387 68.1718 41.0962 67.1428 40.9357L66.9456 40.905L67.1698 40.7152Z" fill="white"/>
<path fill-rule="evenodd" clip-rule="evenodd" d="M63.647 26.5126L63.719 26.6004C66.5005 30.0059 67.937 31.7719 68.0285 31.8984C68.1785 32.1069 68.1222 32.2936 67.8642 32.4406C67.721 32.5224 67.4255 32.6049 67.2785 32.6049C67.1112 32.6049 66.923 32.5246 66.7857 32.3949C66.689 32.3026 66.2982 31.7191 65.396 30.3189C64.9734 29.6571 64.5454 28.9988 64.112 28.3441C64.0752 28.3096 64.076 28.3104 65.3255 30.5461C66.11 31.9501 66.3755 32.4459 66.3755 32.5126C66.3755 32.6476 66.338 32.7181 66.1715 32.9041C65.894 33.2139 65.7702 33.5619 65.6802 34.2819C65.5797 35.0896 65.2977 35.6596 64.5147 36.6354C64.0572 37.2069 63.9822 37.3119 63.866 37.5421C63.7205 37.8316 63.6807 37.9944 63.6642 38.3604C63.647 38.7474 63.6807 38.9979 63.7992 39.3676C63.9027 39.6916 64.0107 39.9061 64.2867 40.3336C64.5252 40.7034 64.6625 40.9779 64.6625 41.0851C64.6625 41.1706 64.679 41.1706 65.0487 41.0874C65.933 40.8879 66.6507 40.5361 67.055 40.1056C67.3047 39.8394 67.3632 39.6924 67.3655 39.3271C67.3662 39.0886 67.358 39.0384 67.2935 38.9011C67.1885 38.6776 66.9972 38.4916 66.5757 38.2036C66.023 37.8256 65.7875 37.5211 65.7222 37.1034C65.6682 36.7606 65.7305 36.5184 66.0365 35.8779C66.3522 35.2149 66.431 34.9329 66.4842 34.2646C66.518 33.8326 66.5652 33.6624 66.6897 33.5259C66.8187 33.3834 66.9357 33.3346 67.256 33.2911C67.778 33.2199 68.1102 33.0849 68.3832 32.8336C68.6202 32.6146 68.7192 32.4039 68.7342 32.0874L68.7462 31.8474L68.6135 31.6929C68.4235 31.4709 66.8475 29.7319 63.8855 26.4759L63.806 26.3896L63.647 26.5134V26.5126ZM64.9325 38.7991C64.9848 38.7065 65.0004 38.5976 64.9763 38.494C64.9521 38.3903 64.8899 38.2996 64.802 38.2396C64.631 38.1256 64.3647 38.1796 64.3647 38.3281C64.3647 38.3731 64.3895 38.4061 64.4457 38.4354C64.541 38.4841 64.5477 38.5396 64.4735 38.6514C64.3977 38.7654 64.4037 38.8659 64.4907 38.9341C64.6302 39.0436 64.8275 38.9829 64.9325 38.7991ZM69.0755 33.4171C68.8302 33.4921 68.5925 33.7524 68.5182 34.0246C68.4732 34.1904 68.4987 34.4821 68.5662 34.5721C68.675 34.7176 68.7807 34.7559 69.0657 34.7536C69.6237 34.7499 70.1082 34.5106 70.1652 34.2114C70.2117 33.9661 69.998 33.6264 69.7047 33.4764C69.5532 33.3999 69.2315 33.3691 69.0755 33.4171ZM69.728 33.9271C69.8142 33.8049 69.776 33.6721 69.6305 33.5836C69.3515 33.4134 68.93 33.5536 68.93 33.8176C68.93 33.9481 69.1497 34.0914 69.3507 34.0914C69.4857 34.0914 69.6687 34.0111 69.728 33.9271Z" fill="white"/>
</g>
<path d="M39.8019 69.9375H42.0519V81.4805C42.0519 82.7617 41.7667 83.8281 41.1964 84.6797C40.6261 85.5312 39.8683 86.1719 38.923 86.6016C37.9855 87.0234 36.9659 87.2344 35.8644 87.2344C34.7081 87.2344 33.6613 87.0234 32.7238 86.6016C31.7941 86.1719 31.0558 85.5312 30.5089 84.6797C29.9698 83.8281 29.7003 82.7617 29.7003 81.4805V69.9375H31.9386V81.4805C31.9386 82.3711 32.1027 83.1055 32.4308 83.6836C32.7589 84.2617 33.2159 84.6914 33.8019 84.9727C34.3956 85.2539 35.0831 85.3945 35.8644 85.3945C36.6534 85.3945 37.3409 85.2539 37.9269 84.9727C38.5206 84.6914 38.9816 84.2617 39.3097 83.6836C39.6378 83.1055 39.8019 82.3711 39.8019 81.4805V69.9375ZM46.4825 77.0273V87H44.3145V74.3203H46.3653L46.4825 77.0273ZM45.9669 80.1797L45.0645 80.1445C45.0723 79.2773 45.2013 78.4766 45.4513 77.7422C45.7013 77 46.0528 76.3555 46.5059 75.8086C46.9591 75.2617 47.4981 74.8398 48.1231 74.543C48.7559 74.2383 49.4552 74.0859 50.2208 74.0859C50.8458 74.0859 51.4083 74.1719 51.9083 74.3438C52.4083 74.5078 52.8341 74.7734 53.1856 75.1406C53.545 75.5078 53.8184 75.9844 54.0059 76.5703C54.1934 77.1484 54.2872 77.8555 54.2872 78.6914V87H52.1075V78.668C52.1075 78.0039 52.0098 77.4727 51.8145 77.0742C51.6192 76.668 51.3341 76.375 50.9591 76.1953C50.5841 76.0078 50.1231 75.9141 49.5763 75.9141C49.0372 75.9141 48.545 76.0273 48.0997 76.2539C47.6622 76.4805 47.2833 76.793 46.963 77.1914C46.6505 77.5898 46.4044 78.0469 46.2247 78.5625C46.0528 79.0703 45.9669 79.6094 45.9669 80.1797ZM58.9756 74.3203V87H56.7959V74.3203H58.9756ZM56.6319 70.957C56.6319 70.6055 56.7373 70.3086 56.9483 70.0664C57.167 69.8242 57.4873 69.7031 57.9092 69.7031C58.3233 69.7031 58.6397 69.8242 58.8584 70.0664C59.085 70.3086 59.1983 70.6055 59.1983 70.957C59.1983 71.293 59.085 71.582 58.8584 71.8242C58.6397 72.0586 58.3233 72.1758 57.9092 72.1758C57.4873 72.1758 57.167 72.0586 56.9483 71.8242C56.7373 71.582 56.6319 71.293 56.6319 70.957ZM68.8789 83.6367C68.8789 83.3242 68.8086 83.0352 68.668 82.7695C68.5352 82.4961 68.2578 82.25 67.8359 82.0312C67.4219 81.8047 66.7969 81.6094 65.9609 81.4453C65.2578 81.2969 64.6211 81.1211 64.0508 80.918C63.4883 80.7148 63.0078 80.4688 62.6094 80.1797C62.2188 79.8906 61.918 79.5508 61.707 79.1602C61.4961 78.7695 61.3906 78.3125 61.3906 77.7891C61.3906 77.2891 61.5 76.8164 61.7188 76.3711C61.9453 75.9258 62.2617 75.5312 62.668 75.1875C63.082 74.8438 63.5781 74.5742 64.1563 74.3789C64.7344 74.1836 65.3789 74.0859 66.0898 74.0859C67.1055 74.0859 67.9727 74.2656 68.6914 74.625C69.4102 74.9844 69.9609 75.4648 70.3438 76.0664C70.7266 76.6602 70.918 77.3203 70.918 78.0469H68.75C68.75 77.6953 68.6445 77.3555 68.4336 77.0273C68.2305 76.6914 67.9297 76.4141 67.5313 76.1953C67.1406 75.9766 66.6602 75.8672 66.0898 75.8672C65.4883 75.8672 65 75.9609 64.625 76.1484C64.2578 76.3281 63.9883 76.5586 63.8164 76.8398C63.6523 77.1211 63.5703 77.418 63.5703 77.7305C63.5703 77.9648 63.6094 78.1758 63.6875 78.3633C63.7734 78.543 63.9219 78.7109 64.1328 78.8672C64.3438 79.0156 64.6406 79.1562 65.0234 79.2891C65.4063 79.4219 65.8945 79.5547 66.4883 79.6875C67.5273 79.9219 68.3828 80.2031 69.0547 80.5312C69.7266 80.8594 70.2266 81.2617 70.5547 81.7383C70.8828 82.2148 71.0469 82.793 71.0469 83.4727C71.0469 84.0273 70.9297 84.5352 70.6953 84.9961C70.4688 85.457 70.1367 85.8555 69.6992 86.1914C69.2695 86.5195 68.7539 86.7773 68.1523 86.9648C67.5586 87.1445 66.8906 87.2344 66.1484 87.2344C65.0313 87.2344 64.0859 87.0352 63.3125 86.6367C62.5391 86.2383 61.9531 85.7227 61.5547 85.0898C61.1563 84.457 60.957 83.7891 60.957 83.0859H63.1367C63.168 83.6797 63.3398 84.1523 63.6523 84.5039C63.9648 84.8477 64.3477 85.0938 64.8008 85.2422C65.2539 85.3828 65.7031 85.4531 66.1484 85.4531C66.7422 85.4531 67.2383 85.375 67.6367 85.2188C68.043 85.0625 68.3516 84.8477 68.5625 84.5742C68.7734 84.3008 68.8789 83.9883 68.8789 83.6367ZM76.1455 84.75L79.4033 74.3203H80.833L80.5517 76.3945L77.2353 87H75.8408L76.1455 84.75ZM73.9541 74.3203L76.7314 84.8672L76.9306 87H75.4658L71.7861 74.3203H73.9541ZM83.9502 84.7852L86.5986 74.3203H88.7548L85.0752 87H83.622L83.9502 84.7852ZM81.1494 74.3203L84.3369 84.5742L84.7002 87H83.3173L79.9072 76.3711L79.6259 74.3203H81.1494ZM97.498 84.832V78.3047C97.498 77.8047 97.3964 77.3711 97.1933 77.0039C96.998 76.6289 96.7011 76.3398 96.3027 76.1367C95.9042 75.9336 95.412 75.832 94.8261 75.832C94.2792 75.832 93.7988 75.9258 93.3847 76.1133C92.9784 76.3008 92.6581 76.5469 92.4238 76.8516C92.1972 77.1562 92.0839 77.4844 92.0839 77.8359H89.9159C89.9159 77.3828 90.0331 76.9336 90.2675 76.4883C90.5019 76.043 90.8378 75.6406 91.2753 75.2812C91.7206 74.9141 92.2519 74.625 92.8691 74.4141C93.4941 74.1953 94.1894 74.0859 94.955 74.0859C95.8769 74.0859 96.6894 74.2422 97.3925 74.5547C98.1034 74.8672 98.6581 75.3398 99.0566 75.9727C99.4628 76.5977 99.6659 77.3828 99.6659 78.3281V84.2344C99.6659 84.6562 99.7011 85.1055 99.7714 85.582C99.8495 86.0586 99.9628 86.4688 100.111 86.8125V87H97.8495C97.7402 86.75 97.6542 86.418 97.5917 86.0039C97.5292 85.582 97.498 85.1914 97.498 84.832ZM97.873 79.3125L97.8964 80.8359H95.705C95.0878 80.8359 94.537 80.8867 94.0527 80.9883C93.5683 81.082 93.162 81.2266 92.8339 81.4219C92.5058 81.6172 92.2558 81.8633 92.0839 82.1602C91.912 82.4492 91.8261 82.7891 91.8261 83.1797C91.8261 83.5781 91.9159 83.9414 92.0956 84.2695C92.2753 84.5977 92.5448 84.8594 92.9042 85.0547C93.2714 85.2422 93.7206 85.3359 94.2519 85.3359C94.9159 85.3359 95.5019 85.1953 96.0097 84.9141C96.5175 84.6328 96.9198 84.2891 97.2167 83.8828C97.5214 83.4766 97.6855 83.082 97.7089 82.6992L98.6347 83.7422C98.58 84.0703 98.4316 84.4336 98.1894 84.832C97.9472 85.2305 97.623 85.6133 97.2167 85.9805C96.8183 86.3398 96.3417 86.6406 95.787 86.8828C95.2402 87.1172 94.623 87.2344 93.9355 87.2344C93.0761 87.2344 92.3222 87.0664 91.6738 86.7305C91.0331 86.3945 90.5331 85.9453 90.1738 85.3828C89.8222 84.8125 89.6464 84.1758 89.6464 83.4727C89.6464 82.793 89.7792 82.1953 90.0448 81.6797C90.3105 81.1562 90.6933 80.7227 91.1933 80.3789C91.6933 80.0273 92.2948 79.7617 92.998 79.582C93.7011 79.4023 94.4863 79.3125 95.3534 79.3125H97.873ZM104.284 76.7578V91.875H102.104V74.3203H104.097L104.284 76.7578ZM112.827 80.5547V80.8008C112.827 81.7227 112.718 82.5781 112.499 83.3672C112.28 84.1484 111.96 84.8281 111.538 85.4062C111.124 85.9844 110.612 86.4336 110.003 86.7539C109.393 87.0742 108.694 87.2344 107.905 87.2344C107.1 87.2344 106.39 87.1016 105.772 86.8359C105.155 86.5703 104.632 86.1836 104.202 85.6758C103.772 85.168 103.429 84.5586 103.171 83.8477C102.921 83.1367 102.749 82.3359 102.655 81.4453V80.1328C102.749 79.1953 102.925 78.3555 103.182 77.6133C103.44 76.8711 103.78 76.2383 104.202 75.7148C104.632 75.1836 105.151 74.7812 105.761 74.5078C106.37 74.2266 107.073 74.0859 107.87 74.0859C108.667 74.0859 109.374 74.2422 109.991 74.5547C110.608 74.8594 111.128 75.2969 111.55 75.8672C111.972 76.4375 112.288 77.1211 112.499 77.918C112.718 78.707 112.827 79.5859 112.827 80.5547ZM110.647 80.8008V80.5547C110.647 79.9219 110.581 79.3281 110.448 78.7734C110.315 78.2109 110.108 77.7188 109.827 77.2969C109.554 76.8672 109.202 76.5312 108.772 76.2891C108.343 76.0391 107.831 75.9141 107.237 75.9141C106.69 75.9141 106.214 76.0078 105.807 76.1953C105.409 76.3828 105.069 76.6367 104.788 76.957C104.507 77.2695 104.276 77.6289 104.097 78.0352C103.925 78.4336 103.796 78.8477 103.71 79.2773V82.3125C103.866 82.8594 104.085 83.375 104.366 83.8594C104.647 84.3359 105.022 84.7227 105.491 85.0195C105.96 85.3086 106.55 85.4531 107.261 85.4531C107.847 85.4531 108.35 85.332 108.772 85.0898C109.202 84.8398 109.554 84.5 109.827 84.0703C110.108 83.6406 110.315 83.1484 110.448 82.5938C110.581 82.0312 110.647 81.4336 110.647 80.8008Z" fill="#030406"/>
<path d="M59.1313 121.922C59.1313 122.615 58.9698 123.203 58.6469 123.688C58.3292 124.167 57.8969 124.531 57.35 124.781C56.8083 125.031 56.1964 125.156 55.5141 125.156C54.8318 125.156 54.2172 125.031 53.6703 124.781C53.1234 124.531 52.6911 124.167 52.3734 123.688C52.0557 123.203 51.8969 122.615 51.8969 121.922C51.8969 121.469 51.9828 121.055 52.1547 120.68C52.3318 120.299 52.5792 119.969 52.8969 119.688C53.2198 119.406 53.6 119.19 54.0375 119.039C54.4802 118.883 54.9672 118.805 55.4984 118.805C56.1964 118.805 56.8188 118.94 57.3656 119.211C57.9125 119.477 58.3422 119.844 58.6547 120.312C58.9724 120.781 59.1313 121.318 59.1313 121.922ZM57.6781 121.891C57.6781 121.469 57.587 121.096 57.4047 120.773C57.2224 120.445 56.9672 120.19 56.6391 120.008C56.3109 119.826 55.9307 119.734 55.4984 119.734C55.0557 119.734 54.6729 119.826 54.35 120.008C54.0323 120.19 53.7849 120.445 53.6078 120.773C53.4307 121.096 53.3422 121.469 53.3422 121.891C53.3422 122.328 53.4281 122.703 53.6 123.016C53.7771 123.323 54.0271 123.56 54.35 123.727C54.6781 123.888 55.0661 123.969 55.5141 123.969C55.962 123.969 56.3474 123.888 56.6703 123.727C56.9932 123.56 57.2406 123.323 57.4125 123.016C57.5896 122.703 57.6781 122.328 57.6781 121.891ZM58.8656 116.586C58.8656 117.138 58.7198 117.635 58.4281 118.078C58.1365 118.521 57.738 118.87 57.2328 119.125C56.7276 119.38 56.1547 119.508 55.5141 119.508C54.863 119.508 54.2823 119.38 53.7719 119.125C53.2667 118.87 52.8708 118.521 52.5844 118.078C52.2979 117.635 52.1547 117.138 52.1547 116.586C52.1547 115.924 52.2979 115.362 52.5844 114.898C52.876 114.435 53.2745 114.081 53.7797 113.836C54.2849 113.591 54.8604 113.469 55.5063 113.469C56.1573 113.469 56.7354 113.591 57.2406 113.836C57.7458 114.081 58.1417 114.435 58.4281 114.898C58.7198 115.362 58.8656 115.924 58.8656 116.586ZM57.4203 116.609C57.4203 116.229 57.3396 115.893 57.1781 115.602C57.0167 115.31 56.7927 115.081 56.5063 114.914C56.2198 114.742 55.8865 114.656 55.5063 114.656C55.126 114.656 54.7927 114.737 54.5063 114.898C54.225 115.055 54.0036 115.279 53.8422 115.57C53.6859 115.862 53.6078 116.208 53.6078 116.609C53.6078 117 53.6859 117.341 53.8422 117.633C54.0036 117.924 54.2276 118.151 54.5141 118.312C54.8005 118.474 55.1339 118.555 55.5141 118.555C55.8943 118.555 56.225 118.474 56.5063 118.312C56.7927 118.151 57.0167 117.924 57.1781 117.633C57.3396 117.341 57.4203 117 57.4203 116.609ZM63.8434 116.547H65.2966V126.008C65.2966 126.523 65.2132 126.961 65.0466 127.32C64.8851 127.68 64.6403 127.951 64.3122 128.133C63.9893 128.32 63.5804 128.414 63.0856 128.414C62.9554 128.414 62.8044 128.401 62.6325 128.375C62.4554 128.349 62.307 128.318 62.1872 128.281L62.195 127.117C62.294 127.138 62.4059 127.154 62.5309 127.164C62.6559 127.18 62.7653 127.188 62.8591 127.188C63.0726 127.188 63.2523 127.148 63.3981 127.07C63.544 126.992 63.6533 126.867 63.7263 126.695C63.8044 126.523 63.8434 126.294 63.8434 126.008V116.547ZM63.695 114.305C63.695 114.07 63.7679 113.872 63.9138 113.711C64.0596 113.549 64.2705 113.469 64.5466 113.469C64.8278 113.469 65.0414 113.549 65.1872 113.711C65.333 113.872 65.4059 114.07 65.4059 114.305C65.4059 114.529 65.333 114.721 65.1872 114.883C65.0414 115.039 64.8278 115.117 64.5466 115.117C64.2705 115.117 64.0596 115.039 63.9138 114.883C63.7679 114.721 63.695 114.529 63.695 114.305ZM66.6097 120.867V120.688C66.6097 120.078 66.6982 119.513 66.8753 118.992C67.0524 118.466 67.3076 118.01 67.6409 117.625C67.9743 117.234 68.3779 116.932 68.8519 116.719C69.3258 116.5 69.8571 116.391 70.4456 116.391C71.0394 116.391 71.5732 116.5 72.0472 116.719C72.5264 116.932 72.9326 117.234 73.2659 117.625C73.6045 118.01 73.8623 118.466 74.0394 118.992C74.2165 119.513 74.305 120.078 74.305 120.688V120.867C74.305 121.477 74.2165 122.042 74.0394 122.562C73.8623 123.083 73.6045 123.539 73.2659 123.93C72.9326 124.315 72.529 124.617 72.055 124.836C71.5863 125.049 71.055 125.156 70.4613 125.156C69.8675 125.156 69.3336 125.049 68.8597 124.836C68.3857 124.617 67.9795 124.315 67.6409 123.93C67.3076 123.539 67.0524 123.083 66.8753 122.562C66.6982 122.042 66.6097 121.477 66.6097 120.867ZM68.055 120.688V120.867C68.055 121.289 68.1045 121.688 68.2034 122.062C68.3024 122.432 68.4508 122.76 68.6488 123.047C68.8519 123.333 69.1045 123.56 69.4066 123.727C69.7086 123.888 70.0602 123.969 70.4613 123.969C70.8571 123.969 71.2034 123.888 71.5003 123.727C71.8024 123.56 72.0524 123.333 72.2503 123.047C72.4482 122.76 72.5967 122.432 72.6956 122.062C72.7998 121.688 72.8519 121.289 72.8519 120.867V120.688C72.8519 120.271 72.7998 119.878 72.6956 119.508C72.5967 119.133 72.4456 118.802 72.2425 118.516C72.0446 118.224 71.7946 117.995 71.4925 117.828C71.1956 117.661 70.8467 117.578 70.4456 117.578C70.0498 117.578 69.7008 117.661 69.3988 117.828C69.1019 117.995 68.8519 118.224 68.6488 118.516C68.4508 118.802 68.3024 119.133 68.2034 119.508C68.1045 119.878 68.055 120.271 68.055 120.688ZM75.4697 113H76.9228V123.359L76.7978 125H75.4697V113ZM82.6338 120.703V120.867C82.6338 121.482 82.5608 122.052 82.415 122.578C82.2692 123.099 82.0556 123.552 81.7744 123.938C81.4931 124.323 81.1494 124.622 80.7431 124.836C80.3369 125.049 79.8707 125.156 79.3447 125.156C78.8082 125.156 78.3369 125.065 77.9306 124.883C77.5296 124.695 77.191 124.427 76.915 124.078C76.639 123.729 76.4176 123.307 76.2509 122.812C76.0895 122.318 75.9775 121.76 75.915 121.141V120.422C75.9775 119.797 76.0895 119.237 76.2509 118.742C76.4176 118.247 76.639 117.826 76.915 117.477C77.191 117.122 77.5296 116.854 77.9306 116.672C78.3317 116.484 78.7978 116.391 79.3291 116.391C79.8603 116.391 80.3317 116.495 80.7431 116.703C81.1546 116.906 81.4983 117.198 81.7744 117.578C82.0556 117.958 82.2692 118.414 82.415 118.945C82.5608 119.471 82.6338 120.057 82.6338 120.703ZM81.1806 120.867V120.703C81.1806 120.281 81.1416 119.885 81.0634 119.516C80.9853 119.141 80.8603 118.812 80.6884 118.531C80.5166 118.245 80.29 118.021 80.0088 117.859C79.7275 117.693 79.3811 117.609 78.9697 117.609C78.6051 117.609 78.2874 117.672 78.0166 117.797C77.7509 117.922 77.5244 118.091 77.3369 118.305C77.1494 118.513 76.9957 118.753 76.8759 119.023C76.7614 119.289 76.6754 119.565 76.6181 119.852V121.734C76.7015 122.099 76.8369 122.451 77.0244 122.789C77.2171 123.122 77.4723 123.396 77.79 123.609C78.1129 123.823 78.5114 123.93 78.9853 123.93C79.3759 123.93 79.7093 123.852 79.9853 123.695C80.2666 123.534 80.4931 123.312 80.665 123.031C80.8421 122.75 80.9723 122.424 81.0556 122.055C81.139 121.685 81.1806 121.289 81.1806 120.867ZM88.7437 122.758C88.7437 122.549 88.6969 122.357 88.6031 122.18C88.5146 121.997 88.3297 121.833 88.0484 121.688C87.7724 121.536 87.3557 121.406 86.7984 121.297C86.3297 121.198 85.9052 121.081 85.525 120.945C85.15 120.81 84.8297 120.646 84.5641 120.453C84.3036 120.26 84.1031 120.034 83.9625 119.773C83.8219 119.513 83.7516 119.208 83.7516 118.859C83.7516 118.526 83.8245 118.211 83.9703 117.914C84.1214 117.617 84.3323 117.354 84.6031 117.125C84.8792 116.896 85.2099 116.716 85.5953 116.586C85.9807 116.456 86.4104 116.391 86.8844 116.391C87.5615 116.391 88.1396 116.51 88.6187 116.75C89.0979 116.99 89.4651 117.31 89.7203 117.711C89.9755 118.107 90.1031 118.547 90.1031 119.031H88.6578C88.6578 118.797 88.5875 118.57 88.4469 118.352C88.3115 118.128 88.1109 117.943 87.8453 117.797C87.5849 117.651 87.2646 117.578 86.8844 117.578C86.4833 117.578 86.1578 117.641 85.9078 117.766C85.663 117.885 85.4833 118.039 85.3687 118.227C85.2594 118.414 85.2047 118.612 85.2047 118.82C85.2047 118.977 85.2307 119.117 85.2828 119.242C85.3401 119.362 85.4391 119.474 85.5797 119.578C85.7203 119.677 85.9182 119.771 86.1734 119.859C86.4286 119.948 86.7542 120.036 87.15 120.125C87.8427 120.281 88.413 120.469 88.8609 120.688C89.3089 120.906 89.6422 121.174 89.8609 121.492C90.0797 121.81 90.1891 122.195 90.1891 122.648C90.1891 123.018 90.1109 123.357 89.9547 123.664C89.8036 123.971 89.5823 124.237 89.2906 124.461C89.0042 124.68 88.6604 124.852 88.2594 124.977C87.8635 125.096 87.4182 125.156 86.9234 125.156C86.1786 125.156 85.5484 125.023 85.0328 124.758C84.5172 124.492 84.1266 124.148 83.8609 123.727C83.5953 123.305 83.4625 122.859 83.4625 122.391H84.9156C84.9365 122.786 85.051 123.102 85.2594 123.336C85.4677 123.565 85.7229 123.729 86.025 123.828C86.3271 123.922 86.6266 123.969 86.9234 123.969C87.3193 123.969 87.65 123.917 87.9156 123.812C88.1865 123.708 88.3922 123.565 88.5328 123.383C88.6734 123.201 88.7437 122.992 88.7437 122.758Z" fill="#666666"/>
<defs>
<clipPath id="clip0_2038_640">
<rect width="24" height="24" fill="white" transform="translate(59 24)"/>
</clipPath>
</defs>
</svg>
