<svg width="142" height="154" viewBox="0 0 142 154" fill="none" xmlns="http://www.w3.org/2000/svg">
<rect width="142" height="154" rx="16" fill="white"/>
<g clip-path="url(#clip0_2038_650)">
<path d="M71 48C77.6274 48 83 42.6274 83 36C83 29.3726 77.6274 24 71 24C64.3726 24 59 29.3726 59 36C59 42.6274 64.3726 48 71 48Z" fill="#2A5ADA"/>
<path d="M71 28.5L69.6508 29.2912L65.975 31.4587L64.625 32.25V39.75L65.9742 40.5413L69.6845 42.7087L71.0338 43.5L72.383 42.7087L76.0258 40.5413L77.375 39.75V32.25L76.0258 31.4587L72.3492 29.2912L71 28.5ZM67.3235 38.1675V33.8325L71 31.665L74.6765 33.8325V38.1675L71 40.335L67.3235 38.1675Z" fill="white"/>
</g>
<path d="M38.0666 81.5742H40.3166C40.1994 82.6523 39.8908 83.6172 39.3908 84.4688C38.8908 85.3203 38.1838 85.9961 37.2697 86.4961C36.3556 86.9883 35.215 87.2344 33.8478 87.2344C32.8478 87.2344 31.9377 87.0469 31.1173 86.6719C30.3048 86.2969 29.6056 85.7656 29.0197 85.0781C28.4338 84.3828 27.9806 83.5508 27.6603 82.582C27.3478 81.6055 27.1916 80.5195 27.1916 79.3242V77.625C27.1916 76.4297 27.3478 75.3477 27.6603 74.3789C27.9806 73.4023 28.4377 72.5664 29.0314 71.8711C29.633 71.1758 30.3556 70.6406 31.1994 70.2656C32.0431 69.8906 32.9923 69.7031 34.047 69.7031C35.3361 69.7031 36.4259 69.9453 37.3166 70.4297C38.2072 70.9141 38.8986 71.5859 39.3908 72.4453C39.8908 73.2969 40.1994 74.2852 40.3166 75.4102H38.0666C37.9572 74.6133 37.7541 73.9297 37.4572 73.3594C37.1603 72.7812 36.7384 72.3359 36.1916 72.0234C35.6447 71.7109 34.9298 71.5547 34.047 71.5547C33.2892 71.5547 32.6213 71.6992 32.0431 71.9883C31.4728 72.2773 30.9923 72.6875 30.6017 73.2188C30.2189 73.75 29.9298 74.3867 29.7345 75.1289C29.5392 75.8711 29.4416 76.6953 29.4416 77.6016V79.3242C29.4416 80.1602 29.5275 80.9453 29.6994 81.6797C29.8791 82.4141 30.1486 83.0586 30.508 83.6133C30.8673 84.168 31.3244 84.6055 31.8791 84.9258C32.4338 85.2383 33.09 85.3945 33.8478 85.3945C34.8088 85.3945 35.5744 85.2422 36.1447 84.9375C36.715 84.6328 37.1447 84.1953 37.4338 83.625C37.7306 83.0547 37.9416 82.3711 38.0666 81.5742ZM44.2784 69V87H42.1105V69H44.2784ZM43.7628 80.1797L42.8605 80.1445C42.8683 79.2773 42.9972 78.4766 43.2472 77.7422C43.4972 77 43.8488 76.3555 44.3019 75.8086C44.755 75.2617 45.2941 74.8398 45.9191 74.543C46.5519 74.2383 47.2511 74.0859 48.0167 74.0859C48.6417 74.0859 49.2042 74.1719 49.7042 74.3438C50.2042 74.5078 50.63 74.7734 50.9816 75.1406C51.3409 75.5078 51.6144 75.9844 51.8019 76.5703C51.9894 77.1484 52.0831 77.8555 52.0831 78.6914V87H49.9034V78.668C49.9034 78.0039 49.8058 77.4727 49.6105 77.0742C49.4152 76.668 49.13 76.375 48.755 76.1953C48.38 76.0078 47.9191 75.9141 47.3722 75.9141C46.8331 75.9141 46.3409 76.0273 45.8956 76.2539C45.4581 76.4805 45.0792 76.793 44.7589 77.1914C44.4464 77.5898 44.2003 78.0469 44.0206 78.5625C43.8488 79.0703 43.7628 79.6094 43.7628 80.1797ZM61.8458 84.832V78.3047C61.8458 77.8047 61.7442 77.3711 61.5411 77.0039C61.3458 76.6289 61.0489 76.3398 60.6505 76.1367C60.252 75.9336 59.7598 75.832 59.1739 75.832C58.627 75.832 58.1466 75.9258 57.7325 76.1133C57.3263 76.3008 57.0059 76.5469 56.7716 76.8516C56.545 77.1562 56.4317 77.4844 56.4317 77.8359H54.2638C54.2638 77.3828 54.3809 76.9336 54.6153 76.4883C54.8497 76.043 55.1856 75.6406 55.6231 75.2812C56.0684 74.9141 56.5997 74.625 57.2169 74.4141C57.8419 74.1953 58.5372 74.0859 59.3028 74.0859C60.2247 74.0859 61.0372 74.2422 61.7403 74.5547C62.4513 74.8672 63.0059 75.3398 63.4044 75.9727C63.8106 76.5977 64.0138 77.3828 64.0138 78.3281V84.2344C64.0138 84.6562 64.0489 85.1055 64.1192 85.582C64.1973 86.0586 64.3106 86.4688 64.4591 86.8125V87H62.1973C62.088 86.75 62.002 86.418 61.9395 86.0039C61.877 85.582 61.8458 85.1914 61.8458 84.832ZM62.2208 79.3125L62.2442 80.8359H60.0528C59.4356 80.8359 58.8848 80.8867 58.4005 80.9883C57.9161 81.082 57.5098 81.2266 57.1817 81.4219C56.8536 81.6172 56.6036 81.8633 56.4317 82.1602C56.2598 82.4492 56.1739 82.7891 56.1739 83.1797C56.1739 83.5781 56.2638 83.9414 56.4434 84.2695C56.6231 84.5977 56.8927 84.8594 57.252 85.0547C57.6192 85.2422 58.0684 85.3359 58.5997 85.3359C59.2638 85.3359 59.8497 85.1953 60.3575 84.9141C60.8653 84.6328 61.2677 84.2891 61.5645 83.8828C61.8692 83.4766 62.0333 83.082 62.0567 82.6992L62.9825 83.7422C62.9278 84.0703 62.7794 84.4336 62.5372 84.832C62.295 85.2305 61.9708 85.6133 61.5645 85.9805C61.1661 86.3398 60.6895 86.6406 60.1348 86.8828C59.588 87.1172 58.9708 87.2344 58.2833 87.2344C57.4239 87.2344 56.67 87.0664 56.0216 86.7305C55.3809 86.3945 54.8809 85.9453 54.5216 85.3828C54.17 84.8125 53.9942 84.1758 53.9942 83.4727C53.9942 82.793 54.127 82.1953 54.3927 81.6797C54.6583 81.1562 55.0411 80.7227 55.5411 80.3789C56.0411 80.0273 56.6427 79.7617 57.3458 79.582C58.0489 79.4023 58.8341 79.3125 59.7013 79.3125H62.2208ZM68.8194 74.3203V87H66.6397V74.3203H68.8194ZM66.4756 70.957C66.4756 70.6055 66.5811 70.3086 66.792 70.0664C67.0108 69.8242 67.3311 69.7031 67.753 69.7031C68.167 69.7031 68.4834 69.8242 68.7022 70.0664C68.9287 70.3086 69.042 70.6055 69.042 70.957C69.042 71.293 68.9287 71.582 68.7022 71.8242C68.4834 72.0586 68.167 72.1758 67.753 72.1758C67.3311 72.1758 67.0108 72.0586 66.792 71.8242C66.5811 71.582 66.4756 71.293 66.4756 70.957ZM73.5078 77.0273V87H71.3398V74.3203H73.3906L73.5078 77.0273ZM72.9922 80.1797L72.0898 80.1445C72.0977 79.2773 72.2266 78.4766 72.4766 77.7422C72.7266 77 73.0781 76.3555 73.5312 75.8086C73.9844 75.2617 74.5234 74.8398 75.1484 74.543C75.7812 74.2383 76.4805 74.0859 77.2461 74.0859C77.8711 74.0859 78.4336 74.1719 78.9336 74.3438C79.4336 74.5078 79.8594 74.7734 80.2109 75.1406C80.5703 75.5078 80.8438 75.9844 81.0312 76.5703C81.2188 77.1484 81.3125 77.8555 81.3125 78.6914V87H79.1328V78.668C79.1328 78.0039 79.0352 77.4727 78.8398 77.0742C78.6445 76.668 78.3594 76.375 77.9844 76.1953C77.6094 76.0078 77.1484 75.9141 76.6016 75.9141C76.0625 75.9141 75.5703 76.0273 75.125 76.2539C74.6875 76.4805 74.3086 76.793 73.9883 77.1914C73.6758 77.5898 73.4297 78.0469 73.25 78.5625C73.0781 79.0703 72.9922 79.6094 72.9922 80.1797ZM86.0009 69V87H83.8213V69H86.0009ZM90.8769 74.3203V87H88.6972V74.3203H90.8769ZM88.5331 70.957C88.5331 70.6055 88.6386 70.3086 88.8495 70.0664C89.0683 69.8242 89.3886 69.7031 89.8105 69.7031C90.2245 69.7031 90.5409 69.8242 90.7597 70.0664C90.9863 70.3086 91.0995 70.6055 91.0995 70.957C91.0995 71.293 90.9863 71.582 90.7597 71.8242C90.5409 72.0586 90.2245 72.1758 89.8105 72.1758C89.3886 72.1758 89.0683 72.0586 88.8495 71.8242C88.6386 71.582 88.5331 71.293 88.5331 70.957ZM95.5653 77.0273V87H93.3973V74.3203H95.4481L95.5653 77.0273ZM95.0497 80.1797L94.1473 80.1445C94.1552 79.2773 94.2841 78.4766 94.5341 77.7422C94.7841 77 95.1356 76.3555 95.5887 75.8086C96.0419 75.2617 96.5809 74.8398 97.2059 74.543C97.8387 74.2383 98.538 74.0859 99.3036 74.0859C99.9286 74.0859 100.491 74.1719 100.991 74.3438C101.491 74.5078 101.917 74.7734 102.268 75.1406C102.628 75.5078 102.901 75.9844 103.089 76.5703C103.276 77.1484 103.37 77.8555 103.37 78.6914V87H101.19V78.668C101.19 78.0039 101.093 77.4727 100.897 77.0742C100.702 76.668 100.417 76.375 100.042 76.1953C99.6669 76.0078 99.2059 75.9141 98.6591 75.9141C98.12 75.9141 97.6278 76.0273 97.1825 76.2539C96.745 76.4805 96.3661 76.793 96.0458 77.1914C95.7333 77.5898 95.4872 78.0469 95.3075 78.5625C95.1356 79.0703 95.0497 79.6094 95.0497 80.1797ZM107.883 69V87H105.703V69H107.883ZM115.629 74.3203L110.098 80.2383L107.004 83.4492L106.828 81.1406L109.043 78.4922L112.98 74.3203H115.629ZM113.648 87L109.125 80.9531L110.25 79.0195L116.203 87H113.648Z" fill="#030406"/>
<path d="M59.3109 113.625V114.438L54.6 125H53.0766L57.7797 114.812H51.6234V113.625H59.3109ZM63.8434 116.547H65.2966V126.008C65.2966 126.523 65.2132 126.961 65.0466 127.32C64.8851 127.68 64.6403 127.951 64.3122 128.133C63.9893 128.32 63.5804 128.414 63.0856 128.414C62.9554 128.414 62.8044 128.401 62.6325 128.375C62.4554 128.349 62.307 128.318 62.1872 128.281L62.195 127.117C62.294 127.138 62.4059 127.154 62.5309 127.164C62.6559 127.18 62.7653 127.188 62.8591 127.188C63.0726 127.188 63.2523 127.148 63.3981 127.07C63.544 126.992 63.6533 126.867 63.7263 126.695C63.8044 126.523 63.8434 126.294 63.8434 126.008V116.547ZM63.695 114.305C63.695 114.07 63.7679 113.872 63.9138 113.711C64.0596 113.549 64.2705 113.469 64.5466 113.469C64.8278 113.469 65.0414 113.549 65.1872 113.711C65.333 113.872 65.4059 114.07 65.4059 114.305C65.4059 114.529 65.333 114.721 65.1872 114.883C65.0414 115.039 64.8278 115.117 64.5466 115.117C64.2705 115.117 64.0596 115.039 63.9138 114.883C63.7679 114.721 63.695 114.529 63.695 114.305ZM66.6097 120.867V120.688C66.6097 120.078 66.6982 119.513 66.8753 118.992C67.0524 118.466 67.3076 118.01 67.6409 117.625C67.9743 117.234 68.3779 116.932 68.8519 116.719C69.3258 116.5 69.8571 116.391 70.4456 116.391C71.0394 116.391 71.5732 116.5 72.0472 116.719C72.5264 116.932 72.9326 117.234 73.2659 117.625C73.6045 118.01 73.8623 118.466 74.0394 118.992C74.2165 119.513 74.305 120.078 74.305 120.688V120.867C74.305 121.477 74.2165 122.042 74.0394 122.562C73.8623 123.083 73.6045 123.539 73.2659 123.93C72.9326 124.315 72.529 124.617 72.055 124.836C71.5863 125.049 71.055 125.156 70.4613 125.156C69.8675 125.156 69.3336 125.049 68.8597 124.836C68.3857 124.617 67.9795 124.315 67.6409 123.93C67.3076 123.539 67.0524 123.083 66.8753 122.562C66.6982 122.042 66.6097 121.477 66.6097 120.867ZM68.055 120.688V120.867C68.055 121.289 68.1045 121.688 68.2034 122.062C68.3024 122.432 68.4508 122.76 68.6488 123.047C68.8519 123.333 69.1045 123.56 69.4066 123.727C69.7086 123.888 70.0602 123.969 70.4613 123.969C70.8571 123.969 71.2034 123.888 71.5003 123.727C71.8024 123.56 72.0524 123.333 72.2503 123.047C72.4482 122.76 72.5967 122.432 72.6956 122.062C72.7998 121.688 72.8519 121.289 72.8519 120.867V120.688C72.8519 120.271 72.7998 119.878 72.6956 119.508C72.5967 119.133 72.4456 118.802 72.2425 118.516C72.0446 118.224 71.7946 117.995 71.4925 117.828C71.1956 117.661 70.8467 117.578 70.4456 117.578C70.0498 117.578 69.7008 117.661 69.3988 117.828C69.1019 117.995 68.8519 118.224 68.6488 118.516C68.4508 118.802 68.3024 119.133 68.2034 119.508C68.1045 119.878 68.055 120.271 68.055 120.688ZM75.4697 113H76.9228V123.359L76.7978 125H75.4697V113ZM82.6338 120.703V120.867C82.6338 121.482 82.5608 122.052 82.415 122.578C82.2692 123.099 82.0556 123.552 81.7744 123.938C81.4931 124.323 81.1494 124.622 80.7431 124.836C80.3369 125.049 79.8707 125.156 79.3447 125.156C78.8082 125.156 78.3369 125.065 77.9306 124.883C77.5296 124.695 77.191 124.427 76.915 124.078C76.639 123.729 76.4176 123.307 76.2509 122.812C76.0895 122.318 75.9775 121.76 75.915 121.141V120.422C75.9775 119.797 76.0895 119.237 76.2509 118.742C76.4176 118.247 76.639 117.826 76.915 117.477C77.191 117.122 77.5296 116.854 77.9306 116.672C78.3317 116.484 78.7978 116.391 79.3291 116.391C79.8603 116.391 80.3317 116.495 80.7431 116.703C81.1546 116.906 81.4983 117.198 81.7744 117.578C82.0556 117.958 82.2692 118.414 82.415 118.945C82.5608 119.471 82.6338 120.057 82.6338 120.703ZM81.1806 120.867V120.703C81.1806 120.281 81.1416 119.885 81.0634 119.516C80.9853 119.141 80.8603 118.812 80.6884 118.531C80.5166 118.245 80.29 118.021 80.0088 117.859C79.7275 117.693 79.3811 117.609 78.9697 117.609C78.6051 117.609 78.2874 117.672 78.0166 117.797C77.7509 117.922 77.5244 118.091 77.3369 118.305C77.1494 118.513 76.9957 118.753 76.8759 119.023C76.7614 119.289 76.6754 119.565 76.6181 119.852V121.734C76.7015 122.099 76.8369 122.451 77.0244 122.789C77.2171 123.122 77.4723 123.396 77.79 123.609C78.1129 123.823 78.5114 123.93 78.9853 123.93C79.3759 123.93 79.7093 123.852 79.9853 123.695C80.2666 123.534 80.4931 123.312 80.665 123.031C80.8421 122.75 80.9723 122.424 81.0556 122.055C81.139 121.685 81.1806 121.289 81.1806 120.867ZM88.7437 122.758C88.7437 122.549 88.6969 122.357 88.6031 122.18C88.5146 121.997 88.3297 121.833 88.0484 121.688C87.7724 121.536 87.3557 121.406 86.7984 121.297C86.3297 121.198 85.9052 121.081 85.525 120.945C85.15 120.81 84.8297 120.646 84.5641 120.453C84.3036 120.26 84.1031 120.034 83.9625 119.773C83.8219 119.513 83.7516 119.208 83.7516 118.859C83.7516 118.526 83.8245 118.211 83.9703 117.914C84.1214 117.617 84.3323 117.354 84.6031 117.125C84.8792 116.896 85.2099 116.716 85.5953 116.586C85.9807 116.456 86.4104 116.391 86.8844 116.391C87.5615 116.391 88.1396 116.51 88.6187 116.75C89.0979 116.99 89.4651 117.31 89.7203 117.711C89.9755 118.107 90.1031 118.547 90.1031 119.031H88.6578C88.6578 118.797 88.5875 118.57 88.4469 118.352C88.3115 118.128 88.1109 117.943 87.8453 117.797C87.5849 117.651 87.2646 117.578 86.8844 117.578C86.4833 117.578 86.1578 117.641 85.9078 117.766C85.663 117.885 85.4833 118.039 85.3687 118.227C85.2594 118.414 85.2047 118.612 85.2047 118.82C85.2047 118.977 85.2307 119.117 85.2828 119.242C85.3401 119.362 85.4391 119.474 85.5797 119.578C85.7203 119.677 85.9182 119.771 86.1734 119.859C86.4286 119.948 86.7542 120.036 87.15 120.125C87.8427 120.281 88.413 120.469 88.8609 120.688C89.3089 120.906 89.6422 121.174 89.8609 121.492C90.0797 121.81 90.1891 122.195 90.1891 122.648C90.1891 123.018 90.1109 123.357 89.9547 123.664C89.8036 123.971 89.5823 124.237 89.2906 124.461C89.0042 124.68 88.6604 124.852 88.2594 124.977C87.8635 125.096 87.4182 125.156 86.9234 125.156C86.1786 125.156 85.5484 125.023 85.0328 124.758C84.5172 124.492 84.1266 124.148 83.8609 123.727C83.5953 123.305 83.4625 122.859 83.4625 122.391H84.9156C84.9365 122.786 85.051 123.102 85.2594 123.336C85.4677 123.565 85.7229 123.729 86.025 123.828C86.3271 123.922 86.6266 123.969 86.9234 123.969C87.3193 123.969 87.65 123.917 87.9156 123.812C88.1865 123.708 88.3922 123.565 88.5328 123.383C88.6734 123.201 88.7437 122.992 88.7437 122.758Z" fill="#666666"/>
<defs>
<clipPath id="clip0_2038_650">
<rect width="24" height="24" fill="white" transform="translate(59 24)"/>
</clipPath>
</defs>
</svg>
