<svg width="142" height="154" viewBox="0 0 142 154" fill="none" xmlns="http://www.w3.org/2000/svg">
<rect width="142" height="154" rx="16" fill="white"/>
<path d="M75.364 39.2168L79.634 36.7818C79.7444 36.7183 79.8363 36.6271 79.9005 36.5171C79.9647 36.4071 79.999 36.2822 80 36.1548V31.2838C80 31.1563 79.9661 31.031 79.9018 30.9208C79.8375 30.8107 79.7451 30.7196 79.634 30.6568L75.364 28.2218C75.2525 28.1584 75.1263 28.125 74.998 28.125C74.8697 28.125 74.7435 28.1584 74.632 28.2218L70.362 30.6568C70.2509 30.7196 70.1585 30.8107 70.0942 30.9208C70.0299 31.031 69.996 31.1563 69.996 31.2838V39.9878L67.002 41.6948L64.008 39.9878V36.5728L67.002 34.8658L68.976 35.9928V33.7018L67.368 32.7838C67.2562 32.7213 67.1301 32.6885 67.002 32.6885C66.8739 32.6885 66.7478 32.7213 66.636 32.7838L62.366 35.2188C62.2549 35.2816 62.1625 35.3727 62.0982 35.4828C62.0339 35.593 62 35.7183 62 35.8458V40.7158C62 40.9738 62.14 41.2138 62.366 41.3428L66.636 43.7788C66.7478 43.8414 66.8739 43.8742 67.002 43.8742C67.1301 43.8742 67.2562 43.8414 67.368 43.7788L71.638 41.3428C71.7489 41.2802 71.8413 41.1893 71.9056 41.0793C71.9699 40.9693 72.0038 40.8442 72.004 40.7168V32.0118L72.057 31.9818L74.997 30.3048L77.991 32.0118V35.4268L74.997 37.1338L73.025 36.0098V38.3008L74.631 39.2168C74.7428 39.2794 74.8689 39.3122 74.997 39.3122C75.1251 39.3122 75.2522 39.2794 75.364 39.2168Z" fill="url(#paint0_linear_2038_656)"/>
<path d="M39.087 80.3086H34.5284V78.4688H39.087C39.9698 78.4688 40.6847 78.3281 41.2316 78.0469C41.7784 77.7656 42.1769 77.375 42.4269 76.875C42.6847 76.375 42.8136 75.8047 42.8136 75.1641C42.8136 74.5781 42.6847 74.0273 42.4269 73.5117C42.1769 72.9961 41.7784 72.582 41.2316 72.2695C40.6847 71.9492 39.9698 71.7891 39.087 71.7891H35.0558V87H32.7941V69.9375H39.087C40.3761 69.9375 41.4659 70.1602 42.3566 70.6055C43.2472 71.0508 43.923 71.668 44.3839 72.457C44.8448 73.2383 45.0753 74.1328 45.0753 75.1406C45.0753 76.2344 44.8448 77.168 44.3839 77.9414C43.923 78.7148 43.2472 79.3047 42.3566 79.7109C41.4659 80.1094 40.3761 80.3086 39.087 80.3086ZM45.9083 80.8008V80.5312C45.9083 79.6172 46.0411 78.7695 46.3067 77.9883C46.5723 77.1992 46.9552 76.5156 47.4552 75.9375C47.9552 75.3516 48.5606 74.8984 49.2716 74.5781C49.9825 74.25 50.7794 74.0859 51.6622 74.0859C52.5528 74.0859 53.3536 74.25 54.0645 74.5781C54.7833 74.8984 55.3927 75.3516 55.8927 75.9375C56.4005 76.5156 56.7872 77.1992 57.0528 77.9883C57.3184 78.7695 57.4513 79.6172 57.4513 80.5312V80.8008C57.4513 81.7148 57.3184 82.5625 57.0528 83.3438C56.7872 84.125 56.4005 84.8086 55.8927 85.3945C55.3927 85.9727 54.7872 86.4258 54.0763 86.7539C53.3731 87.0742 52.5763 87.2344 51.6856 87.2344C50.795 87.2344 49.9942 87.0742 49.2833 86.7539C48.5723 86.4258 47.963 85.9727 47.4552 85.3945C46.9552 84.8086 46.5723 84.125 46.3067 83.3438C46.0411 82.5625 45.9083 81.7148 45.9083 80.8008ZM48.0763 80.5312V80.8008C48.0763 81.4336 48.1505 82.0312 48.2989 82.5938C48.4473 83.1484 48.67 83.6406 48.9669 84.0703C49.2716 84.5 49.6505 84.8398 50.1036 85.0898C50.5567 85.332 51.0841 85.4531 51.6856 85.4531C52.2794 85.4531 52.7989 85.332 53.2442 85.0898C53.6973 84.8398 54.0723 84.5 54.3692 84.0703C54.6661 83.6406 54.8888 83.1484 55.0372 82.5938C55.1934 82.0312 55.2716 81.4336 55.2716 80.8008V80.5312C55.2716 79.9062 55.1934 79.3164 55.0372 78.7617C54.8888 78.1992 54.6622 77.7031 54.3575 77.2734C54.0606 76.8359 53.6856 76.4922 53.2325 76.2422C52.7872 75.9922 52.2638 75.8672 51.6622 75.8672C51.0684 75.8672 50.545 75.9922 50.0919 76.2422C49.6466 76.4922 49.2716 76.8359 48.9669 77.2734C48.67 77.7031 48.4473 78.1992 48.2989 78.7617C48.1505 79.3164 48.0763 79.9062 48.0763 80.5312ZM61.5655 69V87H59.3858V69H61.5655ZM67.6484 85.6875L71.1758 74.3203H73.4961L68.4102 88.957C68.293 89.2695 68.1367 89.6055 67.9414 89.9648C67.7539 90.332 67.5117 90.6797 67.2148 91.0078C66.918 91.3359 66.5586 91.6016 66.1367 91.8047C65.7227 92.0156 65.2266 92.1211 64.6484 92.1211C64.4766 92.1211 64.2578 92.0977 63.9922 92.0508C63.7266 92.0039 63.5391 91.9648 63.4297 91.9336L63.418 90.1758C63.4805 90.1836 63.5781 90.1914 63.7109 90.1992C63.8516 90.2148 63.9492 90.2227 64.0039 90.2227C64.4961 90.2227 64.9141 90.1562 65.2578 90.0234C65.6016 89.8984 65.8906 89.6836 66.125 89.3789C66.3672 89.082 66.5742 88.6719 66.7461 88.1484L67.6484 85.6875ZM65.0586 74.3203L68.3516 84.1641L68.9141 86.4492L67.3555 87.2461L62.6914 74.3203H65.0586ZM82.5439 74.3203H84.5127V86.7305C84.5127 87.8477 84.2861 88.8008 83.833 89.5898C83.3798 90.3789 82.747 90.9766 81.9345 91.3828C81.1298 91.7969 80.2002 92.0039 79.1455 92.0039C78.708 92.0039 78.1923 91.9336 77.5986 91.793C77.0127 91.6602 76.4345 91.4297 75.8642 91.1016C75.3017 90.7812 74.8291 90.3477 74.4463 89.8008L75.583 88.5117C76.1142 89.1523 76.6689 89.5977 77.247 89.8477C77.833 90.0977 78.4111 90.2227 78.9814 90.2227C79.6689 90.2227 80.2627 90.0938 80.7627 89.8359C81.2627 89.5781 81.6494 89.1953 81.9228 88.6875C82.2041 88.1875 82.3447 87.5703 82.3447 86.8359V77.1094L82.5439 74.3203ZM73.8134 80.8008V80.5547C73.8134 79.5859 73.9267 78.707 74.1533 77.918C74.3877 77.1211 74.7197 76.4375 75.1494 75.8672C75.5869 75.2969 76.1142 74.8594 76.7314 74.5547C77.3486 74.2422 78.0439 74.0859 78.8173 74.0859C79.6142 74.0859 80.3095 74.2266 80.9033 74.5078C81.5048 74.7812 82.0127 75.1836 82.4267 75.7148C82.8486 76.2383 83.1806 76.8711 83.4228 77.6133C83.665 78.3555 83.833 79.1953 83.9267 80.1328V81.2109C83.8408 82.1406 83.6728 82.9766 83.4228 83.7188C83.1806 84.4609 82.8486 85.0938 82.4267 85.6172C82.0127 86.1406 81.5048 86.543 80.9033 86.8242C80.3017 87.0977 79.5986 87.2344 78.7939 87.2344C78.0361 87.2344 77.3486 87.0742 76.7314 86.7539C76.122 86.4336 75.5986 85.9844 75.1611 85.4062C74.7236 84.8281 74.3877 84.1484 74.1533 83.3672C73.9267 82.5781 73.8134 81.7227 73.8134 80.8008ZM75.9814 80.5547V80.8008C75.9814 81.4336 76.0439 82.0273 76.1689 82.582C76.3017 83.1367 76.5009 83.625 76.7666 84.0469C77.04 84.4688 77.3877 84.8008 77.8095 85.043C78.2314 85.2773 78.7353 85.3945 79.3213 85.3945C80.04 85.3945 80.6338 85.2422 81.1025 84.9375C81.5713 84.6328 81.9423 84.2305 82.2158 83.7305C82.497 83.2305 82.7158 82.6875 82.872 82.1016V79.2773C82.7861 78.8477 82.6533 78.4336 82.4736 78.0352C82.3017 77.6289 82.0752 77.2695 81.7939 76.957C81.5205 76.6367 81.1806 76.3828 80.7744 76.1953C80.3681 76.0078 79.8916 75.9141 79.3447 75.9141C78.7509 75.9141 78.2392 76.0391 77.8095 76.2891C77.3877 76.5312 77.04 76.8672 76.7666 77.2969C76.5009 77.7188 76.3017 78.2109 76.1689 78.7734C76.0439 79.3281 75.9814 79.9219 75.9814 80.5547ZM86.2714 80.8008V80.5312C86.2714 79.6172 86.4042 78.7695 86.6698 77.9883C86.9355 77.1992 87.3183 76.5156 87.8183 75.9375C88.3183 75.3516 88.9238 74.8984 89.6347 74.5781C90.3456 74.25 91.1425 74.0859 92.0253 74.0859C92.9159 74.0859 93.7167 74.25 94.4277 74.5781C95.1464 74.8984 95.7558 75.3516 96.2558 75.9375C96.7636 76.5156 97.1503 77.1992 97.4159 77.9883C97.6816 78.7695 97.8144 79.6172 97.8144 80.5312V80.8008C97.8144 81.7148 97.6816 82.5625 97.4159 83.3438C97.1503 84.125 96.7636 84.8086 96.2558 85.3945C95.7558 85.9727 95.1503 86.4258 94.4394 86.7539C93.7363 87.0742 92.9394 87.2344 92.0488 87.2344C91.1581 87.2344 90.3573 87.0742 89.6464 86.7539C88.9355 86.4258 88.3261 85.9727 87.8183 85.3945C87.3183 84.8086 86.9355 84.125 86.6698 83.3438C86.4042 82.5625 86.2714 81.7148 86.2714 80.8008ZM88.4394 80.5312V80.8008C88.4394 81.4336 88.5136 82.0312 88.662 82.5938C88.8105 83.1484 89.0331 83.6406 89.33 84.0703C89.6347 84.5 90.0136 84.8398 90.4667 85.0898C90.9198 85.332 91.4472 85.4531 92.0488 85.4531C92.6425 85.4531 93.162 85.332 93.6073 85.0898C94.0605 84.8398 94.4355 84.5 94.7323 84.0703C95.0292 83.6406 95.2519 83.1484 95.4003 82.5938C95.5566 82.0312 95.6347 81.4336 95.6347 80.8008V80.5312C95.6347 79.9062 95.5566 79.3164 95.4003 78.7617C95.2519 78.1992 95.0253 77.7031 94.7206 77.2734C94.4238 76.8359 94.0488 76.4922 93.5956 76.2422C93.1503 75.9922 92.6269 75.8672 92.0253 75.8672C91.4316 75.8672 90.9081 75.9922 90.455 76.2422C90.0097 76.4922 89.6347 76.8359 89.33 77.2734C89.0331 77.7031 88.8105 78.1992 88.662 78.7617C88.5136 79.3164 88.4394 79.9062 88.4394 80.5312ZM101.741 77.0273V87H99.5731V74.3203H101.624L101.741 77.0273ZM101.225 80.1797L100.323 80.1445C100.331 79.2773 100.46 78.4766 100.71 77.7422C100.96 77 101.311 76.3555 101.765 75.8086C102.218 75.2617 102.757 74.8398 103.382 74.543C104.015 74.2383 104.714 74.0859 105.479 74.0859C106.104 74.0859 106.667 74.1719 107.167 74.3438C107.667 74.5078 108.093 74.7734 108.444 75.1406C108.804 75.5078 109.077 75.9844 109.265 76.5703C109.452 77.1484 109.546 77.8555 109.546 78.6914V87H107.366V78.668C107.366 78.0039 107.268 77.4727 107.073 77.0742C106.878 76.668 106.593 76.375 106.218 76.1953C105.843 76.0078 105.382 75.9141 104.835 75.9141C104.296 75.9141 103.804 76.0273 103.358 76.2539C102.921 76.4805 102.542 76.793 102.222 77.1914C101.909 77.5898 101.663 78.0469 101.483 78.5625C101.311 79.0703 101.225 79.6094 101.225 80.1797Z" fill="#030406"/>
<path d="M52.5294 113.562V125H51.0841V115.367L48.17 116.43V115.125L52.3028 113.562H52.5294ZM63.5925 123.812V125H56.1472V123.961L59.8737 119.812C60.3321 119.302 60.6862 118.87 60.9362 118.516C61.1915 118.156 61.3685 117.836 61.4675 117.555C61.5717 117.268 61.6237 116.977 61.6237 116.68C61.6237 116.305 61.5456 115.966 61.3894 115.664C61.2383 115.357 61.0144 115.112 60.7175 114.93C60.4206 114.747 60.0612 114.656 59.6394 114.656C59.1342 114.656 58.7123 114.755 58.3737 114.953C58.0404 115.146 57.7904 115.417 57.6237 115.766C57.4571 116.115 57.3737 116.516 57.3737 116.969H55.9284C55.9284 116.328 56.0691 115.742 56.3503 115.211C56.6316 114.68 57.0482 114.258 57.6003 113.945C58.1524 113.628 58.8321 113.469 59.6394 113.469C60.3581 113.469 60.9727 113.596 61.4831 113.852C61.9935 114.102 62.3842 114.456 62.655 114.914C62.931 115.367 63.0691 115.898 63.0691 116.508C63.0691 116.841 63.0118 117.18 62.8972 117.523C62.7878 117.862 62.6342 118.201 62.4362 118.539C62.2435 118.878 62.017 119.211 61.7566 119.539C61.5014 119.867 61.2279 120.19 60.9362 120.508L57.8894 123.812H63.5925ZM68.0234 116.547H69.4766V126.008C69.4766 126.523 69.3932 126.961 69.2266 127.32C69.0651 127.68 68.8203 127.951 68.4922 128.133C68.1693 128.32 67.7604 128.414 67.2656 128.414C67.1354 128.414 66.9844 128.401 66.8125 128.375C66.6354 128.349 66.487 128.318 66.3672 128.281L66.375 127.117C66.474 127.138 66.5859 127.154 66.7109 127.164C66.8359 127.18 66.9453 127.188 67.0391 127.188C67.2526 127.188 67.4323 127.148 67.5781 127.07C67.724 126.992 67.8333 126.867 67.9062 126.695C67.9844 126.523 68.0234 126.294 68.0234 126.008V116.547ZM67.875 114.305C67.875 114.07 67.9479 113.872 68.0938 113.711C68.2396 113.549 68.4505 113.469 68.7266 113.469C69.0078 113.469 69.2214 113.549 69.3672 113.711C69.513 113.872 69.5859 114.07 69.5859 114.305C69.5859 114.529 69.513 114.721 69.3672 114.883C69.2214 115.039 69.0078 115.117 68.7266 115.117C68.4505 115.117 68.2396 115.039 68.0938 114.883C67.9479 114.721 67.875 114.529 67.875 114.305ZM70.7897 120.867V120.688C70.7897 120.078 70.8782 119.513 71.0553 118.992C71.2324 118.466 71.4876 118.01 71.8209 117.625C72.1543 117.234 72.5579 116.932 73.0319 116.719C73.5058 116.5 74.0371 116.391 74.6256 116.391C75.2194 116.391 75.7532 116.5 76.2272 116.719C76.7064 116.932 77.1126 117.234 77.4459 117.625C77.7845 118.01 78.0423 118.466 78.2194 118.992C78.3965 119.513 78.485 120.078 78.485 120.688V120.867C78.485 121.477 78.3965 122.042 78.2194 122.562C78.0423 123.083 77.7845 123.539 77.4459 123.93C77.1126 124.315 76.709 124.617 76.235 124.836C75.7663 125.049 75.235 125.156 74.6413 125.156C74.0475 125.156 73.5136 125.049 73.0397 124.836C72.5657 124.617 72.1595 124.315 71.8209 123.93C71.4876 123.539 71.2324 123.083 71.0553 122.562C70.8782 122.042 70.7897 121.477 70.7897 120.867ZM72.235 120.688V120.867C72.235 121.289 72.2845 121.688 72.3834 122.062C72.4824 122.432 72.6308 122.76 72.8288 123.047C73.0319 123.333 73.2845 123.56 73.5866 123.727C73.8886 123.888 74.2402 123.969 74.6413 123.969C75.0371 123.969 75.3834 123.888 75.6803 123.727C75.9824 123.56 76.2324 123.333 76.4303 123.047C76.6282 122.76 76.7767 122.432 76.8756 122.062C76.9798 121.688 77.0319 121.289 77.0319 120.867V120.688C77.0319 120.271 76.9798 119.878 76.8756 119.508C76.7767 119.133 76.6256 118.802 76.4225 118.516C76.2246 118.224 75.9746 117.995 75.6725 117.828C75.3756 117.661 75.0267 117.578 74.6256 117.578C74.2298 117.578 73.8808 117.661 73.5788 117.828C73.2819 117.995 73.0319 118.224 72.8288 118.516C72.6308 118.802 72.4824 119.133 72.3834 119.508C72.2845 119.878 72.235 120.271 72.235 120.688ZM79.6497 113H81.1028V123.359L80.9778 125H79.6497V113ZM86.8138 120.703V120.867C86.8138 121.482 86.7408 122.052 86.595 122.578C86.4492 123.099 86.2356 123.552 85.9544 123.938C85.6731 124.323 85.3294 124.622 84.9231 124.836C84.5169 125.049 84.0507 125.156 83.5247 125.156C82.9882 125.156 82.5169 125.065 82.1106 124.883C81.7096 124.695 81.371 124.427 81.095 124.078C80.819 123.729 80.5976 123.307 80.4309 122.812C80.2695 122.318 80.1575 121.76 80.095 121.141V120.422C80.1575 119.797 80.2695 119.237 80.4309 118.742C80.5976 118.247 80.819 117.826 81.095 117.477C81.371 117.122 81.7096 116.854 82.1106 116.672C82.5117 116.484 82.9778 116.391 83.5091 116.391C84.0403 116.391 84.5117 116.495 84.9231 116.703C85.3346 116.906 85.6783 117.198 85.9544 117.578C86.2356 117.958 86.4492 118.414 86.595 118.945C86.7408 119.471 86.8138 120.057 86.8138 120.703ZM85.3606 120.867V120.703C85.3606 120.281 85.3216 119.885 85.2434 119.516C85.1653 119.141 85.0403 118.812 84.8684 118.531C84.6966 118.245 84.47 118.021 84.1888 117.859C83.9075 117.693 83.5611 117.609 83.1497 117.609C82.7851 117.609 82.4674 117.672 82.1966 117.797C81.9309 117.922 81.7044 118.091 81.5169 118.305C81.3294 118.513 81.1757 118.753 81.0559 119.023C80.9414 119.289 80.8554 119.565 80.7981 119.852V121.734C80.8815 122.099 81.0169 122.451 81.2044 122.789C81.3971 123.122 81.6523 123.396 81.97 123.609C82.2929 123.823 82.6914 123.93 83.1653 123.93C83.5559 123.93 83.8893 123.852 84.1653 123.695C84.4466 123.534 84.6731 123.312 84.845 123.031C85.0221 122.75 85.1523 122.424 85.2356 122.055C85.319 121.685 85.3606 121.289 85.3606 120.867ZM92.9238 122.758C92.9238 122.549 92.8769 122.357 92.7831 122.18C92.6946 121.997 92.5097 121.833 92.2284 121.688C91.9524 121.536 91.5357 121.406 90.9784 121.297C90.5097 121.198 90.0852 121.081 89.705 120.945C89.33 120.81 89.0097 120.646 88.7441 120.453C88.4836 120.26 88.2831 120.034 88.1425 119.773C88.0019 119.513 87.9316 119.208 87.9316 118.859C87.9316 118.526 88.0045 118.211 88.1503 117.914C88.3014 117.617 88.5123 117.354 88.7831 117.125C89.0592 116.896 89.3899 116.716 89.7753 116.586C90.1607 116.456 90.5904 116.391 91.0644 116.391C91.7415 116.391 92.3196 116.51 92.7988 116.75C93.2779 116.99 93.6451 117.31 93.9003 117.711C94.1555 118.107 94.2831 118.547 94.2831 119.031H92.8378C92.8378 118.797 92.7675 118.57 92.6269 118.352C92.4915 118.128 92.2909 117.943 92.0253 117.797C91.7649 117.651 91.4446 117.578 91.0644 117.578C90.6633 117.578 90.3378 117.641 90.0878 117.766C89.843 117.885 89.6633 118.039 89.5488 118.227C89.4394 118.414 89.3847 118.612 89.3847 118.82C89.3847 118.977 89.4107 119.117 89.4628 119.242C89.5201 119.362 89.6191 119.474 89.7597 119.578C89.9003 119.677 90.0982 119.771 90.3534 119.859C90.6086 119.948 90.9342 120.036 91.33 120.125C92.0227 120.281 92.593 120.469 93.0409 120.688C93.4889 120.906 93.8222 121.174 94.0409 121.492C94.2597 121.81 94.3691 122.195 94.3691 122.648C94.3691 123.018 94.2909 123.357 94.1347 123.664C93.9836 123.971 93.7623 124.237 93.4706 124.461C93.1842 124.68 92.8404 124.852 92.4394 124.977C92.0435 125.096 91.5982 125.156 91.1034 125.156C90.3586 125.156 89.7284 125.023 89.2128 124.758C88.6972 124.492 88.3066 124.148 88.0409 123.727C87.7753 123.305 87.6425 122.859 87.6425 122.391H89.0956C89.1165 122.786 89.231 123.102 89.4394 123.336C89.6477 123.565 89.9029 123.729 90.205 123.828C90.5071 123.922 90.8066 123.969 91.1034 123.969C91.4993 123.969 91.83 123.917 92.0956 123.812C92.3665 123.708 92.5722 123.565 92.7128 123.383C92.8534 123.201 92.9238 122.992 92.9238 122.758Z" fill="#666666"/>
<defs>
<linearGradient id="paint0_linear_2038_656" x1="61.942" y1="41.1938" x2="79.119" y2="31.1008" gradientUnits="userSpaceOnUse">
<stop stop-color="#A726C1"/>
<stop offset="0.88" stop-color="#803BDF"/>
<stop offset="1" stop-color="#7B3FE4"/>
</linearGradient>
</defs>
</svg>
