<svg width="142" height="154" viewBox="0 0 142 154" fill="none" xmlns="http://www.w3.org/2000/svg">
<rect width="142" height="154" rx="16" fill="white"/>
<g clip-path="url(#clip0_2038_661)">
<path d="M71 24C67.8174 24 64.7652 25.2643 62.5147 27.5147C60.2643 29.7652 59 32.8174 59 36C59 39.1826 60.2643 42.2348 62.5147 44.4853C64.7652 46.7357 67.8174 48 71 48C74.1826 48 77.2348 46.7357 79.4853 44.4853C81.7357 42.2348 83 39.1826 83 36C83 32.8174 81.7357 29.7652 79.4853 27.5147C77.2348 25.2643 74.1826 24 71 24ZM68.61 32.705C69.072 32.705 69.4867 32.7833 69.854 32.94C70.22 33.09 70.5077 33.3177 70.717 33.623C70.9277 33.923 71.033 34.283 71.033 34.703C71.033 34.8297 71.018 34.9893 70.988 35.182C70.9007 35.7054 70.7926 36.2252 70.664 36.74C70.454 37.5627 70.0907 38.178 69.574 38.586C69.058 38.988 68.3673 39.1893 67.502 39.19C66.7873 39.19 66.202 39.022 65.746 38.686C65.296 38.3433 65.0707 37.8567 65.07 37.226C65.07 37.0947 65.085 36.9327 65.115 36.74C65.193 36.308 65.3043 35.7887 65.449 35.182C65.857 33.5307 66.9113 32.705 68.61 32.705ZM72.779 32.795H75.176C75.8427 32.795 76.377 32.933 76.779 33.209C77.1877 33.485 77.3917 33.884 77.391 34.406C77.3903 34.556 77.372 34.7127 77.336 34.876C77.1867 35.566 76.884 36.076 76.428 36.406C75.9773 36.7367 75.3587 36.902 74.572 36.902H73.355L72.941 38.875C72.9293 38.9397 72.8936 38.9976 72.841 39.037C72.7933 39.077 72.7332 39.0992 72.671 39.1H71.447C71.3803 39.1 71.329 39.079 71.293 39.037C71.2634 38.9885 71.2538 38.9305 71.266 38.875L72.51 33.02C72.5209 32.9558 72.5555 32.8979 72.607 32.858C72.6556 32.8183 72.7162 32.7961 72.779 32.795ZM68.492 34.002C68.1567 34.002 67.869 34.101 67.629 34.299C67.395 34.4977 67.227 34.801 67.125 35.209C67.017 35.611 66.909 36.1033 66.801 36.686C66.7766 36.8109 66.7643 36.9378 66.764 37.065C66.764 37.617 67.0523 37.893 67.629 37.893C67.965 37.893 68.25 37.794 68.484 37.596C68.724 37.398 68.8953 37.0947 68.998 36.686C69.1353 36.1213 69.24 35.629 69.312 35.209C69.3373 35.0809 69.3501 34.9506 69.35 34.82C69.35 34.274 69.064 34.0013 68.492 34.002ZM73.942 34.047L73.6 35.658H74.635C74.8877 35.658 75.107 35.589 75.293 35.451C75.4886 35.3072 75.6231 35.0952 75.67 34.857C75.688 34.7557 75.697 34.6657 75.697 34.587C75.697 34.4137 75.6463 34.2817 75.545 34.191C75.443 34.095 75.2683 34.047 75.021 34.047H73.942Z" fill="#FE0420"/>
</g>
<path d="M52.2716 69.8438V87H50.1036V72.5508L45.7325 74.1445V72.1875L51.9317 69.8438H52.2716ZM60.2764 74.3203V87H58.0967V74.3203H60.2764ZM57.9327 70.957C57.9327 70.6055 58.0381 70.3086 58.2491 70.0664C58.4678 69.8242 58.7881 69.7031 59.21 69.7031C59.6241 69.7031 59.9405 69.8242 60.1592 70.0664C60.3858 70.3086 60.4991 70.6055 60.4991 70.957C60.4991 71.293 60.3858 71.582 60.1592 71.8242C59.9405 72.0586 59.6241 72.1758 59.21 72.1758C58.7881 72.1758 58.4678 72.0586 58.2491 71.8242C58.0381 71.582 57.9327 71.293 57.9327 70.957ZM64.9648 77.0273V87H62.7969V74.3203H64.8477L64.9648 77.0273ZM64.4492 80.1797L63.5469 80.1445C63.5547 79.2773 63.6836 78.4766 63.9336 77.7422C64.1836 77 64.5352 76.3555 64.9883 75.8086C65.4414 75.2617 65.9805 74.8398 66.6055 74.543C67.2383 74.2383 67.9375 74.0859 68.7031 74.0859C69.3281 74.0859 69.8906 74.1719 70.3906 74.3438C70.8906 74.5078 71.3164 74.7734 71.668 75.1406C72.0273 75.5078 72.3008 75.9844 72.4883 76.5703C72.6758 77.1484 72.7695 77.8555 72.7695 78.6914V87H70.5898V78.668C70.5898 78.0039 70.4922 77.4727 70.2969 77.0742C70.1016 76.668 69.8164 76.375 69.4414 76.1953C69.0664 76.0078 68.6055 75.9141 68.0586 75.9141C67.5195 75.9141 67.0273 76.0273 66.582 76.2539C66.1445 76.4805 65.7656 76.793 65.4453 77.1914C65.1328 77.5898 64.8867 78.0469 64.707 78.5625C64.5352 79.0703 64.4492 79.6094 64.4492 80.1797ZM80.1767 85.4531C80.6923 85.4531 81.1689 85.3477 81.6064 85.1367C82.0439 84.9258 82.4033 84.6367 82.6845 84.2695C82.9658 83.8945 83.1259 83.4688 83.165 82.9922H85.2275C85.1884 83.7422 84.9345 84.4414 84.4658 85.0898C84.0048 85.7305 83.3994 86.25 82.6494 86.6484C81.8994 87.0391 81.0752 87.2344 80.1767 87.2344C79.2236 87.2344 78.3916 87.0664 77.6806 86.7305C76.9775 86.3945 76.3916 85.9336 75.9228 85.3477C75.4619 84.7617 75.1142 84.0898 74.8798 83.332C74.6533 82.5664 74.54 81.7578 74.54 80.9062V80.4141C74.54 79.5625 74.6533 78.7578 74.8798 78C75.1142 77.2344 75.4619 76.5586 75.9228 75.9727C76.3916 75.3867 76.9775 74.9258 77.6806 74.5898C78.3916 74.2539 79.2236 74.0859 80.1767 74.0859C81.1689 74.0859 82.0361 74.2891 82.7783 74.6953C83.5205 75.0938 84.1025 75.6406 84.5244 76.3359C84.9541 77.0234 85.1884 77.8047 85.2275 78.6797H83.165C83.1259 78.1562 82.9775 77.6836 82.7197 77.2617C82.4697 76.8398 82.1259 76.5039 81.6884 76.2539C81.2588 75.9961 80.7548 75.8672 80.1767 75.8672C79.5127 75.8672 78.9541 76 78.5009 76.2656C78.0556 76.5234 77.7002 76.875 77.4345 77.3203C77.1767 77.7578 76.9892 78.2461 76.872 78.7852C76.7627 79.3164 76.708 79.8594 76.708 80.4141V80.9062C76.708 81.4609 76.7627 82.0078 76.872 82.5469C76.9814 83.0859 77.165 83.5742 77.4228 84.0117C77.6884 84.4492 78.0439 84.8008 78.4892 85.0664C78.9423 85.3242 79.5048 85.4531 80.1767 85.4531ZM88.873 69V87H86.705V69H88.873ZM88.3573 80.1797L87.455 80.1445C87.4628 79.2773 87.5917 78.4766 87.8417 77.7422C88.0917 77 88.4433 76.3555 88.8964 75.8086C89.3495 75.2617 89.8886 74.8398 90.5136 74.543C91.1464 74.2383 91.8456 74.0859 92.6113 74.0859C93.2363 74.0859 93.7988 74.1719 94.2988 74.3438C94.7988 74.5078 95.2245 74.7734 95.5761 75.1406C95.9355 75.5078 96.2089 75.9844 96.3964 76.5703C96.5839 77.1484 96.6777 77.8555 96.6777 78.6914V87H94.498V78.668C94.498 78.0039 94.4003 77.4727 94.205 77.0742C94.0097 76.668 93.7245 76.375 93.3495 76.1953C92.9745 76.0078 92.5136 75.9141 91.9667 75.9141C91.4277 75.9141 90.9355 76.0273 90.4902 76.2539C90.0527 76.4805 89.6738 76.793 89.3534 77.1914C89.0409 77.5898 88.7948 78.0469 88.6152 78.5625C88.4433 79.0703 88.3573 79.6094 88.3573 80.1797Z" fill="#030406"/>
<path d="M53.3969 123.789H53.5453C54.3786 123.789 55.0557 123.672 55.5766 123.438C56.0974 123.203 56.4984 122.888 56.7797 122.492C57.0609 122.096 57.2536 121.651 57.3578 121.156C57.462 120.656 57.5141 120.143 57.5141 119.617V117.875C57.5141 117.359 57.4542 116.901 57.3344 116.5C57.2198 116.099 57.0583 115.763 56.85 115.492C56.6469 115.221 56.4151 115.016 56.1547 114.875C55.8943 114.734 55.6182 114.664 55.3266 114.664C54.9932 114.664 54.6938 114.732 54.4281 114.867C54.1677 114.997 53.9464 115.182 53.7641 115.422C53.587 115.661 53.4516 115.943 53.3578 116.266C53.2641 116.589 53.2172 116.94 53.2172 117.32C53.2172 117.659 53.2589 117.987 53.3422 118.305C53.4255 118.622 53.5531 118.909 53.725 119.164C53.8969 119.419 54.1104 119.622 54.3656 119.773C54.626 119.919 54.9307 119.992 55.2797 119.992C55.6026 119.992 55.9047 119.93 56.1859 119.805C56.4724 119.674 56.725 119.5 56.9438 119.281C57.1677 119.057 57.3448 118.805 57.475 118.523C57.6104 118.242 57.6885 117.948 57.7094 117.641H58.3969C58.3969 118.073 58.3109 118.5 58.1391 118.922C57.9724 119.339 57.738 119.719 57.4359 120.062C57.1339 120.406 56.7797 120.682 56.3734 120.891C55.9672 121.094 55.5245 121.195 55.0453 121.195C54.4828 121.195 53.9958 121.086 53.5844 120.867C53.1729 120.648 52.8344 120.357 52.5688 119.992C52.3083 119.628 52.113 119.221 51.9828 118.773C51.8578 118.32 51.7953 117.862 51.7953 117.398C51.7953 116.857 51.8708 116.349 52.0219 115.875C52.1729 115.401 52.3969 114.984 52.6938 114.625C52.9906 114.26 53.3578 113.977 53.7953 113.773C54.238 113.57 54.7484 113.469 55.3266 113.469C55.9776 113.469 56.5323 113.599 56.9906 113.859C57.449 114.12 57.8214 114.469 58.1078 114.906C58.3995 115.344 58.613 115.836 58.7484 116.383C58.8839 116.93 58.9516 117.492 58.9516 118.07V118.594C58.9516 119.182 58.9125 119.781 58.8344 120.391C58.7615 120.995 58.6182 121.573 58.4047 122.125C58.1964 122.677 57.8917 123.172 57.4906 123.609C57.0896 124.042 56.5661 124.385 55.9203 124.641C55.2797 124.891 54.488 125.016 53.5453 125.016H53.3969V123.789ZM63.8434 116.547H65.2966V126.008C65.2966 126.523 65.2132 126.961 65.0466 127.32C64.8851 127.68 64.6403 127.951 64.3122 128.133C63.9893 128.32 63.5804 128.414 63.0856 128.414C62.9554 128.414 62.8044 128.401 62.6325 128.375C62.4554 128.349 62.307 128.318 62.1872 128.281L62.195 127.117C62.294 127.138 62.4059 127.154 62.5309 127.164C62.6559 127.18 62.7653 127.188 62.8591 127.188C63.0726 127.188 63.2523 127.148 63.3981 127.07C63.544 126.992 63.6533 126.867 63.7263 126.695C63.8044 126.523 63.8434 126.294 63.8434 126.008V116.547ZM63.695 114.305C63.695 114.07 63.7679 113.872 63.9138 113.711C64.0596 113.549 64.2705 113.469 64.5466 113.469C64.8278 113.469 65.0414 113.549 65.1872 113.711C65.333 113.872 65.4059 114.07 65.4059 114.305C65.4059 114.529 65.333 114.721 65.1872 114.883C65.0414 115.039 64.8278 115.117 64.5466 115.117C64.2705 115.117 64.0596 115.039 63.9138 114.883C63.7679 114.721 63.695 114.529 63.695 114.305ZM66.6097 120.867V120.688C66.6097 120.078 66.6982 119.513 66.8753 118.992C67.0524 118.466 67.3076 118.01 67.6409 117.625C67.9743 117.234 68.3779 116.932 68.8519 116.719C69.3258 116.5 69.8571 116.391 70.4456 116.391C71.0394 116.391 71.5732 116.5 72.0472 116.719C72.5264 116.932 72.9326 117.234 73.2659 117.625C73.6045 118.01 73.8623 118.466 74.0394 118.992C74.2165 119.513 74.305 120.078 74.305 120.688V120.867C74.305 121.477 74.2165 122.042 74.0394 122.562C73.8623 123.083 73.6045 123.539 73.2659 123.93C72.9326 124.315 72.529 124.617 72.055 124.836C71.5863 125.049 71.055 125.156 70.4613 125.156C69.8675 125.156 69.3336 125.049 68.8597 124.836C68.3857 124.617 67.9795 124.315 67.6409 123.93C67.3076 123.539 67.0524 123.083 66.8753 122.562C66.6982 122.042 66.6097 121.477 66.6097 120.867ZM68.055 120.688V120.867C68.055 121.289 68.1045 121.688 68.2034 122.062C68.3024 122.432 68.4508 122.76 68.6488 123.047C68.8519 123.333 69.1045 123.56 69.4066 123.727C69.7086 123.888 70.0602 123.969 70.4613 123.969C70.8571 123.969 71.2034 123.888 71.5003 123.727C71.8024 123.56 72.0524 123.333 72.2503 123.047C72.4482 122.76 72.5967 122.432 72.6956 122.062C72.7998 121.688 72.8519 121.289 72.8519 120.867V120.688C72.8519 120.271 72.7998 119.878 72.6956 119.508C72.5967 119.133 72.4456 118.802 72.2425 118.516C72.0446 118.224 71.7946 117.995 71.4925 117.828C71.1956 117.661 70.8467 117.578 70.4456 117.578C70.0498 117.578 69.7008 117.661 69.3988 117.828C69.1019 117.995 68.8519 118.224 68.6488 118.516C68.4508 118.802 68.3024 119.133 68.2034 119.508C68.1045 119.878 68.055 120.271 68.055 120.688ZM75.4697 113H76.9228V123.359L76.7978 125H75.4697V113ZM82.6338 120.703V120.867C82.6338 121.482 82.5608 122.052 82.415 122.578C82.2692 123.099 82.0556 123.552 81.7744 123.938C81.4931 124.323 81.1494 124.622 80.7431 124.836C80.3369 125.049 79.8707 125.156 79.3447 125.156C78.8082 125.156 78.3369 125.065 77.9306 124.883C77.5296 124.695 77.191 124.427 76.915 124.078C76.639 123.729 76.4176 123.307 76.2509 122.812C76.0895 122.318 75.9775 121.76 75.915 121.141V120.422C75.9775 119.797 76.0895 119.237 76.2509 118.742C76.4176 118.247 76.639 117.826 76.915 117.477C77.191 117.122 77.5296 116.854 77.9306 116.672C78.3317 116.484 78.7978 116.391 79.3291 116.391C79.8603 116.391 80.3317 116.495 80.7431 116.703C81.1546 116.906 81.4983 117.198 81.7744 117.578C82.0556 117.958 82.2692 118.414 82.415 118.945C82.5608 119.471 82.6338 120.057 82.6338 120.703ZM81.1806 120.867V120.703C81.1806 120.281 81.1416 119.885 81.0634 119.516C80.9853 119.141 80.8603 118.812 80.6884 118.531C80.5166 118.245 80.29 118.021 80.0088 117.859C79.7275 117.693 79.3811 117.609 78.9697 117.609C78.6051 117.609 78.2874 117.672 78.0166 117.797C77.7509 117.922 77.5244 118.091 77.3369 118.305C77.1494 118.513 76.9957 118.753 76.8759 119.023C76.7614 119.289 76.6754 119.565 76.6181 119.852V121.734C76.7015 122.099 76.8369 122.451 77.0244 122.789C77.2171 123.122 77.4723 123.396 77.79 123.609C78.1129 123.823 78.5114 123.93 78.9853 123.93C79.3759 123.93 79.7093 123.852 79.9853 123.695C80.2666 123.534 80.4931 123.312 80.665 123.031C80.8421 122.75 80.9723 122.424 81.0556 122.055C81.139 121.685 81.1806 121.289 81.1806 120.867ZM88.7437 122.758C88.7437 122.549 88.6969 122.357 88.6031 122.18C88.5146 121.997 88.3297 121.833 88.0484 121.688C87.7724 121.536 87.3557 121.406 86.7984 121.297C86.3297 121.198 85.9052 121.081 85.525 120.945C85.15 120.81 84.8297 120.646 84.5641 120.453C84.3036 120.26 84.1031 120.034 83.9625 119.773C83.8219 119.513 83.7516 119.208 83.7516 118.859C83.7516 118.526 83.8245 118.211 83.9703 117.914C84.1214 117.617 84.3323 117.354 84.6031 117.125C84.8792 116.896 85.2099 116.716 85.5953 116.586C85.9807 116.456 86.4104 116.391 86.8844 116.391C87.5615 116.391 88.1396 116.51 88.6187 116.75C89.0979 116.99 89.4651 117.31 89.7203 117.711C89.9755 118.107 90.1031 118.547 90.1031 119.031H88.6578C88.6578 118.797 88.5875 118.57 88.4469 118.352C88.3115 118.128 88.1109 117.943 87.8453 117.797C87.5849 117.651 87.2646 117.578 86.8844 117.578C86.4833 117.578 86.1578 117.641 85.9078 117.766C85.663 117.885 85.4833 118.039 85.3687 118.227C85.2594 118.414 85.2047 118.612 85.2047 118.82C85.2047 118.977 85.2307 119.117 85.2828 119.242C85.3401 119.362 85.4391 119.474 85.5797 119.578C85.7203 119.677 85.9182 119.771 86.1734 119.859C86.4286 119.948 86.7542 120.036 87.15 120.125C87.8427 120.281 88.413 120.469 88.8609 120.688C89.3089 120.906 89.6422 121.174 89.8609 121.492C90.0797 121.81 90.1891 122.195 90.1891 122.648C90.1891 123.018 90.1109 123.357 89.9547 123.664C89.8036 123.971 89.5823 124.237 89.2906 124.461C89.0042 124.68 88.6604 124.852 88.2594 124.977C87.8635 125.096 87.4182 125.156 86.9234 125.156C86.1786 125.156 85.5484 125.023 85.0328 124.758C84.5172 124.492 84.1266 124.148 83.8609 123.727C83.5953 123.305 83.4625 122.859 83.4625 122.391H84.9156C84.9365 122.786 85.051 123.102 85.2594 123.336C85.4677 123.565 85.7229 123.729 86.025 123.828C86.3271 123.922 86.6266 123.969 86.9234 123.969C87.3193 123.969 87.65 123.917 87.9156 123.812C88.1865 123.708 88.3922 123.565 88.5328 123.383C88.6734 123.201 88.7437 122.992 88.7437 122.758Z" fill="#666666"/>
<defs>
<clipPath id="clip0_2038_661">
<rect width="24" height="24" fill="white" transform="translate(59 24)"/>
</clipPath>
</defs>
</svg>
