<svg width="131" height="30" viewBox="0 0 131 30" fill="none" xmlns="http://www.w3.org/2000/svg">
<g clip-path="url(#clip0_2030_195)">
<path d="M12 27C18.6274 27 24 21.6274 24 15C24 8.37258 18.6274 3 12 3C5.37258 3 0 8.37258 0 15C0 21.6274 5.37258 27 12 27Z" fill="#2A5ADA"/>
<path d="M12 7.5L10.6508 8.29125L6.975 10.4587L5.625 11.25V18.75L6.97425 19.5413L10.6845 21.7087L12.0338 22.5L13.383 21.7087L17.0258 19.5413L18.375 18.75V11.25L17.0258 10.4587L13.3492 8.29125L12 7.5ZM8.3235 17.1675V12.8325L12 10.665L15.6765 12.8325V17.1675L12 19.335L8.3235 17.1675Z" fill="white"/>
</g>
<path d="M52.5666 17.5742H54.8166C54.6994 18.6523 54.3908 19.6172 53.8908 20.4688C53.3908 21.3203 52.6838 21.9961 51.7697 22.4961C50.8556 22.9883 49.715 23.2344 48.3478 23.2344C47.3478 23.2344 46.4377 23.0469 45.6173 22.6719C44.8048 22.2969 44.1056 21.7656 43.5197 21.0781C42.9338 20.3828 42.4806 19.5508 42.1603 18.582C41.8478 17.6055 41.6916 16.5195 41.6916 15.3242V13.625C41.6916 12.4297 41.8478 11.3477 42.1603 10.3789C42.4806 9.40234 42.9377 8.56641 43.5314 7.87109C44.133 7.17578 44.8556 6.64062 45.6994 6.26562C46.5431 5.89062 47.4923 5.70312 48.547 5.70312C49.8361 5.70312 50.9259 5.94531 51.8166 6.42969C52.7072 6.91406 53.3986 7.58594 53.8908 8.44531C54.3908 9.29688 54.6994 10.2852 54.8166 11.4102H52.5666C52.4572 10.6133 52.2541 9.92969 51.9572 9.35938C51.6603 8.78125 51.2384 8.33594 50.6916 8.02344C50.1447 7.71094 49.4298 7.55469 48.547 7.55469C47.7892 7.55469 47.1213 7.69922 46.5431 7.98828C45.9728 8.27734 45.4923 8.6875 45.1017 9.21875C44.7189 9.75 44.4298 10.3867 44.2345 11.1289C44.0392 11.8711 43.9416 12.6953 43.9416 13.6016V15.3242C43.9416 16.1602 44.0275 16.9453 44.1994 17.6797C44.3791 18.4141 44.6486 19.0586 45.008 19.6133C45.3673 20.168 45.8244 20.6055 46.3791 20.9258C46.9338 21.2383 47.59 21.3945 48.3478 21.3945C49.3088 21.3945 50.0744 21.2422 50.6447 20.9375C51.215 20.6328 51.6447 20.1953 51.9338 19.625C52.2306 19.0547 52.4416 18.3711 52.5666 17.5742ZM58.7784 5V23H56.6105V5H58.7784ZM58.2628 16.1797L57.3605 16.1445C57.3683 15.2773 57.4972 14.4766 57.7472 13.7422C57.9972 13 58.3488 12.3555 58.8019 11.8086C59.255 11.2617 59.7941 10.8398 60.4191 10.543C61.0519 10.2383 61.7511 10.0859 62.5167 10.0859C63.1417 10.0859 63.7042 10.1719 64.2042 10.3438C64.7042 10.5078 65.13 10.7734 65.4816 11.1406C65.8409 11.5078 66.1144 11.9844 66.3019 12.5703C66.4894 13.1484 66.5831 13.8555 66.5831 14.6914V23H64.4034V14.668C64.4034 14.0039 64.3058 13.4727 64.1105 13.0742C63.9152 12.668 63.63 12.375 63.255 12.1953C62.88 12.0078 62.4191 11.9141 61.8722 11.9141C61.3331 11.9141 60.8409 12.0273 60.3956 12.2539C59.9581 12.4805 59.5792 12.793 59.2589 13.1914C58.9464 13.5898 58.7003 14.0469 58.5206 14.5625C58.3488 15.0703 58.2628 15.6094 58.2628 16.1797ZM76.3458 20.832V14.3047C76.3458 13.8047 76.2442 13.3711 76.0411 13.0039C75.8458 12.6289 75.5489 12.3398 75.1505 12.1367C74.752 11.9336 74.2598 11.832 73.6739 11.832C73.127 11.832 72.6466 11.9258 72.2325 12.1133C71.8263 12.3008 71.5059 12.5469 71.2716 12.8516C71.045 13.1562 70.9317 13.4844 70.9317 13.8359H68.7638C68.7638 13.3828 68.8809 12.9336 69.1153 12.4883C69.3497 12.043 69.6856 11.6406 70.1231 11.2812C70.5684 10.9141 71.0997 10.625 71.7169 10.4141C72.3419 10.1953 73.0372 10.0859 73.8028 10.0859C74.7247 10.0859 75.5372 10.2422 76.2403 10.5547C76.9513 10.8672 77.5059 11.3398 77.9044 11.9727C78.3106 12.5977 78.5138 13.3828 78.5138 14.3281V20.2344C78.5138 20.6562 78.5489 21.1055 78.6192 21.582C78.6973 22.0586 78.8106 22.4688 78.9591 22.8125V23H76.6973C76.588 22.75 76.502 22.418 76.4395 22.0039C76.377 21.582 76.3458 21.1914 76.3458 20.832ZM76.7208 15.3125L76.7442 16.8359H74.5528C73.9356 16.8359 73.3848 16.8867 72.9005 16.9883C72.4161 17.082 72.0098 17.2266 71.6817 17.4219C71.3536 17.6172 71.1036 17.8633 70.9317 18.1602C70.7598 18.4492 70.6739 18.7891 70.6739 19.1797C70.6739 19.5781 70.7638 19.9414 70.9434 20.2695C71.1231 20.5977 71.3927 20.8594 71.752 21.0547C72.1192 21.2422 72.5684 21.3359 73.0997 21.3359C73.7638 21.3359 74.3497 21.1953 74.8575 20.9141C75.3653 20.6328 75.7677 20.2891 76.0645 19.8828C76.3692 19.4766 76.5333 19.082 76.5567 18.6992L77.4825 19.7422C77.4278 20.0703 77.2794 20.4336 77.0372 20.832C76.795 21.2305 76.4708 21.6133 76.0645 21.9805C75.6661 22.3398 75.1895 22.6406 74.6348 22.8828C74.088 23.1172 73.4708 23.2344 72.7833 23.2344C71.9239 23.2344 71.17 23.0664 70.5216 22.7305C69.8809 22.3945 69.3809 21.9453 69.0216 21.3828C68.67 20.8125 68.4942 20.1758 68.4942 19.4727C68.4942 18.793 68.627 18.1953 68.8927 17.6797C69.1583 17.1562 69.5411 16.7227 70.0411 16.3789C70.5411 16.0273 71.1427 15.7617 71.8458 15.582C72.5489 15.4023 73.3341 15.3125 74.2013 15.3125H76.7208ZM83.3194 10.3203V23H81.1397V10.3203H83.3194ZM80.9756 6.95703C80.9756 6.60547 81.0811 6.30859 81.292 6.06641C81.5108 5.82422 81.8311 5.70312 82.253 5.70312C82.667 5.70312 82.9834 5.82422 83.2022 6.06641C83.4287 6.30859 83.542 6.60547 83.542 6.95703C83.542 7.29297 83.4287 7.58203 83.2022 7.82422C82.9834 8.05859 82.667 8.17578 82.253 8.17578C81.8311 8.17578 81.5108 8.05859 81.292 7.82422C81.0811 7.58203 80.9756 7.29297 80.9756 6.95703ZM88.0078 13.0273V23H85.8398V10.3203H87.8906L88.0078 13.0273ZM87.4922 16.1797L86.5898 16.1445C86.5977 15.2773 86.7266 14.4766 86.9766 13.7422C87.2266 13 87.5781 12.3555 88.0312 11.8086C88.4844 11.2617 89.0234 10.8398 89.6484 10.543C90.2812 10.2383 90.9805 10.0859 91.7461 10.0859C92.3711 10.0859 92.9336 10.1719 93.4336 10.3438C93.9336 10.5078 94.3594 10.7734 94.7109 11.1406C95.0703 11.5078 95.3438 11.9844 95.5312 12.5703C95.7188 13.1484 95.8125 13.8555 95.8125 14.6914V23H93.6328V14.668C93.6328 14.0039 93.5352 13.4727 93.3398 13.0742C93.1445 12.668 92.8594 12.375 92.4844 12.1953C92.1094 12.0078 91.6484 11.9141 91.1016 11.9141C90.5625 11.9141 90.0703 12.0273 89.625 12.2539C89.1875 12.4805 88.8086 12.793 88.4883 13.1914C88.1758 13.5898 87.9297 14.0469 87.75 14.5625C87.5781 15.0703 87.4922 15.6094 87.4922 16.1797ZM100.501 5V23H98.3213V5H100.501ZM105.377 10.3203V23H103.197V10.3203H105.377ZM103.033 6.95703C103.033 6.60547 103.139 6.30859 103.35 6.06641C103.568 5.82422 103.889 5.70312 104.31 5.70312C104.725 5.70312 105.041 5.82422 105.26 6.06641C105.486 6.30859 105.6 6.60547 105.6 6.95703C105.6 7.29297 105.486 7.58203 105.26 7.82422C105.041 8.05859 104.725 8.17578 104.31 8.17578C103.889 8.17578 103.568 8.05859 103.35 7.82422C103.139 7.58203 103.033 7.29297 103.033 6.95703ZM110.065 13.0273V23H107.897V10.3203H109.948L110.065 13.0273ZM109.55 16.1797L108.647 16.1445C108.655 15.2773 108.784 14.4766 109.034 13.7422C109.284 13 109.636 12.3555 110.089 11.8086C110.542 11.2617 111.081 10.8398 111.706 10.543C112.339 10.2383 113.038 10.0859 113.804 10.0859C114.429 10.0859 114.991 10.1719 115.491 10.3438C115.991 10.5078 116.417 10.7734 116.768 11.1406C117.128 11.5078 117.401 11.9844 117.589 12.5703C117.776 13.1484 117.87 13.8555 117.87 14.6914V23H115.69V14.668C115.69 14.0039 115.593 13.4727 115.397 13.0742C115.202 12.668 114.917 12.375 114.542 12.1953C114.167 12.0078 113.706 11.9141 113.159 11.9141C112.62 11.9141 112.128 12.0273 111.682 12.2539C111.245 12.4805 110.866 12.793 110.546 13.1914C110.233 13.5898 109.987 14.0469 109.807 14.5625C109.636 15.0703 109.55 15.6094 109.55 16.1797ZM122.383 5V23H120.203V5H122.383ZM130.129 10.3203L124.598 16.2383L121.504 19.4492L121.328 17.1406L123.543 14.4922L127.48 10.3203H130.129ZM128.148 23L123.625 16.9531L124.75 15.0195L130.703 23H128.148Z" fill="#666666"/>
<defs>
<clipPath id="clip0_2030_195">
<rect width="24" height="24" fill="white" transform="translate(0 3)"/>
</clipPath>
</defs>
</svg>
