<svg width="134" height="30" viewBox="0 0 134 30" fill="none" xmlns="http://www.w3.org/2000/svg">
<path d="M3 15C3 13.8181 3.23279 12.6478 3.68508 11.5558C4.13738 10.4639 4.80031 9.47177 5.63604 8.63604C6.47177 7.80031 7.46392 7.13738 8.55585 6.68508C9.64778 6.23279 10.8181 6 12 6C13.1819 6 14.3522 6.23279 15.4442 6.68508C16.5361 7.13738 17.5282 7.80031 18.364 8.63604C19.1997 9.47177 19.8626 10.4639 20.3149 11.5558C20.7672 12.6478 21 13.8181 21 15C21 17.3869 20.0518 19.6761 18.364 21.364C16.6761 23.0518 14.3869 24 12 24C9.61305 24 7.32387 23.0518 5.63604 21.364C3.94821 19.6761 3 17.3869 3 15Z" fill="#0E5BFF"/>
<path fill-rule="evenodd" clip-rule="evenodd" d="M12 21.375C13.6908 21.375 15.3123 20.7033 16.5078 19.5078C17.7033 18.3123 18.375 16.6908 18.375 15C18.375 13.3092 17.7033 11.6877 16.5078 10.4922C15.3123 9.29665 13.6908 8.625 12 8.625C10.3092 8.625 8.68774 9.29665 7.49219 10.4922C6.29665 11.6877 5.625 13.3092 5.625 15C5.625 16.6908 6.29665 18.3123 7.49219 19.5078C8.68774 20.7033 10.3092 21.375 12 21.375ZM11.25 13.125C10.629 13.125 10.125 13.629 10.125 14.25V15.75C10.125 16.371 10.629 16.875 11.25 16.875H12.75C13.371 16.875 13.875 16.371 13.875 15.75V14.25C13.875 13.629 13.371 13.125 12.75 13.125H11.25Z" fill="white"/>
<path d="M52.6022 17.5742H54.8522C54.735 18.6523 54.4264 19.6172 53.9264 20.4688C53.4264 21.3203 52.7194 21.9961 51.8053 22.4961C50.8913 22.9883 49.7506 23.2344 48.3834 23.2344C47.3834 23.2344 46.4733 23.0469 45.653 22.6719C44.8405 22.2969 44.1413 21.7656 43.5553 21.0781C42.9694 20.3828 42.5163 19.5508 42.1959 18.582C41.8834 17.6055 41.7272 16.5195 41.7272 15.3242V13.625C41.7272 12.4297 41.8834 11.3477 42.1959 10.3789C42.5163 9.40234 42.9733 8.56641 43.567 7.87109C44.1686 7.17578 44.8913 6.64062 45.735 6.26562C46.5788 5.89062 47.528 5.70312 48.5827 5.70312C49.8717 5.70312 50.9616 5.94531 51.8522 6.42969C52.7428 6.91406 53.4342 7.58594 53.9264 8.44531C54.4264 9.29688 54.735 10.2852 54.8522 11.4102H52.6022C52.4928 10.6133 52.2897 9.92969 51.9928 9.35938C51.6959 8.78125 51.2741 8.33594 50.7272 8.02344C50.1803 7.71094 49.4655 7.55469 48.5827 7.55469C47.8248 7.55469 47.1569 7.69922 46.5788 7.98828C46.0084 8.27734 45.528 8.6875 45.1373 9.21875C44.7545 9.75 44.4655 10.3867 44.2702 11.1289C44.0748 11.8711 43.9772 12.6953 43.9772 13.6016V15.3242C43.9772 16.1602 44.0631 16.9453 44.235 17.6797C44.4147 18.4141 44.6842 19.0586 45.0436 19.6133C45.403 20.168 45.86 20.6055 46.4147 20.9258C46.9694 21.2383 47.6256 21.3945 48.3834 21.3945C49.3444 21.3945 50.11 21.2422 50.6803 20.9375C51.2506 20.6328 51.6803 20.1953 51.9694 19.625C52.2663 19.0547 52.4772 18.3711 52.6022 17.5742ZM56.0719 16.8008V16.5312C56.0719 15.6172 56.2047 14.7695 56.4703 13.9883C56.7359 13.1992 57.1188 12.5156 57.6188 11.9375C58.1188 11.3516 58.7242 10.8984 59.4352 10.5781C60.1461 10.25 60.943 10.0859 61.8258 10.0859C62.7164 10.0859 63.5172 10.25 64.2281 10.5781C64.9469 10.8984 65.5563 11.3516 66.0563 11.9375C66.5641 12.5156 66.9508 13.1992 67.2164 13.9883C67.482 14.7695 67.6148 15.6172 67.6148 16.5312V16.8008C67.6148 17.7148 67.482 18.5625 67.2164 19.3438C66.9508 20.125 66.5641 20.8086 66.0563 21.3945C65.5563 21.9727 64.9508 22.4258 64.2398 22.7539C63.5367 23.0742 62.7398 23.2344 61.8492 23.2344C60.9586 23.2344 60.1578 23.0742 59.4469 22.7539C58.7359 22.4258 58.1266 21.9727 57.6188 21.3945C57.1188 20.8086 56.7359 20.125 56.4703 19.3438C56.2047 18.5625 56.0719 17.7148 56.0719 16.8008ZM58.2398 16.5312V16.8008C58.2398 17.4336 58.3141 18.0312 58.4625 18.5938C58.6109 19.1484 58.8336 19.6406 59.1305 20.0703C59.4352 20.5 59.8141 20.8398 60.2672 21.0898C60.7203 21.332 61.2477 21.4531 61.8492 21.4531C62.443 21.4531 62.9625 21.332 63.4078 21.0898C63.8609 20.8398 64.2359 20.5 64.5328 20.0703C64.8297 19.6406 65.0523 19.1484 65.2008 18.5938C65.357 18.0312 65.4352 17.4336 65.4352 16.8008V16.5312C65.4352 15.9062 65.357 15.3164 65.2008 14.7617C65.0523 14.1992 64.8258 13.7031 64.5211 13.2734C64.2242 12.8359 63.8492 12.4922 63.3961 12.2422C62.9508 11.9922 62.4273 11.8672 61.8258 11.8672C61.232 11.8672 60.7086 11.9922 60.2555 12.2422C59.8102 12.4922 59.4352 12.8359 59.1305 13.2734C58.8336 13.7031 58.6109 14.1992 58.4625 14.7617C58.3141 15.3164 58.2398 15.9062 58.2398 16.5312ZM71.7291 10.3203V23H69.5494V10.3203H71.7291ZM69.3853 6.95703C69.3853 6.60547 69.4908 6.30859 69.7017 6.06641C69.9205 5.82422 70.2408 5.70312 70.6627 5.70312C71.0767 5.70312 71.3931 5.82422 71.6119 6.06641C71.8384 6.30859 71.9517 6.60547 71.9517 6.95703C71.9517 7.29297 71.8384 7.58203 71.6119 7.82422C71.3931 8.05859 71.0767 8.17578 70.6627 8.17578C70.2408 8.17578 69.9205 8.05859 69.7017 7.82422C69.4908 7.58203 69.3853 7.29297 69.3853 6.95703ZM76.4175 13.0273V23H74.2495V10.3203H76.3003L76.4175 13.0273ZM75.9019 16.1797L74.9995 16.1445C75.0073 15.2773 75.1362 14.4766 75.3862 13.7422C75.6362 13 75.9878 12.3555 76.4409 11.8086C76.8941 11.2617 77.4331 10.8398 78.0581 10.543C78.6909 10.2383 79.3902 10.0859 80.1558 10.0859C80.7808 10.0859 81.3433 10.1719 81.8433 10.3438C82.3433 10.5078 82.7691 10.7734 83.1206 11.1406C83.48 11.5078 83.7534 11.9844 83.9409 12.5703C84.1284 13.1484 84.2222 13.8555 84.2222 14.6914V23H82.0425V14.668C82.0425 14.0039 81.9448 13.4727 81.7495 13.0742C81.5542 12.668 81.2691 12.375 80.8941 12.1953C80.5191 12.0078 80.0581 11.9141 79.5112 11.9141C78.9722 11.9141 78.48 12.0273 78.0347 12.2539C77.5972 12.4805 77.2183 12.793 76.898 13.1914C76.5855 13.5898 76.3394 14.0469 76.1597 14.5625C75.9878 15.0703 75.9019 15.6094 75.9019 16.1797ZM86.5434 5H88.7231V20.5391L88.5356 23H86.5434V5ZM97.2895 16.5547V16.8008C97.2895 17.7227 97.1802 18.5781 96.9614 19.3672C96.7427 20.1484 96.4223 20.8281 96.0005 21.4062C95.5786 21.9844 95.063 22.4336 94.4536 22.7539C93.8442 23.0742 93.145 23.2344 92.3559 23.2344C91.5513 23.2344 90.8442 23.0977 90.2348 22.8242C89.6333 22.543 89.1255 22.1406 88.7114 21.6172C88.2973 21.0938 87.9653 20.4609 87.7153 19.7188C87.4731 18.9766 87.3052 18.1406 87.2114 17.2109V16.1328C87.3052 15.1953 87.4731 14.3555 87.7153 13.6133C87.9653 12.8711 88.2973 12.2383 88.7114 11.7148C89.1255 11.1836 89.6333 10.7812 90.2348 10.5078C90.8364 10.2266 91.5356 10.0859 92.3325 10.0859C93.1294 10.0859 93.8364 10.2422 94.4536 10.5547C95.0708 10.8594 95.5864 11.2969 96.0005 11.8672C96.4223 12.4375 96.7427 13.1211 96.9614 13.918C97.1802 14.707 97.2895 15.5859 97.2895 16.5547ZM95.1098 16.8008V16.5547C95.1098 15.9219 95.0513 15.3281 94.9341 14.7734C94.8169 14.2109 94.6294 13.7188 94.3716 13.2969C94.1138 12.8672 93.7739 12.5312 93.352 12.2891C92.9302 12.0391 92.4106 11.9141 91.7934 11.9141C91.2466 11.9141 90.77 12.0078 90.3638 12.1953C89.9653 12.3828 89.6255 12.6367 89.3442 12.957C89.063 13.2695 88.8325 13.6289 88.6528 14.0352C88.4809 14.4336 88.352 14.8477 88.2661 15.2773V18.1016C88.3911 18.6484 88.5942 19.1758 88.8755 19.6836C89.1645 20.1836 89.5473 20.5938 90.0239 20.9141C90.5083 21.2344 91.1059 21.3945 91.8169 21.3945C92.4028 21.3945 92.9028 21.2773 93.3169 21.043C93.7388 20.8008 94.0786 20.4688 94.3364 20.0469C94.602 19.625 94.7973 19.1367 94.9223 18.582C95.0473 18.0273 95.1098 17.4336 95.1098 16.8008ZM106.548 20.832V14.3047C106.548 13.8047 106.447 13.3711 106.244 13.0039C106.048 12.6289 105.751 12.3398 105.353 12.1367C104.955 11.9336 104.462 11.832 103.876 11.832C103.33 11.832 102.849 11.9258 102.435 12.1133C102.029 12.3008 101.708 12.5469 101.474 12.8516C101.248 13.1562 101.134 13.4844 101.134 13.8359H98.9663C98.9663 13.3828 99.0834 12.9336 99.3178 12.4883C99.5522 12.043 99.8881 11.6406 100.326 11.2812C100.771 10.9141 101.302 10.625 101.919 10.4141C102.544 10.1953 103.24 10.0859 104.005 10.0859C104.927 10.0859 105.74 10.2422 106.443 10.5547C107.154 10.8672 107.708 11.3398 108.107 11.9727C108.513 12.5977 108.716 13.3828 108.716 14.3281V20.2344C108.716 20.6562 108.751 21.1055 108.822 21.582C108.9 22.0586 109.013 22.4688 109.162 22.8125V23H106.9C106.79 22.75 106.705 22.418 106.642 22.0039C106.58 21.582 106.548 21.1914 106.548 20.832ZM106.923 15.3125L106.947 16.8359H104.755C104.138 16.8359 103.587 16.8867 103.103 16.9883C102.619 17.082 102.212 17.2266 101.884 17.4219C101.556 17.6172 101.306 17.8633 101.134 18.1602C100.962 18.4492 100.876 18.7891 100.876 19.1797C100.876 19.5781 100.966 19.9414 101.146 20.2695C101.326 20.5977 101.595 20.8594 101.955 21.0547C102.322 21.2422 102.771 21.3359 103.302 21.3359C103.966 21.3359 104.552 21.1953 105.06 20.9141C105.568 20.6328 105.97 20.2891 106.267 19.8828C106.572 19.4766 106.736 19.082 106.759 18.6992L107.685 19.7422C107.63 20.0703 107.482 20.4336 107.24 20.832C106.998 21.2305 106.673 21.6133 106.267 21.9805C105.869 22.3398 105.392 22.6406 104.837 22.8828C104.29 23.1172 103.673 23.2344 102.986 23.2344C102.126 23.2344 101.373 23.0664 100.724 22.7305C100.083 22.3945 99.5834 21.9453 99.2241 21.3828C98.8725 20.8125 98.6967 20.1758 98.6967 19.4727C98.6967 18.793 98.8295 18.1953 99.0952 17.6797C99.3608 17.1562 99.7436 16.7227 100.244 16.3789C100.744 16.0273 101.345 15.7617 102.048 15.582C102.751 15.4023 103.537 15.3125 104.404 15.3125H106.923ZM118.549 19.6367C118.549 19.3242 118.479 19.0352 118.338 18.7695C118.205 18.4961 117.928 18.25 117.506 18.0312C117.092 17.8047 116.467 17.6094 115.631 17.4453C114.928 17.2969 114.291 17.1211 113.721 16.918C113.159 16.7148 112.678 16.4688 112.28 16.1797C111.889 15.8906 111.588 15.5508 111.377 15.1602C111.166 14.7695 111.061 14.3125 111.061 13.7891C111.061 13.2891 111.17 12.8164 111.389 12.3711C111.616 11.9258 111.932 11.5312 112.338 11.1875C112.752 10.8438 113.248 10.5742 113.827 10.3789C114.405 10.1836 115.049 10.0859 115.76 10.0859C116.776 10.0859 117.643 10.2656 118.362 10.625C119.08 10.9844 119.631 11.4648 120.014 12.0664C120.397 12.6602 120.588 13.3203 120.588 14.0469H118.42C118.42 13.6953 118.315 13.3555 118.104 13.0273C117.901 12.6914 117.6 12.4141 117.202 12.1953C116.811 11.9766 116.33 11.8672 115.76 11.8672C115.159 11.8672 114.67 11.9609 114.295 12.1484C113.928 12.3281 113.659 12.5586 113.487 12.8398C113.323 13.1211 113.241 13.418 113.241 13.7305C113.241 13.9648 113.28 14.1758 113.358 14.3633C113.444 14.543 113.592 14.7109 113.803 14.8672C114.014 15.0156 114.311 15.1562 114.694 15.2891C115.077 15.4219 115.565 15.5547 116.159 15.6875C117.198 15.9219 118.053 16.2031 118.725 16.5312C119.397 16.8594 119.897 17.2617 120.225 17.7383C120.553 18.2148 120.717 18.793 120.717 19.4727C120.717 20.0273 120.6 20.5352 120.366 20.9961C120.139 21.457 119.807 21.8555 119.37 22.1914C118.94 22.5195 118.424 22.7773 117.823 22.9648C117.229 23.1445 116.561 23.2344 115.819 23.2344C114.702 23.2344 113.756 23.0352 112.983 22.6367C112.209 22.2383 111.623 21.7227 111.225 21.0898C110.827 20.457 110.627 19.7891 110.627 19.0859H112.807C112.838 19.6797 113.01 20.1523 113.323 20.5039C113.635 20.8477 114.018 21.0938 114.471 21.2422C114.924 21.3828 115.373 21.4531 115.819 21.4531C116.412 21.4531 116.909 21.375 117.307 21.2188C117.713 21.0625 118.022 20.8477 118.233 20.5742C118.444 20.3008 118.549 19.9883 118.549 19.6367ZM127.867 23.2344C126.984 23.2344 126.183 23.0859 125.464 22.7891C124.753 22.4844 124.14 22.0586 123.624 21.5117C123.117 20.9648 122.726 20.3164 122.452 19.5664C122.179 18.8164 122.042 17.9961 122.042 17.1055V16.6133C122.042 15.582 122.195 14.6641 122.499 13.8594C122.804 13.0469 123.218 12.3594 123.742 11.7969C124.265 11.2344 124.859 10.8086 125.523 10.5195C126.187 10.2305 126.874 10.0859 127.585 10.0859C128.492 10.0859 129.273 10.2422 129.929 10.5547C130.593 10.8672 131.136 11.3047 131.558 11.8672C131.98 12.4219 132.292 13.0781 132.495 13.8359C132.699 14.5859 132.8 15.4062 132.8 16.2969V17.2695H123.331V15.5H130.632V15.3359C130.601 14.7734 130.484 14.2266 130.281 13.6953C130.085 13.1641 129.773 12.7266 129.343 12.3828C128.913 12.0391 128.327 11.8672 127.585 11.8672C127.093 11.8672 126.64 11.9727 126.226 12.1836C125.812 12.3867 125.456 12.6914 125.16 13.0977C124.863 13.5039 124.632 14 124.468 14.5859C124.304 15.1719 124.222 15.8477 124.222 16.6133V17.1055C124.222 17.707 124.304 18.2734 124.468 18.8047C124.64 19.3281 124.886 19.7891 125.206 20.1875C125.535 20.5859 125.929 20.8984 126.39 21.125C126.859 21.3516 127.39 21.4648 127.984 21.4648C128.749 21.4648 129.398 21.3086 129.929 20.9961C130.46 20.6836 130.925 20.2656 131.324 19.7422L132.636 20.7852C132.363 21.1992 132.015 21.5938 131.593 21.9688C131.171 22.3438 130.652 22.6484 130.035 22.8828C129.425 23.1172 128.702 23.2344 127.867 23.2344Z" fill="#666666"/>
</svg>
