<svg width="136" height="30" viewBox="0 0 136 30" fill="none" xmlns="http://www.w3.org/2000/svg">
<g clip-path="url(#clip0_2030_187)">
<path d="M12 27C18.6274 27 24 21.6274 24 15C24 8.37258 18.6274 3 12 3C5.37258 3 0 8.37258 0 15C0 21.6274 5.37258 27 12 27Z" fill="#627EEA"/>
<path d="M12.3735 6V12.6525L17.9963 15.165L12.3735 6Z" fill="white" fill-opacity="0.602"/>
<path d="M12.3735 6L6.75 15.165L12.3735 12.6525V6Z" fill="white"/>
<path d="M12.3735 19.4759V23.9962L18 16.2119L12.3735 19.4759Z" fill="white" fill-opacity="0.602"/>
<path d="M12.3735 23.9962V19.4752L6.75 16.2119L12.3735 23.9962Z" fill="white"/>
<path d="M12.3735 18.4296L17.9963 15.1648L12.3735 12.6538V18.4296Z" fill="white" fill-opacity="0.2"/>
<path d="M6.75 15.1648L12.3735 18.4296V12.6538L6.75 15.1648Z" fill="white" fill-opacity="0.602"/>
</g>
<path d="M53.0045 21.1602V23H43.9694V21.1602H53.0045ZM44.4264 5.9375V23H42.1647V5.9375H44.4264ZM51.8092 13.2734V15.1133H43.9694V13.2734H51.8092ZM52.8873 5.9375V7.78906H43.9694V5.9375H52.8873ZM59.8258 10.3203V11.9844H52.9703V10.3203H59.8258ZM55.2906 7.23828H57.4586V19.8594C57.4586 20.2891 57.525 20.6133 57.6578 20.832C57.7906 21.0508 57.9625 21.1953 58.1734 21.2656C58.3844 21.3359 58.6109 21.3711 58.8531 21.3711C59.0328 21.3711 59.2203 21.3555 59.4156 21.3242C59.6188 21.2852 59.7711 21.2539 59.8727 21.2305L59.8844 23C59.7125 23.0547 59.4859 23.1055 59.2047 23.1523C58.9313 23.207 58.5992 23.2344 58.2086 23.2344C57.6773 23.2344 57.1891 23.1289 56.7438 22.918C56.2984 22.707 55.943 22.3555 55.6773 21.8633C55.4195 21.3633 55.2906 20.6914 55.2906 19.8477V7.23828ZM63.5767 5V23H61.4088V5H63.5767ZM63.0611 16.1797L62.1588 16.1445C62.1666 15.2773 62.2955 14.4766 62.5455 13.7422C62.7955 13 63.147 12.3555 63.6002 11.8086C64.0533 11.2617 64.5923 10.8398 65.2173 10.543C65.8502 10.2383 66.5494 10.0859 67.315 10.0859C67.94 10.0859 68.5025 10.1719 69.0025 10.3438C69.5025 10.5078 69.9283 10.7734 70.2798 11.1406C70.6392 11.5078 70.9127 11.9844 71.1002 12.5703C71.2877 13.1484 71.3814 13.8555 71.3814 14.6914V23H69.2017V14.668C69.2017 14.0039 69.1041 13.4727 68.9088 13.0742C68.7134 12.668 68.4283 12.375 68.0533 12.1953C67.6783 12.0078 67.2173 11.9141 66.6705 11.9141C66.1314 11.9141 65.6392 12.0273 65.1939 12.2539C64.7564 12.4805 64.3775 12.793 64.0572 13.1914C63.7447 13.5898 63.4986 14.0469 63.3189 14.5625C63.147 15.0703 63.0611 15.6094 63.0611 16.1797ZM78.9292 23.2344C78.0464 23.2344 77.2456 23.0859 76.5269 22.7891C75.8159 22.4844 75.2027 22.0586 74.687 21.5117C74.1792 20.9648 73.7886 20.3164 73.5152 19.5664C73.2417 18.8164 73.105 17.9961 73.105 17.1055V16.6133C73.105 15.582 73.2573 14.6641 73.562 13.8594C73.8667 13.0469 74.2808 12.3594 74.8042 11.7969C75.3277 11.2344 75.9214 10.8086 76.5855 10.5195C77.2495 10.2305 77.937 10.0859 78.648 10.0859C79.5542 10.0859 80.3355 10.2422 80.9917 10.5547C81.6558 10.8672 82.1988 11.3047 82.6206 11.8672C83.0425 12.4219 83.355 13.0781 83.5581 13.8359C83.7613 14.5859 83.8628 15.4062 83.8628 16.2969V17.2695H74.3941V15.5H81.6948V15.3359C81.6636 14.7734 81.5464 14.2266 81.3433 13.6953C81.148 13.1641 80.8355 12.7266 80.4058 12.3828C79.9761 12.0391 79.3902 11.8672 78.648 11.8672C78.1558 11.8672 77.7027 11.9727 77.2886 12.1836C76.8745 12.3867 76.5191 12.6914 76.2222 13.0977C75.9253 13.5039 75.6948 14 75.5308 14.5859C75.3667 15.1719 75.2847 15.8477 75.2847 16.6133V17.1055C75.2847 17.707 75.3667 18.2734 75.5308 18.8047C75.7027 19.3281 75.9488 19.7891 76.2691 20.1875C76.5972 20.5859 76.9917 20.8984 77.4527 21.125C77.9214 21.3516 78.4527 21.4648 79.0464 21.4648C79.812 21.4648 80.4605 21.3086 80.9917 20.9961C81.523 20.6836 81.9878 20.2656 82.3863 19.7422L83.6988 20.7852C83.4253 21.1992 83.0777 21.5938 82.6558 21.9688C82.2339 22.3438 81.7144 22.6484 81.0972 22.8828C80.4878 23.1172 79.7652 23.2344 78.9292 23.2344ZM87.602 12.3125V23H85.4341V10.3203H87.5434L87.602 12.3125ZM91.563 10.25L91.5513 12.2656C91.3716 12.2266 91.1997 12.2031 91.0356 12.1953C90.8794 12.1797 90.6997 12.1719 90.4966 12.1719C89.9966 12.1719 89.5552 12.25 89.1723 12.4062C88.7895 12.5625 88.4653 12.7812 88.1997 13.0625C87.9341 13.3438 87.7231 13.6797 87.5669 14.0703C87.4184 14.4531 87.3208 14.875 87.2739 15.3359L86.6645 15.6875C86.6645 14.9219 86.7388 14.2031 86.8872 13.5312C87.0434 12.8594 87.2817 12.2656 87.602 11.75C87.9223 11.2266 88.3286 10.8203 88.8208 10.5312C89.3208 10.2344 89.9145 10.0859 90.602 10.0859C90.7583 10.0859 90.938 10.1055 91.1411 10.1445C91.3442 10.1758 91.4848 10.2109 91.563 10.25ZM97.6342 23.2344C96.7514 23.2344 95.9506 23.0859 95.2319 22.7891C94.5209 22.4844 93.9077 22.0586 93.392 21.5117C92.8842 20.9648 92.4936 20.3164 92.2202 19.5664C91.9467 18.8164 91.81 17.9961 91.81 17.1055V16.6133C91.81 15.582 91.9623 14.6641 92.267 13.8594C92.5717 13.0469 92.9858 12.3594 93.5092 11.7969C94.0327 11.2344 94.6264 10.8086 95.2905 10.5195C95.9545 10.2305 96.642 10.0859 97.353 10.0859C98.2592 10.0859 99.0405 10.2422 99.6967 10.5547C100.361 10.8672 100.904 11.3047 101.326 11.8672C101.748 12.4219 102.06 13.0781 102.263 13.8359C102.466 14.5859 102.568 15.4062 102.568 16.2969V17.2695H93.0991V15.5H100.4V15.3359C100.369 14.7734 100.251 14.2266 100.048 13.6953C99.853 13.1641 99.5405 12.7266 99.1108 12.3828C98.6811 12.0391 98.0952 11.8672 97.353 11.8672C96.8608 11.8672 96.4077 11.9727 95.9936 12.1836C95.5795 12.3867 95.2241 12.6914 94.9272 13.0977C94.6303 13.5039 94.3998 14 94.2358 14.5859C94.0717 15.1719 93.9897 15.8477 93.9897 16.6133V17.1055C93.9897 17.707 94.0717 18.2734 94.2358 18.8047C94.4077 19.3281 94.6538 19.7891 94.9741 20.1875C95.3022 20.5859 95.6967 20.8984 96.1577 21.125C96.6264 21.3516 97.1577 21.4648 97.7514 21.4648C98.517 21.4648 99.1655 21.3086 99.6967 20.9961C100.228 20.6836 100.693 20.2656 101.091 19.7422L102.404 20.7852C102.13 21.1992 101.783 21.5938 101.361 21.9688C100.939 22.3438 100.419 22.6484 99.8022 22.8828C99.1928 23.1172 98.4702 23.2344 97.6342 23.2344ZM111.897 20.0703V10.3203H114.077V23H112.002L111.897 20.0703ZM112.307 17.3984L113.209 17.375C113.209 18.2188 113.12 19 112.94 19.7188C112.768 20.4297 112.487 21.0469 112.096 21.5703C111.705 22.0938 111.194 22.5039 110.561 22.8008C109.928 23.0898 109.159 23.2344 108.252 23.2344C107.635 23.2344 107.069 23.1445 106.553 22.9648C106.045 22.7852 105.608 22.5078 105.241 22.1328C104.873 21.7578 104.588 21.2695 104.385 20.668C104.19 20.0664 104.092 19.3438 104.092 18.5V10.3203H106.26V18.5234C106.26 19.0938 106.323 19.5664 106.448 19.9414C106.58 20.3086 106.756 20.6016 106.975 20.8203C107.202 21.0312 107.452 21.1797 107.725 21.2656C108.006 21.3516 108.295 21.3945 108.592 21.3945C109.514 21.3945 110.245 21.2188 110.784 20.8672C111.323 20.5078 111.709 20.0273 111.944 19.4258C112.186 18.8164 112.307 18.1406 112.307 17.3984ZM118.577 12.8398V23H116.398V10.3203H118.46L118.577 12.8398ZM118.132 16.1797L117.124 16.1445C117.132 15.2773 117.245 14.4766 117.464 13.7422C117.683 13 118.007 12.3555 118.437 11.8086C118.867 11.2617 119.402 10.8398 120.042 10.543C120.683 10.2383 121.425 10.0859 122.269 10.0859C122.863 10.0859 123.41 10.1719 123.91 10.3438C124.41 10.5078 124.843 10.7695 125.21 11.1289C125.577 11.4883 125.863 11.9492 126.066 12.5117C126.269 13.0742 126.37 13.7539 126.37 14.5508V23H124.202V14.6562C124.202 13.9922 124.089 13.4609 123.863 13.0625C123.644 12.6641 123.331 12.375 122.925 12.1953C122.519 12.0078 122.042 11.9141 121.495 11.9141C120.855 11.9141 120.32 12.0273 119.89 12.2539C119.46 12.4805 119.117 12.793 118.859 13.1914C118.601 13.5898 118.413 14.0469 118.296 14.5625C118.187 15.0703 118.132 15.6094 118.132 16.1797ZM126.347 14.9844L124.894 15.4297C124.902 14.7344 125.015 14.0664 125.234 13.4258C125.46 12.7852 125.785 12.2148 126.206 11.7148C126.636 11.2148 127.163 10.8203 127.788 10.5312C128.413 10.2344 129.128 10.0859 129.933 10.0859C130.613 10.0859 131.214 10.1758 131.738 10.3555C132.269 10.5352 132.714 10.8125 133.074 11.1875C133.441 11.5547 133.718 12.0273 133.906 12.6055C134.093 13.1836 134.187 13.8711 134.187 14.668V23H132.007V14.6445C132.007 13.9336 131.894 13.3828 131.667 12.9922C131.449 12.5938 131.136 12.3164 130.73 12.1602C130.331 11.9961 129.855 11.9141 129.3 11.9141C128.824 11.9141 128.402 11.9961 128.035 12.1602C127.667 12.3242 127.359 12.5508 127.109 12.8398C126.859 13.1211 126.667 13.4453 126.535 13.8125C126.41 14.1797 126.347 14.5703 126.347 14.9844Z" fill="#666666"/>
<defs>
<clipPath id="clip0_2030_187">
<rect width="24" height="24" fill="white" transform="translate(0 3)"/>
</clipPath>
</defs>
</svg>
