<svg width="138" height="30" viewBox="0 0 138 30" fill="none" xmlns="http://www.w3.org/2000/svg">
<g clip-path="url(#clip0_2030_203)">
<path d="M12 3C8.8174 3 5.76515 4.26428 3.51472 6.51472C1.26428 8.76515 0 11.8174 0 15C0 18.1826 1.26428 21.2348 3.51472 23.4853C5.76515 25.7357 8.8174 27 12 27C15.1826 27 18.2348 25.7357 20.4853 23.4853C22.7357 21.2348 24 18.1826 24 15C24 11.8174 22.7357 8.76515 20.4853 6.51472C18.2348 4.26428 15.1826 3 12 3ZM9.61 11.705C10.072 11.705 10.4867 11.7833 10.854 11.94C11.22 12.09 11.5077 12.3177 11.717 12.623C11.9277 12.923 12.033 13.283 12.033 13.703C12.033 13.8297 12.018 13.9893 11.988 14.182C11.9007 14.7054 11.7926 15.2252 11.664 15.74C11.454 16.5627 11.0907 17.178 10.574 17.586C10.058 17.988 9.36733 18.1893 8.502 18.19C7.78733 18.19 7.202 18.022 6.746 17.686C6.296 17.3433 6.07067 16.8567 6.07 16.226C6.07 16.0947 6.085 15.9327 6.115 15.74C6.193 15.308 6.30433 14.7887 6.449 14.182C6.857 12.5307 7.91133 11.705 9.61 11.705ZM13.779 11.795H16.176C16.8427 11.795 17.377 11.933 17.779 12.209C18.1877 12.485 18.3917 12.884 18.391 13.406C18.3903 13.556 18.372 13.7127 18.336 13.876C18.1867 14.566 17.884 15.076 17.428 15.406C16.9773 15.7367 16.3587 15.902 15.572 15.902H14.355L13.941 17.875C13.9293 17.9397 13.8936 17.9976 13.841 18.037C13.7933 18.077 13.7332 18.0992 13.671 18.1H12.447C12.3803 18.1 12.329 18.079 12.293 18.037C12.2634 17.9885 12.2538 17.9305 12.266 17.875L13.51 12.02C13.5209 11.9558 13.5555 11.8979 13.607 11.858C13.6556 11.8183 13.7162 11.7961 13.779 11.795ZM9.492 13.002C9.15667 13.002 8.869 13.101 8.629 13.299C8.395 13.4977 8.227 13.801 8.125 14.209C8.017 14.611 7.909 15.1033 7.801 15.686C7.77664 15.8109 7.76425 15.9378 7.764 16.065C7.764 16.617 8.05233 16.893 8.629 16.893C8.965 16.893 9.25 16.794 9.484 16.596C9.724 16.398 9.89533 16.0947 9.998 15.686C10.1353 15.1213 10.24 14.629 10.312 14.209C10.3373 14.0809 10.3501 13.9506 10.35 13.82C10.35 13.274 10.064 13.0013 9.492 13.002ZM14.942 13.047L14.6 14.658H15.635C15.8877 14.658 16.107 14.589 16.293 14.451C16.4886 14.3072 16.6231 14.0952 16.67 13.857C16.688 13.7557 16.697 13.6657 16.697 13.587C16.697 13.4137 16.6463 13.2817 16.545 13.191C16.443 13.095 16.2683 13.047 16.021 13.047H14.942Z" fill="#FE0420"/>
</g>
<path d="M55.4694 13.9297V15.0078C55.4694 16.2891 55.3092 17.4375 54.9889 18.4531C54.6686 19.4688 54.2077 20.332 53.6061 21.043C53.0045 21.7539 52.2819 22.2969 51.4381 22.6719C50.6022 23.0469 49.6647 23.2344 48.6256 23.2344C47.6178 23.2344 46.692 23.0469 45.8483 22.6719C45.0123 22.2969 44.2858 21.7539 43.6686 21.043C43.0592 20.332 42.5866 19.4688 42.2506 18.4531C41.9147 17.4375 41.7467 16.2891 41.7467 15.0078V13.9297C41.7467 12.6484 41.9108 11.5039 42.2389 10.4961C42.5748 9.48047 43.0475 8.61719 43.6569 7.90625C44.2663 7.1875 44.9889 6.64062 45.8248 6.26562C46.6686 5.89062 47.5944 5.70312 48.6022 5.70312C49.6413 5.70312 50.5788 5.89062 51.4147 6.26562C52.2584 6.64062 52.9811 7.1875 53.5827 7.90625C54.192 8.61719 54.6569 9.48047 54.9772 10.4961C55.3053 11.5039 55.4694 12.6484 55.4694 13.9297ZM53.2311 15.0078V13.9062C53.2311 12.8906 53.1256 11.9922 52.9147 11.2109C52.7116 10.4297 52.4108 9.77344 52.0123 9.24219C51.6139 8.71094 51.1256 8.30859 50.5475 8.03516C49.9772 7.76172 49.3288 7.625 48.6022 7.625C47.8991 7.625 47.2623 7.76172 46.692 8.03516C46.1295 8.30859 45.6452 8.71094 45.2389 9.24219C44.8405 9.77344 44.5319 10.4297 44.3131 11.2109C44.0944 11.9922 43.985 12.8906 43.985 13.9062V15.0078C43.985 16.0312 44.0944 16.9375 44.3131 17.7266C44.5319 18.5078 44.8444 19.168 45.2506 19.707C45.6647 20.2383 46.153 20.6406 46.7155 20.9141C47.2858 21.1875 47.9225 21.3242 48.6256 21.3242C49.36 21.3242 50.0123 21.1875 50.5827 20.9141C51.153 20.6406 51.6334 20.2383 52.0241 19.707C52.4225 19.168 52.7233 18.5078 52.9264 17.7266C53.1295 16.9375 53.2311 16.0312 53.2311 15.0078ZM59.7359 12.7578V27.875H57.5563V10.3203H59.5484L59.7359 12.7578ZM68.2789 16.5547V16.8008C68.2789 17.7227 68.1695 18.5781 67.9508 19.3672C67.732 20.1484 67.4117 20.8281 66.9898 21.4062C66.5758 21.9844 66.0641 22.4336 65.4547 22.7539C64.8453 23.0742 64.1461 23.2344 63.357 23.2344C62.5523 23.2344 61.8414 23.1016 61.2242 22.8359C60.607 22.5703 60.0836 22.1836 59.6539 21.6758C59.2242 21.168 58.8805 20.5586 58.6227 19.8477C58.3727 19.1367 58.2008 18.3359 58.107 17.4453V16.1328C58.2008 15.1953 58.3766 14.3555 58.6344 13.6133C58.8922 12.8711 59.232 12.2383 59.6539 11.7148C60.0836 11.1836 60.6031 10.7812 61.2125 10.5078C61.8219 10.2266 62.525 10.0859 63.3219 10.0859C64.1188 10.0859 64.8258 10.2422 65.443 10.5547C66.0602 10.8594 66.5797 11.2969 67.0016 11.8672C67.4234 12.4375 67.7398 13.1211 67.9508 13.918C68.1695 14.707 68.2789 15.5859 68.2789 16.5547ZM66.0992 16.8008V16.5547C66.0992 15.9219 66.0328 15.3281 65.9 14.7734C65.7672 14.2109 65.5602 13.7188 65.2789 13.2969C65.0055 12.8672 64.6539 12.5312 64.2242 12.2891C63.7945 12.0391 63.2828 11.9141 62.6891 11.9141C62.1422 11.9141 61.6656 12.0078 61.2594 12.1953C60.8609 12.3828 60.5211 12.6367 60.2398 12.957C59.9586 13.2695 59.7281 13.6289 59.5484 14.0352C59.3766 14.4336 59.2477 14.8477 59.1617 15.2773V18.3125C59.318 18.8594 59.5367 19.375 59.818 19.8594C60.0992 20.3359 60.4742 20.7227 60.943 21.0195C61.4117 21.3086 62.0016 21.4531 62.7125 21.4531C63.2984 21.4531 63.8023 21.332 64.2242 21.0898C64.6539 20.8398 65.0055 20.5 65.2789 20.0703C65.5602 19.6406 65.7672 19.1484 65.9 18.5938C66.0328 18.0312 66.0992 17.4336 66.0992 16.8008ZM75.3931 10.3203V11.9844H68.5377V10.3203H75.3931ZM70.858 7.23828H73.0259V19.8594C73.0259 20.2891 73.0923 20.6133 73.2252 20.832C73.358 21.0508 73.5298 21.1953 73.7408 21.2656C73.9517 21.3359 74.1783 21.3711 74.4205 21.3711C74.6002 21.3711 74.7877 21.3555 74.983 21.3242C75.1861 21.2852 75.3384 21.2539 75.44 21.2305L75.4517 23C75.2798 23.0547 75.0533 23.1055 74.772 23.1523C74.4986 23.207 74.1666 23.2344 73.7759 23.2344C73.2447 23.2344 72.7564 23.1289 72.3111 22.918C71.8658 22.707 71.5103 22.3555 71.2447 21.8633C70.9869 21.3633 70.858 20.6914 70.858 19.8477V7.23828ZM79.3316 10.3203V23H77.1519V10.3203H79.3316ZM76.9878 6.95703C76.9878 6.60547 77.0933 6.30859 77.3042 6.06641C77.523 5.82422 77.8433 5.70312 78.2652 5.70312C78.6792 5.70312 78.9956 5.82422 79.2144 6.06641C79.4409 6.30859 79.5542 6.60547 79.5542 6.95703C79.5542 7.29297 79.4409 7.58203 79.2144 7.82422C78.9956 8.05859 78.6792 8.17578 78.2652 8.17578C77.8433 8.17578 77.523 8.05859 77.3042 7.82422C77.0933 7.58203 76.9878 7.29297 76.9878 6.95703ZM84.0083 12.8398V23H81.8286V10.3203H83.8911L84.0083 12.8398ZM83.563 16.1797L82.5552 16.1445C82.563 15.2773 82.6763 14.4766 82.895 13.7422C83.1138 13 83.438 12.3555 83.8677 11.8086C84.2973 11.2617 84.8325 10.8398 85.4731 10.543C86.1138 10.2383 86.8559 10.0859 87.6997 10.0859C88.2934 10.0859 88.8403 10.1719 89.3403 10.3438C89.8403 10.5078 90.2739 10.7695 90.6411 11.1289C91.0083 11.4883 91.2934 11.9492 91.4966 12.5117C91.6997 13.0742 91.8013 13.7539 91.8013 14.5508V23H89.6333V14.6562C89.6333 13.9922 89.52 13.4609 89.2934 13.0625C89.0747 12.6641 88.7622 12.375 88.3559 12.1953C87.9497 12.0078 87.4731 11.9141 86.9263 11.9141C86.2856 11.9141 85.7505 12.0273 85.3208 12.2539C84.8911 12.4805 84.5473 12.793 84.2895 13.1914C84.0317 13.5898 83.8442 14.0469 83.727 14.5625C83.6177 15.0703 83.563 15.6094 83.563 16.1797ZM91.7778 14.9844L90.3247 15.4297C90.3325 14.7344 90.4458 14.0664 90.6645 13.4258C90.8911 12.7852 91.2153 12.2148 91.6372 11.7148C92.0669 11.2148 92.5942 10.8203 93.2192 10.5312C93.8442 10.2344 94.5591 10.0859 95.3638 10.0859C96.0434 10.0859 96.645 10.1758 97.1684 10.3555C97.6997 10.5352 98.145 10.8125 98.5044 11.1875C98.8716 11.5547 99.1489 12.0273 99.3364 12.6055C99.5239 13.1836 99.6177 13.8711 99.6177 14.668V23H97.438V14.6445C97.438 13.9336 97.3247 13.3828 97.0981 12.9922C96.8794 12.5938 96.5669 12.3164 96.1606 12.1602C95.7622 11.9961 95.2856 11.9141 94.7309 11.9141C94.2544 11.9141 93.8325 11.9961 93.4653 12.1602C93.0981 12.3242 92.7895 12.5508 92.5395 12.8398C92.2895 13.1211 92.0981 13.4453 91.9653 13.8125C91.8403 14.1797 91.7778 14.5703 91.7778 14.9844ZM104.294 10.3203V23H102.115V10.3203H104.294ZM101.951 6.95703C101.951 6.60547 102.056 6.30859 102.267 6.06641C102.486 5.82422 102.806 5.70312 103.228 5.70312C103.642 5.70312 103.958 5.82422 104.177 6.06641C104.404 6.30859 104.517 6.60547 104.517 6.95703C104.517 7.29297 104.404 7.58203 104.177 7.82422C103.958 8.05859 103.642 8.17578 103.228 8.17578C102.806 8.17578 102.486 8.05859 102.267 7.82422C102.056 7.58203 101.951 7.29297 101.951 6.95703ZM114.198 19.6367C114.198 19.3242 114.127 19.0352 113.987 18.7695C113.854 18.4961 113.577 18.25 113.155 18.0312C112.741 17.8047 112.116 17.6094 111.28 17.4453C110.577 17.2969 109.94 17.1211 109.37 16.918C108.807 16.7148 108.327 16.4688 107.928 16.1797C107.537 15.8906 107.237 15.5508 107.026 15.1602C106.815 14.7695 106.709 14.3125 106.709 13.7891C106.709 13.2891 106.819 12.8164 107.037 12.3711C107.264 11.9258 107.58 11.5312 107.987 11.1875C108.401 10.8438 108.897 10.5742 109.475 10.3789C110.053 10.1836 110.698 10.0859 111.409 10.0859C112.424 10.0859 113.291 10.2656 114.01 10.625C114.729 10.9844 115.28 11.4648 115.662 12.0664C116.045 12.6602 116.237 13.3203 116.237 14.0469H114.069C114.069 13.6953 113.963 13.3555 113.752 13.0273C113.549 12.6914 113.248 12.4141 112.85 12.1953C112.459 11.9766 111.979 11.8672 111.409 11.8672C110.807 11.8672 110.319 11.9609 109.944 12.1484C109.577 12.3281 109.307 12.5586 109.135 12.8398C108.971 13.1211 108.889 13.418 108.889 13.7305C108.889 13.9648 108.928 14.1758 109.006 14.3633C109.092 14.543 109.241 14.7109 109.452 14.8672C109.662 15.0156 109.959 15.1562 110.342 15.2891C110.725 15.4219 111.213 15.5547 111.807 15.6875C112.846 15.9219 113.702 16.2031 114.373 16.5312C115.045 16.8594 115.545 17.2617 115.873 17.7383C116.202 18.2148 116.366 18.793 116.366 19.4727C116.366 20.0273 116.248 20.5352 116.014 20.9961C115.787 21.457 115.455 21.8555 115.018 22.1914C114.588 22.5195 114.073 22.7773 113.471 22.9648C112.877 23.1445 112.209 23.2344 111.467 23.2344C110.35 23.2344 109.405 23.0352 108.631 22.6367C107.858 22.2383 107.272 21.7227 106.873 21.0898C106.475 20.457 106.276 19.7891 106.276 19.0859H108.455C108.487 19.6797 108.659 20.1523 108.971 20.5039C109.284 20.8477 109.666 21.0938 110.12 21.2422C110.573 21.3828 111.022 21.4531 111.467 21.4531C112.061 21.4531 112.557 21.375 112.955 21.2188C113.362 21.0625 113.67 20.8477 113.881 20.5742C114.092 20.3008 114.198 19.9883 114.198 19.6367ZM120.41 12.8398V23H118.23V10.3203H120.292L120.41 12.8398ZM119.964 16.1797L118.956 16.1445C118.964 15.2773 119.077 14.4766 119.296 13.7422C119.515 13 119.839 12.3555 120.269 11.8086C120.699 11.2617 121.234 10.8398 121.874 10.543C122.515 10.2383 123.257 10.0859 124.101 10.0859C124.695 10.0859 125.242 10.1719 125.742 10.3438C126.242 10.5078 126.675 10.7695 127.042 11.1289C127.41 11.4883 127.695 11.9492 127.898 12.5117C128.101 13.0742 128.202 13.7539 128.202 14.5508V23H126.035V14.6562C126.035 13.9922 125.921 13.4609 125.695 13.0625C125.476 12.6641 125.163 12.375 124.757 12.1953C124.351 12.0078 123.874 11.9141 123.327 11.9141C122.687 11.9141 122.152 12.0273 121.722 12.2539C121.292 12.4805 120.949 12.793 120.691 13.1914C120.433 13.5898 120.245 14.0469 120.128 14.5625C120.019 15.0703 119.964 15.6094 119.964 16.1797ZM128.179 14.9844L126.726 15.4297C126.734 14.7344 126.847 14.0664 127.066 13.4258C127.292 12.7852 127.617 12.2148 128.038 11.7148C128.468 11.2148 128.995 10.8203 129.62 10.5312C130.245 10.2344 130.96 10.0859 131.765 10.0859C132.445 10.0859 133.046 10.1758 133.57 10.3555C134.101 10.5352 134.546 10.8125 134.906 11.1875C135.273 11.5547 135.55 12.0273 135.738 12.6055C135.925 13.1836 136.019 13.8711 136.019 14.668V23H133.839V14.6445C133.839 13.9336 133.726 13.3828 133.499 12.9922C133.281 12.5938 132.968 12.3164 132.562 12.1602C132.163 11.9961 131.687 11.9141 131.132 11.9141C130.656 11.9141 130.234 11.9961 129.867 12.1602C129.499 12.3242 129.191 12.5508 128.941 12.8398C128.691 13.1211 128.499 13.4453 128.367 13.8125C128.242 14.1797 128.179 14.5703 128.179 14.9844Z" fill="#666666"/>
<defs>
<clipPath id="clip0_2030_203">
<rect width="24" height="24" fill="white" transform="translate(0 3)"/>
</clipPath>
</defs>
</svg>
