<svg width="121" height="30" viewBox="0 0 121 30" fill="none" xmlns="http://www.w3.org/2000/svg">
<path d="M16.364 18.2168L20.634 15.7818C20.7444 15.7183 20.8363 15.6271 20.9005 15.5171C20.9647 15.4071 20.999 15.2822 21 15.1548V10.2838C21 10.1563 20.9661 10.031 20.9018 9.92084C20.8375 9.81067 20.7451 9.71957 20.634 9.65685L16.364 7.22185C16.2525 7.15838 16.1263 7.125 15.998 7.125C15.8697 7.125 15.7435 7.15838 15.632 7.22185L11.362 9.65685C11.2509 9.71957 11.1585 9.81067 11.0942 9.92084C11.0299 10.031 10.996 10.1563 10.996 10.2838V18.9878L8.002 20.6948L5.008 18.9878V15.5728L8.002 13.8658L9.976 14.9928V12.7018L8.368 11.7838C8.25615 11.7213 8.13014 11.6885 8.002 11.6885C7.87386 11.6885 7.74785 11.7213 7.636 11.7838L3.366 14.2188C3.25492 14.2816 3.1625 14.3727 3.09819 14.4828C3.03388 14.593 2.99999 14.7183 3 14.8458V19.7158C3 19.9738 3.14 20.2138 3.366 20.3428L7.636 22.7788C7.74785 22.8414 7.87386 22.8742 8.002 22.8742C8.13014 22.8742 8.25615 22.8414 8.368 22.7788L12.638 20.3428C12.7489 20.2802 12.8413 20.1893 12.9056 20.0793C12.9699 19.9693 13.0038 19.8442 13.004 19.7168V11.0118L13.057 10.9818L15.997 9.30485L18.991 11.0118V14.4268L15.997 16.1338L14.025 15.0098V17.3008L15.631 18.2168C15.7428 18.2794 15.8689 18.3122 15.997 18.3122C16.1251 18.3122 16.2522 18.2794 16.364 18.2168Z" fill="url(#paint0_linear_2030_199)"/>
<path d="M48.587 16.3086H44.0284V14.4688H48.587C49.4698 14.4688 50.1847 14.3281 50.7316 14.0469C51.2784 13.7656 51.6769 13.375 51.9269 12.875C52.1847 12.375 52.3136 11.8047 52.3136 11.1641C52.3136 10.5781 52.1847 10.0273 51.9269 9.51172C51.6769 8.99609 51.2784 8.58203 50.7316 8.26953C50.1847 7.94922 49.4698 7.78906 48.587 7.78906H44.5558V23H42.2941V5.9375H48.587C49.8761 5.9375 50.9659 6.16016 51.8566 6.60547C52.7472 7.05078 53.423 7.66797 53.8839 8.45703C54.3448 9.23828 54.5753 10.1328 54.5753 11.1406C54.5753 12.2344 54.3448 13.168 53.8839 13.9414C53.423 14.7148 52.7472 15.3047 51.8566 15.7109C50.9659 16.1094 49.8761 16.3086 48.587 16.3086ZM55.4083 16.8008V16.5312C55.4083 15.6172 55.5411 14.7695 55.8067 13.9883C56.0723 13.1992 56.4552 12.5156 56.9552 11.9375C57.4552 11.3516 58.0606 10.8984 58.7716 10.5781C59.4825 10.25 60.2794 10.0859 61.1622 10.0859C62.0528 10.0859 62.8536 10.25 63.5645 10.5781C64.2833 10.8984 64.8927 11.3516 65.3927 11.9375C65.9005 12.5156 66.2872 13.1992 66.5528 13.9883C66.8184 14.7695 66.9513 15.6172 66.9513 16.5312V16.8008C66.9513 17.7148 66.8184 18.5625 66.5528 19.3438C66.2872 20.125 65.9005 20.8086 65.3927 21.3945C64.8927 21.9727 64.2872 22.4258 63.5763 22.7539C62.8731 23.0742 62.0763 23.2344 61.1856 23.2344C60.295 23.2344 59.4942 23.0742 58.7833 22.7539C58.0723 22.4258 57.463 21.9727 56.9552 21.3945C56.4552 20.8086 56.0723 20.125 55.8067 19.3438C55.5411 18.5625 55.4083 17.7148 55.4083 16.8008ZM57.5763 16.5312V16.8008C57.5763 17.4336 57.6505 18.0312 57.7989 18.5938C57.9473 19.1484 58.17 19.6406 58.4669 20.0703C58.7716 20.5 59.1505 20.8398 59.6036 21.0898C60.0567 21.332 60.5841 21.4531 61.1856 21.4531C61.7794 21.4531 62.2989 21.332 62.7442 21.0898C63.1973 20.8398 63.5723 20.5 63.8692 20.0703C64.1661 19.6406 64.3888 19.1484 64.5372 18.5938C64.6934 18.0312 64.7716 17.4336 64.7716 16.8008V16.5312C64.7716 15.9062 64.6934 15.3164 64.5372 14.7617C64.3888 14.1992 64.1622 13.7031 63.8575 13.2734C63.5606 12.8359 63.1856 12.4922 62.7325 12.2422C62.2872 11.9922 61.7638 11.8672 61.1622 11.8672C60.5684 11.8672 60.045 11.9922 59.5919 12.2422C59.1466 12.4922 58.7716 12.8359 58.4669 13.2734C58.17 13.7031 57.9473 14.1992 57.7989 14.7617C57.6505 15.3164 57.5763 15.9062 57.5763 16.5312ZM71.0655 5V23H68.8858V5H71.0655ZM77.1484 21.6875L80.6758 10.3203H82.9961L77.9102 24.957C77.793 25.2695 77.6367 25.6055 77.4414 25.9648C77.2539 26.332 77.0117 26.6797 76.7148 27.0078C76.418 27.3359 76.0586 27.6016 75.6367 27.8047C75.2227 28.0156 74.7266 28.1211 74.1484 28.1211C73.9766 28.1211 73.7578 28.0977 73.4922 28.0508C73.2266 28.0039 73.0391 27.9648 72.9297 27.9336L72.918 26.1758C72.9805 26.1836 73.0781 26.1914 73.2109 26.1992C73.3516 26.2148 73.4492 26.2227 73.5039 26.2227C73.9961 26.2227 74.4141 26.1562 74.7578 26.0234C75.1016 25.8984 75.3906 25.6836 75.625 25.3789C75.8672 25.082 76.0742 24.6719 76.2461 24.1484L77.1484 21.6875ZM74.5586 10.3203L77.8516 20.1641L78.4141 22.4492L76.8555 23.2461L72.1914 10.3203H74.5586ZM92.0439 10.3203H94.0127V22.7305C94.0127 23.8477 93.7861 24.8008 93.333 25.5898C92.8798 26.3789 92.247 26.9766 91.4345 27.3828C90.6298 27.7969 89.7002 28.0039 88.6455 28.0039C88.208 28.0039 87.6923 27.9336 87.0986 27.793C86.5127 27.6602 85.9345 27.4297 85.3642 27.1016C84.8017 26.7812 84.3291 26.3477 83.9463 25.8008L85.083 24.5117C85.6142 25.1523 86.1689 25.5977 86.747 25.8477C87.333 26.0977 87.9111 26.2227 88.4814 26.2227C89.1689 26.2227 89.7627 26.0938 90.2627 25.8359C90.7627 25.5781 91.1494 25.1953 91.4228 24.6875C91.7041 24.1875 91.8447 23.5703 91.8447 22.8359V13.1094L92.0439 10.3203ZM83.3134 16.8008V16.5547C83.3134 15.5859 83.4267 14.707 83.6533 13.918C83.8877 13.1211 84.2197 12.4375 84.6494 11.8672C85.0869 11.2969 85.6142 10.8594 86.2314 10.5547C86.8486 10.2422 87.5439 10.0859 88.3173 10.0859C89.1142 10.0859 89.8095 10.2266 90.4033 10.5078C91.0048 10.7812 91.5127 11.1836 91.9267 11.7148C92.3486 12.2383 92.6806 12.8711 92.9228 13.6133C93.165 14.3555 93.333 15.1953 93.4267 16.1328V17.2109C93.3408 18.1406 93.1728 18.9766 92.9228 19.7188C92.6806 20.4609 92.3486 21.0938 91.9267 21.6172C91.5127 22.1406 91.0048 22.543 90.4033 22.8242C89.8017 23.0977 89.0986 23.2344 88.2939 23.2344C87.5361 23.2344 86.8486 23.0742 86.2314 22.7539C85.622 22.4336 85.0986 21.9844 84.6611 21.4062C84.2236 20.8281 83.8877 20.1484 83.6533 19.3672C83.4267 18.5781 83.3134 17.7227 83.3134 16.8008ZM85.4814 16.5547V16.8008C85.4814 17.4336 85.5439 18.0273 85.6689 18.582C85.8017 19.1367 86.0009 19.625 86.2666 20.0469C86.54 20.4688 86.8877 20.8008 87.3095 21.043C87.7314 21.2773 88.2353 21.3945 88.8213 21.3945C89.54 21.3945 90.1338 21.2422 90.6025 20.9375C91.0713 20.6328 91.4423 20.2305 91.7158 19.7305C91.997 19.2305 92.2158 18.6875 92.372 18.1016V15.2773C92.2861 14.8477 92.1533 14.4336 91.9736 14.0352C91.8017 13.6289 91.5752 13.2695 91.2939 12.957C91.0205 12.6367 90.6806 12.3828 90.2744 12.1953C89.8681 12.0078 89.3916 11.9141 88.8447 11.9141C88.2509 11.9141 87.7392 12.0391 87.3095 12.2891C86.8877 12.5312 86.54 12.8672 86.2666 13.2969C86.0009 13.7188 85.8017 14.2109 85.6689 14.7734C85.5439 15.3281 85.4814 15.9219 85.4814 16.5547ZM95.7714 16.8008V16.5312C95.7714 15.6172 95.9042 14.7695 96.1698 13.9883C96.4355 13.1992 96.8183 12.5156 97.3183 11.9375C97.8183 11.3516 98.4238 10.8984 99.1347 10.5781C99.8456 10.25 100.643 10.0859 101.525 10.0859C102.416 10.0859 103.217 10.25 103.928 10.5781C104.646 10.8984 105.256 11.3516 105.756 11.9375C106.264 12.5156 106.65 13.1992 106.916 13.9883C107.182 14.7695 107.314 15.6172 107.314 16.5312V16.8008C107.314 17.7148 107.182 18.5625 106.916 19.3438C106.65 20.125 106.264 20.8086 105.756 21.3945C105.256 21.9727 104.65 22.4258 103.939 22.7539C103.236 23.0742 102.439 23.2344 101.549 23.2344C100.658 23.2344 99.8573 23.0742 99.1464 22.7539C98.4355 22.4258 97.8261 21.9727 97.3183 21.3945C96.8183 20.8086 96.4355 20.125 96.1698 19.3438C95.9042 18.5625 95.7714 17.7148 95.7714 16.8008ZM97.9394 16.5312V16.8008C97.9394 17.4336 98.0136 18.0312 98.162 18.5938C98.3105 19.1484 98.5331 19.6406 98.83 20.0703C99.1347 20.5 99.5136 20.8398 99.9667 21.0898C100.42 21.332 100.947 21.4531 101.549 21.4531C102.143 21.4531 102.662 21.332 103.107 21.0898C103.56 20.8398 103.935 20.5 104.232 20.0703C104.529 19.6406 104.752 19.1484 104.9 18.5938C105.057 18.0312 105.135 17.4336 105.135 16.8008V16.5312C105.135 15.9062 105.057 15.3164 104.9 14.7617C104.752 14.1992 104.525 13.7031 104.221 13.2734C103.924 12.8359 103.549 12.4922 103.096 12.2422C102.65 11.9922 102.127 11.8672 101.525 11.8672C100.932 11.8672 100.408 11.9922 99.955 12.2422C99.5097 12.4922 99.1347 12.8359 98.83 13.2734C98.5331 13.7031 98.3105 14.1992 98.162 14.7617C98.0136 15.3164 97.9394 15.9062 97.9394 16.5312ZM111.241 13.0273V23H109.073V10.3203H111.124L111.241 13.0273ZM110.725 16.1797L109.823 16.1445C109.831 15.2773 109.96 14.4766 110.21 13.7422C110.46 13 110.811 12.3555 111.265 11.8086C111.718 11.2617 112.257 10.8398 112.882 10.543C113.515 10.2383 114.214 10.0859 114.979 10.0859C115.604 10.0859 116.167 10.1719 116.667 10.3438C117.167 10.5078 117.593 10.7734 117.944 11.1406C118.304 11.5078 118.577 11.9844 118.765 12.5703C118.952 13.1484 119.046 13.8555 119.046 14.6914V23H116.866V14.668C116.866 14.0039 116.768 13.4727 116.573 13.0742C116.378 12.668 116.093 12.375 115.718 12.1953C115.343 12.0078 114.882 11.9141 114.335 11.9141C113.796 11.9141 113.304 12.0273 112.858 12.2539C112.421 12.4805 112.042 12.793 111.722 13.1914C111.409 13.5898 111.163 14.0469 110.983 14.5625C110.811 15.0703 110.725 15.6094 110.725 16.1797Z" fill="#666666"/>
<defs>
<linearGradient id="paint0_linear_2030_199" x1="2.942" y1="20.1938" x2="20.119" y2="10.1008" gradientUnits="userSpaceOnUse">
<stop stop-color="#A726C1"/>
<stop offset="0.88" stop-color="#803BDF"/>
<stop offset="1" stop-color="#7B3FE4"/>
</linearGradient>
</defs>
</svg>
