<svg width="52" height="56" viewBox="0 0 52 56" fill="none" xmlns="http://www.w3.org/2000/svg">
<rect width="52" height="56" rx="16" fill="#1C47A2"/>
<path d="M17 28C17 26.8181 17.2328 25.6478 17.6851 24.5558C18.1374 23.4639 18.8003 22.4718 19.636 21.636C20.4718 20.8003 21.4639 20.1374 22.5558 19.6851C23.6478 19.2328 24.8181 19 26 19C27.1819 19 28.3522 19.2328 29.4442 19.6851C30.5361 20.1374 31.5282 20.8003 32.364 21.636C33.1997 22.4718 33.8626 23.4639 34.3149 24.5558C34.7672 25.6478 35 26.8181 35 28C35 30.3869 34.0518 32.6761 32.364 34.364C30.6761 36.0518 28.3869 37 26 37C23.6131 37 21.3239 36.0518 19.636 34.364C17.9482 32.6761 17 30.3869 17 28Z" fill="#0E5BFF"/>
<path fill-rule="evenodd" clip-rule="evenodd" d="M26 34.375C27.6908 34.375 29.3123 33.7033 30.5078 32.5078C31.7033 31.3123 32.375 29.6908 32.375 28C32.375 26.3092 31.7033 24.6877 30.5078 23.4922C29.3123 22.2966 27.6908 21.625 26 21.625C24.3092 21.625 22.6877 22.2966 21.4922 23.4922C20.2966 24.6877 19.625 26.3092 19.625 28C19.625 29.6908 20.2966 31.3123 21.4922 32.5078C22.6877 33.7033 24.3092 34.375 26 34.375ZM25.25 26.125C24.629 26.125 24.125 26.629 24.125 27.25V28.75C24.125 29.371 24.629 29.875 25.25 29.875H26.75C27.371 29.875 27.875 29.371 27.875 28.75V27.25C27.875 26.629 27.371 26.125 26.75 26.125H25.25Z" fill="white"/>
</svg>
