<svg width="81" height="13" viewBox="0 0 81 13" fill="none" xmlns="http://www.w3.org/2000/svg">
<path d="M6.5 0L7.95934 4.49139H12.6819L8.86126 7.26722L10.3206 11.7586L6.5 8.98278L2.6794 11.7586L4.13874 7.26722L0.318133 4.49139H5.04066L6.5 0Z" fill="#E4B95C"/>
<path d="M23.5 0L24.9593 4.49139H29.6819L25.8613 7.26722L27.3206 11.7586L23.5 8.98278L19.6794 11.7586L21.1387 7.26722L17.3181 4.49139H22.0407L23.5 0Z" fill="#E4B95C"/>
<path d="M40.5 0L41.9593 4.49139H46.6819L42.8613 7.26722L44.3206 11.7586L40.5 8.98278L36.6794 11.7586L38.1387 7.26722L34.3181 4.49139H39.0407L40.5 0Z" fill="#E4B95C"/>
<path d="M57.5 0L58.9593 4.49139H63.6819L59.8613 7.26722L61.3206 11.7586L57.5 8.98278L53.6794 11.7586L55.1387 7.26722L51.3181 4.49139H56.0407L57.5 0Z" fill="#E4B95C"/>
<path d="M74.5 0L75.9593 4.49139H80.6819L76.8613 7.26722L78.3206 11.7586L74.5 8.98278L70.6794 11.7586L72.1387 7.26722L68.3181 4.49139H73.0407L74.5 0Z" fill="#E4B95C"/>
</svg>
