<svg width="126" height="30" viewBox="0 0 126 30" fill="none" xmlns="http://www.w3.org/2000/svg">
<g clip-path="url(#clip0_2030_191)">
<path d="M12 27C18.6274 27 24 21.6274 24 15C24 8.37258 18.6274 3 12 3C5.37258 3 0 8.37258 0 15C0 21.6274 5.37258 27 12 27Z" fill="#FF007A"/>
<path d="M9.19576 7.32555C8.98201 7.29255 8.97301 7.28805 9.07351 7.27305C9.26626 7.24305 9.72226 7.2843 10.0365 7.35855C10.7693 7.5333 11.436 7.97955 12.1485 8.7723L12.3375 8.9823L12.6075 8.93955C13.7475 8.7558 14.9078 8.90205 15.8775 9.3498C16.1445 9.4728 16.5653 9.71805 16.6178 9.7818C16.635 9.8013 16.6658 9.93105 16.686 10.069C16.758 10.5468 16.722 10.9128 16.5765 11.1865C16.497 11.335 16.4925 11.3815 16.5458 11.509C16.5713 11.5615 16.6109 11.6058 16.6602 11.6371C16.7095 11.6683 16.7664 11.6853 16.8248 11.686C17.0663 11.686 17.3258 11.296 17.4458 10.7538L17.4938 10.5385L17.5883 10.6458C18.1073 11.2338 18.5145 12.0355 18.5843 12.6055L18.603 12.7548L18.5153 12.6198C18.3653 12.3873 18.2153 12.2283 18.0218 12.1C17.6738 11.8698 17.3055 11.7918 16.3305 11.74C15.45 11.6935 14.9513 11.6185 14.4578 11.4573C13.617 11.1835 13.1933 10.8183 12.1943 9.50805C11.751 8.92605 11.4765 8.6043 11.2043 8.34555C10.584 7.75605 9.97501 7.44705 9.19576 7.32555Z" fill="white"/>
<path d="M16.8165 8.62523C16.839 8.23523 16.8915 7.97798 16.998 7.74323C17.04 7.65023 17.0797 7.57373 17.0857 7.57373C17.0788 7.62633 17.065 7.67778 17.0445 7.72673C16.9672 7.95473 16.9545 8.26673 17.0077 8.62898C17.0752 9.08948 17.1142 9.15548 17.6002 9.65273C17.829 9.88598 18.0945 10.18 18.1905 10.3067L18.3652 10.5362L18.1905 10.372C17.9767 10.1717 17.4847 9.77948 17.376 9.72398C17.3032 9.68648 17.292 9.68723 17.247 9.73148C17.2057 9.77348 17.1967 9.83498 17.1915 10.1282C17.1825 10.5842 17.1202 10.8782 16.9695 11.1707C16.8885 11.3282 16.8757 11.2952 16.9492 11.116C17.004 10.9825 17.0092 10.924 17.0092 10.4822C17.0092 9.59423 16.9035 9.38123 16.2847 9.01523C16.0986 8.90715 15.9074 8.80804 15.7117 8.71823C15.6152 8.67927 15.5215 8.63367 15.4312 8.58173C15.4485 8.56448 16.0515 8.73998 16.2937 8.83373C16.6552 8.97248 16.7145 8.99048 16.7587 8.97323C16.788 8.96198 16.8022 8.87648 16.8165 8.62523ZM9.61125 10.144C9.177 9.54623 8.9085 8.62898 8.96625 7.94348L8.98425 7.73123L9.08325 7.74923C9.26925 7.78298 9.5895 7.90223 9.7395 7.99373C10.1505 8.24348 10.329 8.57273 10.5097 9.41723C10.563 9.66473 10.6327 9.94448 10.665 10.0397C10.716 10.192 10.911 10.5482 11.07 10.78C11.184 10.9465 11.1075 11.0252 10.8555 11.0027C10.47 10.9675 9.948 10.6075 9.61125 10.144ZM16.29 14.5952C14.2597 13.7777 13.545 13.0682 13.545 11.8712C13.545 11.695 13.551 11.551 13.5577 11.551C13.5645 11.551 13.644 11.6087 13.7325 11.68C14.1442 12.01 14.6055 12.151 15.8812 12.337C16.632 12.4472 17.055 12.5357 17.445 12.6647C18.684 13.0757 19.4505 13.9097 19.6335 15.0452C19.686 15.3752 19.6552 15.994 19.569 16.3202C19.5015 16.5782 19.2937 17.0425 19.239 17.0605C19.224 17.065 19.209 17.0072 19.2045 16.927C19.1835 16.501 18.9682 16.0855 18.606 15.7742C18.1942 15.421 17.6422 15.139 16.29 14.5952ZM14.865 14.9342C14.8407 14.7894 14.8079 14.6462 14.7667 14.5052L14.7142 14.3507L14.811 14.4587C14.9437 14.6087 15.0495 14.7992 15.138 15.0542C15.2062 15.2485 15.2137 15.3062 15.213 15.622C15.213 15.9325 15.2047 15.997 15.1417 16.1725C15.0547 16.4301 14.9079 16.6634 14.7135 16.8535C14.3422 17.2315 13.866 17.44 13.1775 17.527C13.0575 17.542 12.7095 17.5675 12.4027 17.5832C11.6302 17.6237 11.1225 17.7062 10.6657 17.8667C10.6245 17.885 10.5803 17.8957 10.5352 17.8982C10.5172 17.8795 10.8277 17.6942 11.085 17.5705C11.4472 17.3957 11.8072 17.3005 12.615 17.1662C13.014 17.0995 13.4265 17.0192 13.5307 16.987C14.5192 16.684 15.0277 15.9025 14.865 14.9342Z" fill="white"/>
<path d="M15.795 16.587C15.525 16.0072 15.4635 15.447 15.6112 14.925C15.627 14.8695 15.6525 14.8237 15.6675 14.8237C15.7184 14.8418 15.7662 14.8676 15.8092 14.9002C15.9337 14.9842 16.1827 15.1252 16.8465 15.4867C17.6752 15.939 18.1477 16.2892 18.4695 16.6882C18.7507 17.0385 18.9247 17.4375 19.0087 17.9235C19.056 18.1987 19.0282 18.861 18.9577 19.1385C18.735 20.013 18.2167 20.7 17.4787 21.1005C17.4087 21.1401 17.3366 21.1759 17.2627 21.2077C17.2522 21.2077 17.2912 21.108 17.3505 20.985C17.598 20.466 17.6272 19.9605 17.439 19.398C17.3242 19.0537 17.0895 18.633 16.6162 17.9235C16.0657 17.0985 15.9307 16.878 15.795 16.587ZM8.16975 19.7152C8.9235 19.0792 9.86025 18.6277 10.7145 18.489C11.082 18.429 11.6955 18.453 12.036 18.54C12.582 18.6795 13.071 18.993 13.3252 19.3657C13.5727 19.7302 13.68 20.0482 13.7902 20.7547C13.8352 21.0337 13.8825 21.3135 13.8967 21.3772C13.9792 21.7432 14.142 22.0365 14.343 22.1835C14.6617 22.4167 15.2115 22.431 15.7515 22.221C15.808 22.1952 15.8674 22.1766 15.9285 22.1655C15.948 22.185 15.6765 22.3672 15.4845 22.4632C15.2581 22.5849 15.0042 22.6464 14.7472 22.6417C14.2522 22.6417 13.8412 22.3905 13.4985 21.8767C13.431 21.7755 13.2795 21.4732 13.161 21.204C12.7995 20.379 12.621 20.127 12.201 19.8517C11.8342 19.6117 11.3625 19.569 11.0077 19.743C10.5412 19.9717 10.4115 20.568 10.7452 20.9452C10.878 21.0952 11.1255 21.225 11.328 21.2497C11.4163 21.2614 11.5062 21.254 11.5914 21.228C11.6766 21.202 11.7553 21.1581 11.822 21.099C11.8888 21.04 11.9421 20.9674 11.9784 20.886C12.0147 20.8046 12.033 20.7163 12.0322 20.6272C12.0322 20.3782 11.9362 20.2372 11.6962 20.1285C11.3685 19.9807 11.016 20.1532 11.0175 20.4615C11.0182 20.5927 11.0752 20.6752 11.2072 20.7352C11.292 20.7727 11.2935 20.7765 11.2245 20.7622C10.9237 20.6992 10.8532 20.337 11.0955 20.0962C11.3857 19.8067 11.9865 19.9342 12.1927 20.3287C12.2797 20.4945 12.2895 20.8252 12.2137 21.0247C12.045 21.471 11.5515 21.705 11.0512 21.5775C10.7107 21.4905 10.572 21.3967 10.1617 20.9737C9.4485 20.2387 9.17175 20.0962 8.14275 19.9357L7.9455 19.905L8.16975 19.7152Z" fill="white"/>
<path fill-rule="evenodd" clip-rule="evenodd" d="M4.647 5.51265L4.719 5.6004C7.5005 9.0059 8.937 10.7719 9.0285 10.8984C9.1785 11.1069 9.12225 11.2936 8.86425 11.4406C8.721 11.5224 8.4255 11.6049 8.2785 11.6049C8.11125 11.6049 7.923 11.5246 7.78575 11.3949C7.689 11.3026 7.29825 10.7191 6.396 9.3189C5.97348 8.6571 5.54546 7.99883 5.112 7.34415C5.07525 7.30965 5.076 7.3104 6.3255 9.54615C7.11 10.9501 7.3755 11.4459 7.3755 11.5126C7.3755 11.6476 7.338 11.7181 7.1715 11.9041C6.894 12.2139 6.77025 12.5619 6.68025 13.2819C6.57975 14.0896 6.29775 14.6596 5.51475 15.6354C5.05725 16.2069 4.98225 16.3119 4.866 16.5421C4.7205 16.8316 4.68075 16.9944 4.66425 17.3604C4.647 17.7474 4.68075 17.9979 4.79925 18.3676C4.90275 18.6916 5.01075 18.9061 5.28675 19.3336C5.52525 19.7034 5.6625 19.9779 5.6625 20.0851C5.6625 20.1706 5.679 20.1706 6.04875 20.0874C6.933 19.8879 7.65075 19.5361 8.055 19.1056C8.30475 18.8394 8.36325 18.6924 8.3655 18.3271C8.36625 18.0886 8.358 18.0384 8.2935 17.9011C8.1885 17.6776 7.99725 17.4916 7.57575 17.2036C7.023 16.8256 6.7875 16.5211 6.72225 16.1034C6.66825 15.7606 6.7305 15.5184 7.0365 14.8779C7.35225 14.2149 7.431 13.9329 7.48425 13.2646C7.518 12.8326 7.56525 12.6624 7.68975 12.5259C7.81875 12.3834 7.93575 12.3346 8.256 12.2911C8.778 12.2199 9.11025 12.0849 9.38325 11.8336C9.62025 11.6146 9.71925 11.4039 9.73425 11.0874L9.74625 10.8474L9.6135 10.6929C9.4235 10.4709 7.8475 8.7319 4.8855 5.4759L4.806 5.38965L4.647 5.5134V5.51265ZM5.9325 17.7991C5.98483 17.7065 6.00045 17.5976 5.97628 17.494C5.95212 17.3903 5.88992 17.2996 5.802 17.2396C5.631 17.1256 5.36475 17.1796 5.36475 17.3281C5.36475 17.3731 5.3895 17.4061 5.44575 17.4354C5.541 17.4841 5.54775 17.5396 5.4735 17.6514C5.39775 17.7654 5.40375 17.8659 5.49075 17.9341C5.63025 18.0436 5.8275 17.9829 5.9325 17.7991ZM10.0755 12.4171C9.83025 12.4921 9.5925 12.7524 9.51825 13.0246C9.47325 13.1904 9.49875 13.4821 9.56625 13.5721C9.675 13.7176 9.78075 13.7559 10.0658 13.7536C10.6238 13.7499 11.1083 13.5106 11.1653 13.2114C11.2118 12.9661 10.998 12.6264 10.7048 12.4764C10.5533 12.3999 10.2315 12.3691 10.0755 12.4171ZM10.728 12.9271C10.8143 12.8049 10.776 12.6721 10.6305 12.5836C10.3515 12.4134 9.93 12.5536 9.93 12.8176C9.93 12.9481 10.1498 13.0914 10.3508 13.0914C10.4858 13.0914 10.6688 13.0111 10.728 12.9271Z" fill="white"/>
</g>
<path d="M51.8019 5.9375H54.0519V17.4805C54.0519 18.7617 53.7667 19.8281 53.1964 20.6797C52.6261 21.5312 51.8683 22.1719 50.923 22.6016C49.9855 23.0234 48.9659 23.2344 47.8644 23.2344C46.7081 23.2344 45.6613 23.0234 44.7238 22.6016C43.7941 22.1719 43.0558 21.5312 42.5089 20.6797C41.9698 19.8281 41.7003 18.7617 41.7003 17.4805V5.9375H43.9386V17.4805C43.9386 18.3711 44.1027 19.1055 44.4308 19.6836C44.7589 20.2617 45.2159 20.6914 45.8019 20.9727C46.3956 21.2539 47.0831 21.3945 47.8644 21.3945C48.6534 21.3945 49.3409 21.2539 49.9269 20.9727C50.5206 20.6914 50.9816 20.2617 51.3097 19.6836C51.6378 19.1055 51.8019 18.3711 51.8019 17.4805V5.9375ZM58.4825 13.0273V23H56.3145V10.3203H58.3653L58.4825 13.0273ZM57.9669 16.1797L57.0645 16.1445C57.0723 15.2773 57.2013 14.4766 57.4513 13.7422C57.7013 13 58.0528 12.3555 58.5059 11.8086C58.9591 11.2617 59.4981 10.8398 60.1231 10.543C60.7559 10.2383 61.4552 10.0859 62.2208 10.0859C62.8458 10.0859 63.4083 10.1719 63.9083 10.3438C64.4083 10.5078 64.8341 10.7734 65.1856 11.1406C65.545 11.5078 65.8184 11.9844 66.0059 12.5703C66.1934 13.1484 66.2872 13.8555 66.2872 14.6914V23H64.1075V14.668C64.1075 14.0039 64.0098 13.4727 63.8145 13.0742C63.6192 12.668 63.3341 12.375 62.9591 12.1953C62.5841 12.0078 62.1231 11.9141 61.5763 11.9141C61.0372 11.9141 60.545 12.0273 60.0997 12.2539C59.6622 12.4805 59.2833 12.793 58.963 13.1914C58.6505 13.5898 58.4044 14.0469 58.2247 14.5625C58.0528 15.0703 57.9669 15.6094 57.9669 16.1797ZM70.9756 10.3203V23H68.7959V10.3203H70.9756ZM68.6319 6.95703C68.6319 6.60547 68.7373 6.30859 68.9483 6.06641C69.167 5.82422 69.4873 5.70312 69.9092 5.70312C70.3233 5.70312 70.6397 5.82422 70.8584 6.06641C71.085 6.30859 71.1983 6.60547 71.1983 6.95703C71.1983 7.29297 71.085 7.58203 70.8584 7.82422C70.6397 8.05859 70.3233 8.17578 69.9092 8.17578C69.4873 8.17578 69.167 8.05859 68.9483 7.82422C68.7373 7.58203 68.6319 7.29297 68.6319 6.95703ZM80.8789 19.6367C80.8789 19.3242 80.8086 19.0352 80.668 18.7695C80.5352 18.4961 80.2578 18.25 79.8359 18.0312C79.4219 17.8047 78.7969 17.6094 77.9609 17.4453C77.2578 17.2969 76.6211 17.1211 76.0508 16.918C75.4883 16.7148 75.0078 16.4688 74.6094 16.1797C74.2188 15.8906 73.918 15.5508 73.707 15.1602C73.4961 14.7695 73.3906 14.3125 73.3906 13.7891C73.3906 13.2891 73.5 12.8164 73.7188 12.3711C73.9453 11.9258 74.2617 11.5312 74.668 11.1875C75.082 10.8438 75.5781 10.5742 76.1563 10.3789C76.7344 10.1836 77.3789 10.0859 78.0898 10.0859C79.1055 10.0859 79.9727 10.2656 80.6914 10.625C81.4102 10.9844 81.9609 11.4648 82.3438 12.0664C82.7266 12.6602 82.918 13.3203 82.918 14.0469H80.75C80.75 13.6953 80.6445 13.3555 80.4336 13.0273C80.2305 12.6914 79.9297 12.4141 79.5313 12.1953C79.1406 11.9766 78.6602 11.8672 78.0898 11.8672C77.4883 11.8672 77 11.9609 76.625 12.1484C76.2578 12.3281 75.9883 12.5586 75.8164 12.8398C75.6523 13.1211 75.5703 13.418 75.5703 13.7305C75.5703 13.9648 75.6094 14.1758 75.6875 14.3633C75.7734 14.543 75.9219 14.7109 76.1328 14.8672C76.3438 15.0156 76.6406 15.1562 77.0234 15.2891C77.4063 15.4219 77.8945 15.5547 78.4883 15.6875C79.5273 15.9219 80.3828 16.2031 81.0547 16.5312C81.7266 16.8594 82.2266 17.2617 82.5547 17.7383C82.8828 18.2148 83.0469 18.793 83.0469 19.4727C83.0469 20.0273 82.9297 20.5352 82.6953 20.9961C82.4688 21.457 82.1367 21.8555 81.6992 22.1914C81.2695 22.5195 80.7539 22.7773 80.1523 22.9648C79.5586 23.1445 78.8906 23.2344 78.1484 23.2344C77.0313 23.2344 76.0859 23.0352 75.3125 22.6367C74.5391 22.2383 73.9531 21.7227 73.5547 21.0898C73.1563 20.457 72.957 19.7891 72.957 19.0859H75.1367C75.168 19.6797 75.3398 20.1523 75.6523 20.5039C75.9648 20.8477 76.3477 21.0938 76.8008 21.2422C77.2539 21.3828 77.7031 21.4531 78.1484 21.4531C78.7422 21.4531 79.2383 21.375 79.6367 21.2188C80.043 21.0625 80.3516 20.8477 80.5625 20.5742C80.7734 20.3008 80.8789 19.9883 80.8789 19.6367ZM88.1455 20.75L91.4033 10.3203H92.833L92.5517 12.3945L89.2353 23H87.8408L88.1455 20.75ZM85.9541 10.3203L88.7314 20.8672L88.9306 23H87.4658L83.7861 10.3203H85.9541ZM95.9502 20.7852L98.5986 10.3203H100.755L97.0752 23H95.622L95.9502 20.7852ZM93.1494 10.3203L96.3369 20.5742L96.7002 23H95.3173L91.9072 12.3711L91.6259 10.3203H93.1494ZM109.498 20.832V14.3047C109.498 13.8047 109.396 13.3711 109.193 13.0039C108.998 12.6289 108.701 12.3398 108.303 12.1367C107.904 11.9336 107.412 11.832 106.826 11.832C106.279 11.832 105.799 11.9258 105.385 12.1133C104.978 12.3008 104.658 12.5469 104.424 12.8516C104.197 13.1562 104.084 13.4844 104.084 13.8359H101.916C101.916 13.3828 102.033 12.9336 102.268 12.4883C102.502 12.043 102.838 11.6406 103.275 11.2812C103.721 10.9141 104.252 10.625 104.869 10.4141C105.494 10.1953 106.189 10.0859 106.955 10.0859C107.877 10.0859 108.689 10.2422 109.393 10.5547C110.103 10.8672 110.658 11.3398 111.057 11.9727C111.463 12.5977 111.666 13.3828 111.666 14.3281V20.2344C111.666 20.6562 111.701 21.1055 111.771 21.582C111.85 22.0586 111.963 22.4688 112.111 22.8125V23H109.85C109.74 22.75 109.654 22.418 109.592 22.0039C109.529 21.582 109.498 21.1914 109.498 20.832ZM109.873 15.3125L109.896 16.8359H107.705C107.088 16.8359 106.537 16.8867 106.053 16.9883C105.568 17.082 105.162 17.2266 104.834 17.4219C104.506 17.6172 104.256 17.8633 104.084 18.1602C103.912 18.4492 103.826 18.7891 103.826 19.1797C103.826 19.5781 103.916 19.9414 104.096 20.2695C104.275 20.5977 104.545 20.8594 104.904 21.0547C105.271 21.2422 105.721 21.3359 106.252 21.3359C106.916 21.3359 107.502 21.1953 108.01 20.9141C108.518 20.6328 108.92 20.2891 109.217 19.8828C109.521 19.4766 109.685 19.082 109.709 18.6992L110.635 19.7422C110.58 20.0703 110.432 20.4336 110.189 20.832C109.947 21.2305 109.623 21.6133 109.217 21.9805C108.818 22.3398 108.342 22.6406 107.787 22.8828C107.24 23.1172 106.623 23.2344 105.935 23.2344C105.076 23.2344 104.322 23.0664 103.674 22.7305C103.033 22.3945 102.533 21.9453 102.174 21.3828C101.822 20.8125 101.646 20.1758 101.646 19.4727C101.646 18.793 101.779 18.1953 102.045 17.6797C102.31 17.1562 102.693 16.7227 103.193 16.3789C103.693 16.0273 104.295 15.7617 104.998 15.582C105.701 15.4023 106.486 15.3125 107.353 15.3125H109.873ZM116.284 12.7578V27.875H114.104V10.3203H116.097L116.284 12.7578ZM124.827 16.5547V16.8008C124.827 17.7227 124.718 18.5781 124.499 19.3672C124.28 20.1484 123.96 20.8281 123.538 21.4062C123.124 21.9844 122.612 22.4336 122.003 22.7539C121.393 23.0742 120.694 23.2344 119.905 23.2344C119.1 23.2344 118.39 23.1016 117.772 22.8359C117.155 22.5703 116.632 22.1836 116.202 21.6758C115.772 21.168 115.429 20.5586 115.171 19.8477C114.921 19.1367 114.749 18.3359 114.655 17.4453V16.1328C114.749 15.1953 114.925 14.3555 115.182 13.6133C115.44 12.8711 115.78 12.2383 116.202 11.7148C116.632 11.1836 117.151 10.7812 117.761 10.5078C118.37 10.2266 119.073 10.0859 119.87 10.0859C120.667 10.0859 121.374 10.2422 121.991 10.5547C122.608 10.8594 123.128 11.2969 123.55 11.8672C123.972 12.4375 124.288 13.1211 124.499 13.918C124.718 14.707 124.827 15.5859 124.827 16.5547ZM122.647 16.8008V16.5547C122.647 15.9219 122.581 15.3281 122.448 14.7734C122.315 14.2109 122.108 13.7188 121.827 13.2969C121.554 12.8672 121.202 12.5312 120.772 12.2891C120.343 12.0391 119.831 11.9141 119.237 11.9141C118.69 11.9141 118.214 12.0078 117.807 12.1953C117.409 12.3828 117.069 12.6367 116.788 12.957C116.507 13.2695 116.276 13.6289 116.097 14.0352C115.925 14.4336 115.796 14.8477 115.71 15.2773V18.3125C115.866 18.8594 116.085 19.375 116.366 19.8594C116.647 20.3359 117.022 20.7227 117.491 21.0195C117.96 21.3086 118.55 21.4531 119.261 21.4531C119.847 21.4531 120.35 21.332 120.772 21.0898C121.202 20.8398 121.554 20.5 121.827 20.0703C122.108 19.6406 122.315 19.1484 122.448 18.5938C122.581 18.0312 122.647 17.4336 122.647 16.8008Z" fill="#666666"/>
<defs>
<clipPath id="clip0_2030_191">
<rect width="24" height="24" fill="white" transform="translate(0 3)"/>
</clipPath>
</defs>
</svg>
