<svg width="24" height="24" viewBox="0 0 24 24" fill="none" xmlns="http://www.w3.org/2000/svg">
<path d="M12 0C8.8174 0 5.76515 1.26428 3.51472 3.51472C1.26428 5.76515 0 8.8174 0 12C0 15.1826 1.26428 18.2348 3.51472 20.4853C5.76515 22.7357 8.8174 24 12 24C15.1826 24 18.2348 22.7357 20.4853 20.4853C22.7357 18.2348 24 15.1826 24 12C24 8.8174 22.7357 5.76515 20.4853 3.51472C18.2348 1.26428 15.1826 0 12 0ZM9.61 8.705C10.072 8.705 10.4867 8.78333 10.854 8.94C11.22 9.09 11.5077 9.31767 11.717 9.623C11.9277 9.923 12.033 10.283 12.033 10.703C12.033 10.8297 12.018 10.9893 11.988 11.182C11.9007 11.7054 11.7926 12.2252 11.664 12.74C11.454 13.5627 11.0907 14.178 10.574 14.586C10.058 14.988 9.36733 15.1893 8.502 15.19C7.78733 15.19 7.202 15.022 6.746 14.686C6.296 14.3433 6.07067 13.8567 6.07 13.226C6.07 13.0947 6.085 12.9327 6.115 12.74C6.193 12.308 6.30433 11.7887 6.449 11.182C6.857 9.53067 7.91133 8.705 9.61 8.705ZM13.779 8.795H16.176C16.8427 8.795 17.377 8.933 17.779 9.209C18.1877 9.485 18.3917 9.884 18.391 10.406C18.3903 10.556 18.372 10.7127 18.336 10.876C18.1867 11.566 17.884 12.076 17.428 12.406C16.9773 12.7367 16.3587 12.902 15.572 12.902H14.355L13.941 14.875C13.9293 14.9397 13.8936 14.9976 13.841 15.037C13.7933 15.077 13.7332 15.0992 13.671 15.1H12.447C12.3803 15.1 12.329 15.079 12.293 15.037C12.2634 14.9885 12.2538 14.9305 12.266 14.875L13.51 9.02C13.5209 8.95575 13.5555 8.89794 13.607 8.858C13.6556 8.81831 13.7162 8.79612 13.779 8.795ZM9.492 10.002C9.15667 10.002 8.869 10.101 8.629 10.299C8.395 10.4977 8.227 10.801 8.125 11.209C8.017 11.611 7.909 12.1033 7.801 12.686C7.77664 12.8109 7.76425 12.9378 7.764 13.065C7.764 13.617 8.05233 13.893 8.629 13.893C8.965 13.893 9.25 13.794 9.484 13.596C9.724 13.398 9.89533 13.0947 9.998 12.686C10.1353 12.1213 10.24 11.629 10.312 11.209C10.3373 11.0809 10.3501 10.9506 10.35 10.82C10.35 10.274 10.064 10.0013 9.492 10.002ZM14.942 10.047L14.6 11.658H15.635C15.8877 11.658 16.107 11.589 16.293 11.451C16.4886 11.3072 16.6231 11.0952 16.67 10.857C16.688 10.7557 16.697 10.6657 16.697 10.587C16.697 10.4137 16.6463 10.2817 16.545 10.191C16.443 10.095 16.2683 10.047 16.021 10.047H14.942Z" fill="#FE0420"/>
</svg>
