<svg width="24" height="24" viewBox="0 0 24 24" fill="none" xmlns="http://www.w3.org/2000/svg">
<g clip-path="url(#clip0_2038_651)">
<path d="M12 24C18.6274 24 24 18.6274 24 12C24 5.37258 18.6274 0 12 0C5.37258 0 0 5.37258 0 12C0 18.6274 5.37258 24 12 24Z" fill="#2A5ADA"/>
<path d="M12 4.5L10.6508 5.29125L6.975 7.45875L5.625 8.25V15.75L6.97425 16.5413L10.6845 18.7087L12.0338 19.5L13.383 18.7087L17.0258 16.5413L18.375 15.75V8.25L17.0258 7.45875L13.3492 5.29125L12 4.5ZM8.3235 14.1675V9.8325L12 7.665L15.6765 9.8325V14.1675L12 16.335L8.3235 14.1675Z" fill="white"/>
</g>
<defs>
<clipPath id="clip0_2038_651">
<rect width="24" height="24" fill="white"/>
</clipPath>
</defs>
</svg>
