<svg width="24" height="24" viewBox="0 0 24 24" fill="none" xmlns="http://www.w3.org/2000/svg">
<path d="M3 12C3 10.8181 3.23279 9.64778 3.68508 8.55585C4.13738 7.46392 4.80031 6.47177 5.63604 5.63604C6.47177 4.80031 7.46392 4.13738 8.55585 3.68508C9.64778 3.23279 10.8181 3 12 3C13.1819 3 14.3522 3.23279 15.4442 3.68508C16.5361 4.13738 17.5282 4.80031 18.364 5.63604C19.1997 6.47177 19.8626 7.46392 20.3149 8.55585C20.7672 9.64778 21 10.8181 21 12C21 14.3869 20.0518 16.6761 18.364 18.364C16.6761 20.0518 14.3869 21 12 21C9.61305 21 7.32387 20.0518 5.63604 18.364C3.94821 16.6761 3 14.3869 3 12Z" fill="#0E5BFF"/>
<path fill-rule="evenodd" clip-rule="evenodd" d="M12 18.375C13.6908 18.375 15.3123 17.7033 16.5078 16.5078C17.7033 15.3123 18.375 13.6908 18.375 12C18.375 10.3092 17.7033 8.68774 16.5078 7.49219C15.3123 6.29665 13.6908 5.625 12 5.625C10.3092 5.625 8.68774 6.29665 7.49219 7.49219C6.29665 8.68774 5.625 10.3092 5.625 12C5.625 13.6908 6.29665 15.3123 7.49219 16.5078C8.68774 17.7033 10.3092 18.375 12 18.375ZM11.25 10.125C10.629 10.125 10.125 10.629 10.125 11.25V12.75C10.125 13.371 10.629 13.875 11.25 13.875H12.75C13.371 13.875 13.875 13.371 13.875 12.75V11.25C13.875 10.629 13.371 10.125 12.75 10.125H11.25Z" fill="white"/>
</svg>
