<svg width="43" height="43" viewBox="0 0 43 43" fill="none" xmlns="http://www.w3.org/2000/svg">
<circle cx="21.5" cy="21.5" r="21.5" fill="#D5DCEB" fill-opacity="0.38"/>
<g clip-path="url(#clip0_2030_281)">
<path d="M34.0001 16.8401V15.3901C34.0001 14.8066 33.7683 14.247 33.3557 13.8344C32.9431 13.4218 32.3835 13.1901 31.8001 13.1901H29.1101L28.8401 11.5501C28.7685 11.1147 28.5438 10.7193 28.2064 10.4351C27.869 10.1509 27.4412 9.9966 27.0001 10.0001H23.3701C22.9307 9.99899 22.5052 10.1544 22.1699 10.4384C21.8346 10.7224 21.6113 11.1165 21.5401 11.5501L21.2701 13.1901H18.5801C17.9966 13.1901 17.437 13.4218 17.0244 13.8344C16.6119 14.247 16.3801 14.8066 16.3801 15.3901V16.8401H34.0001ZM23.0001 11.8401C23.0143 11.758 23.0574 11.6837 23.1216 11.6305C23.1857 11.5774 23.2668 11.5488 23.3501 11.5501H27.0001C27.0834 11.5488 27.1644 11.5774 27.2285 11.6305C27.2927 11.6837 27.3358 11.758 27.3501 11.8401L27.5801 13.2401H22.7801L23.0001 11.8401ZM25.9401 18.3401V19.8001C25.9401 19.999 25.861 20.1897 25.7204 20.3304C25.5797 20.471 25.389 20.5501 25.1901 20.5501C24.9912 20.5501 24.8004 20.471 24.6597 20.3304C24.5191 20.1897 24.4401 19.999 24.4401 19.8001V18.3401H16.3801V23.1001C16.3801 23.389 16.437 23.675 16.5475 23.942C16.6581 24.2089 16.8201 24.4514 17.0244 24.6557C17.2287 24.86 17.4712 25.022 17.7382 25.1326C18.0051 25.2432 18.2912 25.3001 18.5801 25.3001H31.8001C32.3835 25.3001 32.9431 25.0683 33.3557 24.6557C33.7683 24.2431 34.0001 23.6835 34.0001 23.1001V18.3401H25.9401ZM27.1901 28.8901L24.1901 29.8901C24.1511 29.8879 24.1124 29.8971 24.0786 29.9167C24.0449 29.9362 24.0176 29.9652 24.0001 30.0001C23.8619 30.2998 23.6404 30.5535 23.362 30.7308C23.0836 30.9081 22.7601 31.0016 22.4301 31.0001H19.0001C18.886 31.0001 18.7767 30.9548 18.696 30.8741C18.6154 30.7935 18.5701 30.6841 18.5701 30.5701C18.5701 30.456 18.6154 30.3466 18.696 30.266C18.7767 30.1854 18.886 30.1401 19.0001 30.1401H22.4401C22.6682 30.1401 22.8869 30.0494 23.0482 29.8882C23.2095 29.7269 23.3001 29.5081 23.3001 29.2801C23.3001 29.052 23.2095 28.8332 23.0482 28.6719C22.8869 28.5107 22.6682 28.4201 22.4401 28.4201H19.4401C18.4484 27.6611 17.2477 27.2248 16.0001 27.1701H14.2501C13.715 27.1727 13.1879 27.2993 12.7101 27.5401L10.1201 28.8301C10.0881 28.847 10.0606 28.8712 10.0397 28.9007C10.0189 28.9302 10.0053 28.9643 10.0001 29.0001V33.6301C9.99909 33.6688 10.0088 33.707 10.0283 33.7406C10.0477 33.7741 10.076 33.8016 10.1101 33.8201C10.1435 33.8394 10.1814 33.8495 10.2201 33.8495C10.2587 33.8495 10.2966 33.8394 10.3301 33.8201L13.0901 32.1001C13.1985 32.0302 13.3211 31.985 13.4489 31.9677C13.5768 31.9504 13.7069 31.9614 13.8301 32.0001C22.3901 34.8901 19.5301 34.9001 29.1801 30.0001C29.2468 29.9674 29.3042 29.9184 29.3469 29.8575C29.3896 29.7967 29.4162 29.726 29.4241 29.6521C29.4321 29.5782 29.4213 29.5035 29.3926 29.435C29.3639 29.3664 29.3183 29.3062 29.2601 29.2601C28.9747 29.028 28.635 28.8723 28.2729 28.8076C27.9108 28.7428 27.5382 28.7712 27.1901 28.8901Z" fill="#183D8B"/>
</g>
<defs>
<clipPath id="clip0_2030_281">
<rect width="24" height="24" fill="white" transform="translate(10 10)"/>
</clipPath>
</defs>
</svg>
