<svg width="43" height="43" viewBox="0 0 43 43" fill="none" xmlns="http://www.w3.org/2000/svg">
<circle cx="21.5" cy="21.5" r="21.5" fill="#D5DCEB" fill-opacity="0.38"/>
<path d="M19.71 16.2899C19.617 16.1962 19.5064 16.1218 19.3846 16.071C19.2627 16.0203 19.132 15.9941 19 15.9941C18.868 15.9941 18.7373 16.0203 18.6154 16.071C18.4936 16.1218 18.383 16.1962 18.29 16.2899L13.29 21.2899C13.1963 21.3829 13.1219 21.4935 13.0711 21.6154C13.0203 21.7372 12.9942 21.8679 12.9942 21.9999C12.9942 22.132 13.0203 22.2627 13.0711 22.3845C13.1219 22.5064 13.1963 22.617 13.29 22.7099L18.29 27.7099C18.383 27.8037 18.4936 27.8781 18.6154 27.9288C18.7373 27.9796 18.868 28.0057 19 28.0057C19.132 28.0057 19.2627 27.9796 19.3846 27.9288C19.5064 27.8781 19.617 27.8037 19.71 27.7099C19.8037 27.617 19.8781 27.5064 19.9289 27.3845C19.9797 27.2627 20.0058 27.132 20.0058 26.9999C20.0058 26.8679 19.9797 26.7372 19.9289 26.6154C19.8781 26.4935 19.8037 26.3829 19.71 26.2899L15.41 21.9999L19.71 17.7099C19.8037 17.617 19.8781 17.5064 19.9289 17.3845C19.9797 17.2627 20.0058 17.132 20.0058 16.9999C20.0058 16.8679 19.9797 16.7372 19.9289 16.6154C19.8781 16.4935 19.8037 16.3829 19.71 16.2899ZM30.71 21.2899L25.71 16.2899C25.6168 16.1967 25.5061 16.1227 25.3842 16.0723C25.2624 16.0218 25.1319 15.9958 25 15.9958C24.7337 15.9958 24.4783 16.1016 24.29 16.2899C24.1968 16.3832 24.1228 16.4939 24.0723 16.6157C24.0219 16.7375 23.9959 16.8681 23.9959 16.9999C23.9959 17.2662 24.1017 17.5216 24.29 17.7099L28.59 21.9999L24.29 26.2899C24.1963 26.3829 24.1219 26.4935 24.0711 26.6154C24.0203 26.7372 23.9942 26.8679 23.9942 26.9999C23.9942 27.132 24.0203 27.2627 24.0711 27.3845C24.1219 27.5064 24.1963 27.617 24.29 27.7099C24.383 27.8037 24.4936 27.8781 24.6154 27.9288C24.7373 27.9796 24.868 28.0057 25 28.0057C25.132 28.0057 25.2627 27.9796 25.3846 27.9288C25.5064 27.8781 25.617 27.8037 25.71 27.7099L30.71 22.7099C30.8037 22.617 30.8781 22.5064 30.9289 22.3845C30.9797 22.2627 31.0058 22.132 31.0058 21.9999C31.0058 21.8679 30.9797 21.7372 30.9289 21.6154C30.8781 21.4935 30.8037 21.3829 30.71 21.2899Z" fill="#183D8B"/>
</svg>
