<svg width="43" height="43" viewBox="0 0 43 43" fill="none" xmlns="http://www.w3.org/2000/svg">
<circle cx="21.5" cy="21.5" r="21.5" fill="#D5DCEB" fill-opacity="0.38"/>
<path fill-rule="evenodd" clip-rule="evenodd" d="M16 13.5C16 13.3674 16.0527 13.2402 16.1464 13.1464C16.2402 13.0527 16.3674 13 16.5 13H27.5C27.6326 13 27.7598 13.0527 27.8536 13.1464C27.9473 13.2402 28 13.3674 28 13.5V14H30.5C30.6326 14 30.7598 14.0527 30.8536 14.1464C30.9473 14.2402 31 14.3674 31 14.5V17.5C31 18.163 30.7366 18.7989 30.2678 19.2678C29.7989 19.7366 29.163 20 28.5 20H27.6585C27.301 21.0085 26.6807 21.9032 25.8618 22.5918C25.0428 23.2804 24.0549 23.7379 23 23.917V27H26C26.1326 27 26.2598 27.0527 26.3536 27.1464C26.4473 27.2402 26.5 27.3674 26.5 27.5V30.5C26.5 30.6326 26.4473 30.7598 26.3536 30.8536C26.2598 30.9473 26.1326 31 26 31H18C17.8674 31 17.7402 30.9473 17.6464 30.8536C17.5527 30.7598 17.5 30.6326 17.5 30.5V27.5C17.5 27.3674 17.5527 27.2402 17.6464 27.1464C17.7402 27.0527 17.8674 27 18 27H21V23.917C19.9451 23.7379 18.9572 23.2804 18.1382 22.5918C17.3193 21.9032 16.699 21.0085 16.3415 20H15.5C14.837 20 14.2011 19.7366 13.7322 19.2678C13.2634 18.7989 13 18.163 13 17.5V14.5C13 14.3674 13.0527 14.2402 13.1464 14.1464C13.2402 14.0527 13.3674 14 13.5 14H16V13.5ZM28 18V15H30V17.5C30 17.8978 29.842 18.2794 29.5607 18.5607C29.2794 18.842 28.8978 19 28.5 19H28V18ZM16 15H14V17.5C14 17.8978 14.158 18.2794 14.4393 18.5607C14.7206 18.842 15.1022 19 15.5 19H16V15Z" fill="#183D8B"/>
</svg>
