<svg width="43" height="43" viewBox="0 0 43 43" fill="none" xmlns="http://www.w3.org/2000/svg">
<circle cx="21.5" cy="21.5" r="21.5" fill="#D5DCEB" fill-opacity="0.38"/>
<path d="M17 29C17 29.5304 16.7893 30.0391 16.4142 30.4142C16.0391 30.7893 15.5304 31 15 31C14.4696 31 13.9609 30.7893 13.5858 30.4142C13.2107 30.0391 13 29.5304 13 29C13 28.4696 13.2107 27.9609 13.5858 27.5858C13.9609 27.2107 14.4696 27 15 27C15.5304 27 16.0391 27.2107 16.4142 27.5858C16.7893 27.9609 17 28.4696 17 29ZM17 29H20C20.5304 29 21.0391 28.7893 21.4142 28.4142C21.7893 28.0391 22 27.5304 22 27V19C22 18.4696 22.2107 17.9609 22.5858 17.5858C22.9609 17.2107 23.4696 17 24 17H31" stroke="#183D8B" stroke-width="2" stroke-linecap="round" stroke-linejoin="round"/>
<path d="M28 14L31 17L28 20" stroke="#183D8B" stroke-width="2" stroke-linecap="round" stroke-linejoin="round"/>
</svg>
