<svg width="24" height="24" viewBox="0 0 24 24" fill="none" xmlns="http://www.w3.org/2000/svg">
<g clip-path="url(#clip0_2060_77)">
<path d="M12 24C18.6274 24 24 18.6274 24 12C24 5.37258 18.6274 0 12 0C5.37258 0 0 5.37258 0 12C0 18.6274 5.37258 24 12 24Z" fill="#FF007A"/>
<path d="M9.1957 4.32506C8.98195 4.29206 8.97295 4.28756 9.07345 4.27256C9.2662 4.24256 9.7222 4.28381 10.0364 4.35806C10.7692 4.53281 11.4359 4.97906 12.1484 5.77181L12.3374 5.98181L12.6074 5.93906C13.7474 5.75531 14.9077 5.90156 15.8774 6.34931C16.1444 6.47231 16.5652 6.71756 16.6177 6.78131C16.6349 6.80081 16.6657 6.93056 16.6859 7.06856C16.7579 7.54631 16.7219 7.91231 16.5764 8.18606C16.4969 8.33456 16.4924 8.38106 16.5457 8.50856C16.5713 8.56101 16.6109 8.60532 16.6601 8.63658C16.7094 8.66783 16.7664 8.68479 16.8247 8.68556C17.0662 8.68556 17.3257 8.29556 17.4457 7.75331L17.4937 7.53806L17.5882 7.64531C18.1072 8.23331 18.5144 9.03506 18.5842 9.60506L18.6029 9.75431L18.5152 9.61931C18.3652 9.38681 18.2152 9.22781 18.0217 9.09956C17.6737 8.86931 17.3054 8.79131 16.3304 8.73956C15.4499 8.69306 14.9512 8.61806 14.4577 8.45681C13.6169 8.18306 13.1932 7.81781 12.1942 6.50756C11.7509 5.92556 11.4764 5.60381 11.2042 5.34506C10.5839 4.75556 9.97495 4.44656 9.1957 4.32506Z" fill="white"/>
<path d="M16.8165 5.62474C16.839 5.23474 16.8915 4.97749 16.998 4.74274C17.04 4.64974 17.0798 4.57324 17.0858 4.57324C17.0789 4.62584 17.065 4.67729 17.0445 4.72624C16.9673 4.95424 16.9545 5.26624 17.0078 5.62849C17.0753 6.08899 17.1143 6.15499 17.6003 6.65224C17.829 6.88549 18.0945 7.17949 18.1905 7.30624L18.3653 7.53574L18.1905 7.37149C17.9768 7.17124 17.4848 6.77899 17.376 6.72349C17.3033 6.68599 17.292 6.68674 17.247 6.73099C17.2058 6.77299 17.1968 6.83449 17.1915 7.12774C17.1825 7.58374 17.1203 7.87774 16.9695 8.17024C16.8885 8.32774 16.8758 8.29474 16.9493 8.11549C17.004 7.98199 17.0093 7.92349 17.0093 7.48174C17.0093 6.59374 16.9035 6.38074 16.2848 6.01474C16.0986 5.90666 15.9074 5.80755 15.7118 5.71774C15.6152 5.67879 15.5215 5.63318 15.4313 5.58124C15.4485 5.56399 16.0515 5.73949 16.2938 5.83324C16.6553 5.97199 16.7145 5.98999 16.7588 5.97274C16.788 5.96149 16.8023 5.87599 16.8165 5.62474ZM9.61128 7.14349C9.17703 6.54574 8.90853 5.62849 8.96628 4.94299L8.98428 4.73074L9.08328 4.74874C9.26928 4.78249 9.58953 4.90174 9.73953 4.99324C10.1505 5.24299 10.329 5.57224 10.5098 6.41674C10.563 6.66424 10.6328 6.94399 10.665 7.03924C10.716 7.19149 10.911 7.54774 11.07 7.77949C11.184 7.94599 11.1075 8.02474 10.8555 8.00224C10.47 7.96699 9.94803 7.60699 9.61128 7.14349ZM16.29 11.5947C14.2598 10.7772 13.545 10.0677 13.545 8.87074C13.545 8.69449 13.551 8.55049 13.5578 8.55049C13.5645 8.55049 13.644 8.60824 13.7325 8.67949C14.1443 9.00949 14.6055 9.15049 15.8813 9.33649C16.632 9.44674 17.055 9.53524 17.445 9.66424C18.684 10.0752 19.4505 10.9092 19.6335 12.0447C19.686 12.3747 19.6553 12.9935 19.569 13.3197C19.5015 13.5777 19.2938 14.042 19.239 14.06C19.224 14.0645 19.209 14.0067 19.2045 13.9265C19.1835 13.5005 18.9683 13.085 18.606 12.7737C18.1943 12.4205 17.6423 12.1385 16.29 11.5947ZM14.865 11.9337C14.8407 11.7889 14.8079 11.6457 14.7668 11.5047L14.7143 11.3502L14.811 11.4582C14.9438 11.6082 15.0495 11.7987 15.138 12.0537C15.2063 12.248 15.2138 12.3057 15.213 12.6215C15.213 12.932 15.2048 12.9965 15.1418 13.172C15.0547 13.4296 14.908 13.6629 14.7135 13.853C14.3423 14.231 13.866 14.4395 13.1775 14.5265C13.0575 14.5415 12.7095 14.567 12.4028 14.5827C11.6303 14.6232 11.1225 14.7057 10.6658 14.8662C10.6245 14.8845 10.5803 14.8952 10.5353 14.8977C10.5173 14.879 10.8278 14.6937 11.085 14.57C11.4473 14.3952 11.8073 14.3 12.615 14.1657C13.014 14.099 13.4265 14.0187 13.5308 13.9865C14.5193 13.6835 15.0278 12.902 14.865 11.9337Z" fill="white"/>
<path d="M15.7949 13.5875C15.5249 13.0077 15.4634 12.4475 15.6112 11.9255C15.6269 11.87 15.6524 11.8242 15.6674 11.8242C15.7183 11.8423 15.7662 11.8681 15.8092 11.9007C15.9337 11.9847 16.1827 12.1257 16.8464 12.4872C17.6752 12.9395 18.1477 13.2897 18.4694 13.6887C18.7507 14.039 18.9247 14.438 19.0087 14.924C19.0559 15.1992 19.0282 15.8615 18.9577 16.139C18.7349 17.0135 18.2167 17.7005 17.4787 18.101C17.4087 18.1406 17.3366 18.1764 17.2627 18.2082C17.2522 18.2082 17.2912 18.1085 17.3504 17.9855C17.5979 17.4665 17.6272 16.961 17.4389 16.3985C17.3242 16.0542 17.0894 15.6335 16.6162 14.924C16.0657 14.099 15.9307 13.8785 15.7949 13.5875ZM8.16968 16.7157C8.92343 16.0797 9.86018 15.6282 10.7144 15.4895C11.0819 15.4295 11.6954 15.4535 12.0359 15.5405C12.5819 15.68 13.0709 15.9935 13.3252 16.3662C13.5727 16.7307 13.6799 17.0487 13.7902 17.7552C13.8352 18.0342 13.8824 18.314 13.8967 18.3777C13.9792 18.7437 14.1419 19.037 14.3429 19.184C14.6617 19.4172 15.2114 19.4315 15.7514 19.2215C15.8079 19.1957 15.8674 19.1771 15.9284 19.166C15.9479 19.1855 15.6764 19.3677 15.4844 19.4637C15.258 19.5854 15.0042 19.6469 14.7472 19.6422C14.2522 19.6422 13.8412 19.391 13.4984 18.8772C13.4309 18.776 13.2794 18.4737 13.1609 18.2045C12.7994 17.3795 12.6209 17.1275 12.2009 16.8522C11.8342 16.6122 11.3624 16.5695 11.0077 16.7435C10.5412 16.9722 10.4114 17.5685 10.7452 17.9457C10.8779 18.0957 11.1254 18.2255 11.3279 18.2502C11.4163 18.2619 11.5061 18.2545 11.5913 18.2285C11.6766 18.2025 11.7552 18.1585 11.822 18.0995C11.8887 18.0405 11.9421 17.9678 11.9783 17.8865C12.0146 17.8051 12.033 17.7168 12.0322 17.6277C12.0322 17.3787 11.9362 17.2377 11.6962 17.129C11.3684 16.9812 11.0159 17.1537 11.0174 17.462C11.0182 17.5932 11.0752 17.6757 11.2072 17.7357C11.2919 17.7732 11.2934 17.777 11.2244 17.7627C10.9237 17.6997 10.8532 17.3375 11.0954 17.0967C11.3857 16.8072 11.9864 16.9347 12.1927 17.3292C12.2797 17.495 12.2894 17.8257 12.2137 18.0252C12.0449 18.4715 11.5514 18.7055 11.0512 18.578C10.7107 18.491 10.5719 18.3972 10.1617 17.9742C9.44843 17.2392 9.17168 17.0967 8.14268 16.9362L7.94543 16.9055L8.16968 16.7157Z" fill="white"/>
<path fill-rule="evenodd" clip-rule="evenodd" d="M4.64697 2.51265L4.71897 2.6004C7.50047 6.0059 8.93697 7.7719 9.02847 7.8984C9.17847 8.1069 9.12222 8.29365 8.86422 8.44065C8.72097 8.5224 8.42547 8.6049 8.27847 8.6049C8.11122 8.6049 7.92297 8.52465 7.78572 8.3949C7.68897 8.30265 7.29822 7.71915 6.39597 6.3189C5.97345 5.6571 5.54543 4.99883 5.11197 4.34415C5.07522 4.30965 5.07597 4.3104 6.32547 6.54615C7.10997 7.95015 7.37547 8.4459 7.37547 8.51265C7.37547 8.64765 7.33797 8.71815 7.17147 8.90415C6.89397 9.2139 6.77022 9.5619 6.68022 10.2819C6.57972 11.0896 6.29772 11.6596 5.51472 12.6354C5.05722 13.2069 4.98222 13.3119 4.86597 13.5421C4.72047 13.8316 4.68072 13.9944 4.66422 14.3604C4.64697 14.7474 4.68072 14.9979 4.79922 15.3676C4.90272 15.6916 5.01072 15.9061 5.28672 16.3336C5.52522 16.7034 5.66247 16.9779 5.66247 17.0851C5.66247 17.1706 5.67897 17.1706 6.04872 17.0874C6.93297 16.8879 7.65072 16.5361 8.05497 16.1056C8.30472 15.8394 8.36322 15.6924 8.36547 15.3271C8.36622 15.0886 8.35797 15.0384 8.29347 14.9011C8.18847 14.6776 7.99722 14.4916 7.57572 14.2036C7.02297 13.8256 6.78747 13.5211 6.72222 13.1034C6.66822 12.7606 6.73047 12.5184 7.03647 11.8779C7.35222 11.2149 7.43097 10.9329 7.48422 10.2646C7.51797 9.83265 7.56522 9.6624 7.68972 9.5259C7.81872 9.3834 7.93572 9.33465 8.25597 9.29115C8.77797 9.2199 9.11022 9.0849 9.38322 8.83365C9.62022 8.61465 9.71922 8.4039 9.73422 8.0874L9.74622 7.8474L9.61347 7.6929C9.42347 7.4709 7.84747 5.7319 4.88547 2.4759L4.80597 2.38965L4.64697 2.5134V2.51265ZM5.93247 14.7991C5.9848 14.7065 6.00042 14.5976 5.97625 14.494C5.95209 14.3903 5.88989 14.2996 5.80197 14.2396C5.63097 14.1256 5.36472 14.1796 5.36472 14.3281C5.36472 14.3731 5.38947 14.4061 5.44572 14.4354C5.54097 14.4841 5.54772 14.5396 5.47347 14.6514C5.39772 14.7654 5.40372 14.8659 5.49072 14.9341C5.63022 15.0436 5.82747 14.9829 5.93247 14.7991ZM10.0755 9.41715C9.83022 9.49215 9.59247 9.7524 9.51822 10.0246C9.47322 10.1904 9.49872 10.4821 9.56622 10.5721C9.67497 10.7176 9.78072 10.7559 10.0657 10.7536C10.6237 10.7499 11.1082 10.5106 11.1652 10.2114C11.2117 9.96615 10.998 9.6264 10.7047 9.4764C10.5532 9.3999 10.2315 9.36915 10.0755 9.41715ZM10.728 9.92715C10.8142 9.8049 10.776 9.67215 10.6305 9.58365C10.3515 9.4134 9.92997 9.55365 9.92997 9.81765C9.92997 9.94815 10.1497 10.0914 10.3507 10.0914C10.4857 10.0914 10.6687 10.0111 10.728 9.92715Z" fill="white"/>
</g>
<defs>
<clipPath id="clip0_2060_77">
<rect width="24" height="24" fill="white"/>
</clipPath>
</defs>
</svg>
