<svg width="24" height="24" viewBox="0 0 24 24" fill="none" xmlns="http://www.w3.org/2000/svg">
<path d="M16.364 15.2168L20.634 12.7818C20.7444 12.7183 20.8363 12.6271 20.9005 12.5171C20.9647 12.4071 20.999 12.2822 21 12.1548V7.28385C21 7.15628 20.9661 7.03101 20.9018 6.92084C20.8375 6.81067 20.7451 6.71957 20.634 6.65685L16.364 4.22185C16.2525 4.15838 16.1263 4.125 15.998 4.125C15.8697 4.125 15.7435 4.15838 15.632 4.22185L11.362 6.65685C11.2509 6.71957 11.1585 6.81067 11.0942 6.92084C11.0299 7.03101 10.996 7.15628 10.996 7.28385V15.9878L8.002 17.6948L5.008 15.9878V12.5728L8.002 10.8658L9.976 11.9928V9.70185L8.368 8.78385C8.25615 8.72131 8.13014 8.68848 8.002 8.68848C7.87386 8.68848 7.74785 8.72131 7.636 8.78385L3.366 11.2188C3.25492 11.2816 3.1625 11.3727 3.09819 11.4828C3.03388 11.593 2.99999 11.7183 3 11.8458V16.7158C3 16.9738 3.14 17.2138 3.366 17.3428L7.636 19.7788C7.74785 19.8414 7.87386 19.8742 8.002 19.8742C8.13014 19.8742 8.25615 19.8414 8.368 19.7788L12.638 17.3428C12.7489 17.2802 12.8413 17.1893 12.9056 17.0793C12.9699 16.9693 13.0038 16.8442 13.004 16.7168V8.01185L13.057 7.98185L15.997 6.30485L18.991 8.01185V11.4268L15.997 13.1338L14.025 12.0098V14.3008L15.631 15.2168C15.7428 15.2794 15.8689 15.3122 15.997 15.3122C16.1251 15.3122 16.2522 15.2794 16.364 15.2168Z" fill="url(#paint0_linear_2038_657)"/>
<defs>
<linearGradient id="paint0_linear_2038_657" x1="2.942" y1="17.1938" x2="20.119" y2="7.10085" gradientUnits="userSpaceOnUse">
<stop stop-color="#A726C1"/>
<stop offset="0.88" stop-color="#803BDF"/>
<stop offset="1" stop-color="#7B3FE4"/>
</linearGradient>
</defs>
</svg>
