<svg width="21" height="21" viewBox="0 0 21 21" fill="none" xmlns="http://www.w3.org/2000/svg">
<path d="M11.35 20.2281L9.69 16.3881C11.29 15.8081 12.76 15.0381 14.12 14.1181L11.34 20.2281M3.84 10.5381L0 8.88808L6.11 6.10808C5.19 7.46808 4.42 8.94808 3.84 10.5381ZM18.19 2.03808C15.23 1.81808 12.99 2.86808 10.64 5.34808C8.28 7.81808 7.28 9.84808 6.69 11.3881L8.86 13.4881C11.15 12.6181 13.19 11.3081 14.89 9.59808C18.19 6.30808 18.36 3.43808 18.19 2.03808ZM9.19 3.93808C11.82 1.13808 16.19 -0.881922 19.85 0.388078C19.85 0.388078 21.97 5.34808 16.3 11.0381C14.1 13.2081 11.72 14.5381 9.58 15.3781C9.34 15.4681 8.43 15.7681 7.45 14.9181L5.32 12.7881C4.76 12.2281 4.58 11.4081 4.85 10.6581C5.69 8.53808 6.6 6.72808 9.19 3.93808ZM4.44 20.0381H3.03L7.12 15.9381C7.42 16.1481 7.75 16.2981 8.09 16.3881L4.44 20.0381ZM0.19 20.0381V18.6281L4.96 13.8481L6.39 15.2681L1.6 20.0381H0.19ZM0.19 17.2081V15.7881L3.84 12.1381C3.93 12.4881 4.08 12.8181 4.29 13.1081L0.19 17.2081ZM14.19 4.03808C14.7204 4.03808 15.2291 4.24879 15.6042 4.62386C15.9793 4.99894 16.19 5.50765 16.19 6.03808C16.19 7.14808 15.3 8.03808 14.19 8.03808C13.6596 8.03808 13.1509 7.82736 12.7758 7.45229C12.4007 7.07722 12.19 6.56851 12.19 6.03808C12.19 5.50765 12.4007 4.99894 12.7758 4.62386C13.1509 4.24879 13.6596 4.03808 14.19 4.03808Z" fill="white"/>
</svg>
