<svg width="43" height="43" viewBox="0 0 43 43" fill="none" xmlns="http://www.w3.org/2000/svg">
<circle cx="21.5" cy="21.5" r="21.5" fill="#D5DCEB" fill-opacity="0.38"/>
<path d="M22.7499 12.75V14.5H24.7249C25.0759 14.5 25.4189 14.606 25.7089 14.803L27.4059 15.957C27.4479 15.985 27.4946 15.9993 27.5459 16H31.6479C31.8468 16 32.0376 16.079 32.1782 16.2197C32.3189 16.3603 32.3979 16.5511 32.3979 16.75C32.3979 16.9489 32.3189 17.1397 32.1782 17.2803C32.0376 17.421 31.8468 17.5 31.6479 17.5H30.0699L33.4359 25.18C33.5033 25.3336 33.5172 25.5053 33.4755 25.6677C33.4338 25.8301 33.3389 25.9739 33.2059 26.076C33.1059 26.15 33.0026 26.2187 32.8959 26.282C32.6428 26.4343 32.3787 26.5676 32.1059 26.681C31.2014 27.0593 30.2303 27.2527 29.2499 27.25C28.2698 27.2543 27.2988 27.0611 26.3949 26.682C26.1221 26.5683 25.858 26.4346 25.6049 26.282C25.4986 26.221 25.396 26.1535 25.2979 26.08L25.2929 26.076C25.1599 25.9739 25.065 25.8301 25.0233 25.6677C24.9816 25.5053 24.9956 25.3336 25.0629 25.18L28.4309 17.5H27.5449C27.1939 17.5 26.8509 17.394 26.5609 17.197L24.8639 16.043C24.8226 16.015 24.7738 16 24.7239 16H22.7499V30.5H27.2369C27.4358 30.5 27.6266 30.579 27.7672 30.7197C27.9079 30.8603 27.9869 31.0511 27.9869 31.25C27.9869 31.4489 27.9079 31.6397 27.7672 31.7803C27.6266 31.921 27.4358 32 27.2369 32H16.7629C16.564 32 16.3732 31.921 16.2326 31.7803C16.0919 31.6397 16.0129 31.4489 16.0129 31.25C16.0129 31.0511 16.0919 30.8603 16.2326 30.7197C16.3732 30.579 16.564 30.5 16.7629 30.5H21.2499V16H19.2749C19.225 16 19.1762 16.015 19.1349 16.043L17.4389 17.197C17.1489 17.394 16.8059 17.5 16.4549 17.5H15.5689L18.9369 25.18C19.0021 25.3292 19.017 25.4956 18.9793 25.654C18.9416 25.8124 18.8533 25.9542 18.7279 26.058C18.6479 26.123 18.5679 26.184 18.4179 26.281C18.1652 26.445 17.9004 26.5898 17.6259 26.714C16.723 27.125 15.742 27.3365 14.7499 27.334C13.7578 27.3365 12.7769 27.125 11.8739 26.714C11.5994 26.5898 11.3347 26.445 11.0819 26.281C10.9755 26.2123 10.8724 26.1385 10.7729 26.06C10.6482 25.9552 10.5605 25.8131 10.5227 25.6547C10.4849 25.4962 10.499 25.3298 10.5629 25.18L13.9299 17.5H12.3529C12.154 17.5 11.9632 17.421 11.8226 17.2803C11.6819 17.1397 11.6029 16.9489 11.6029 16.75C11.6029 16.5511 11.6819 16.3603 11.8226 16.2197C11.9632 16.079 12.154 16 12.3529 16H16.4549C16.5056 16 16.5526 15.9857 16.5959 15.957L18.2909 14.803C18.5809 14.605 18.9249 14.5 19.2759 14.5H21.2499V12.75C21.2499 12.5511 21.3289 12.3603 21.4696 12.2197C21.6102 12.079 21.801 12 21.9999 12C22.1988 12 22.3896 12.079 22.5302 12.2197C22.6709 12.3603 22.7499 12.5511 22.7499 12.75ZM12.1929 25.198C12.9797 25.6175 13.8582 25.8357 14.7499 25.833C15.6416 25.8357 16.5201 25.6175 17.3069 25.198L14.7499 19.368L12.1929 25.198ZM26.7029 25.174C26.7849 25.214 26.8766 25.256 26.9779 25.3C27.5079 25.523 28.2829 25.75 29.2499 25.75C30.1315 25.7524 31.0022 25.5555 31.7969 25.174L29.2499 19.367L26.7029 25.174Z" fill="#1E1E1E"/>
</svg>
