<svg width="43" height="43" viewBox="0 0 43 43" fill="none" xmlns="http://www.w3.org/2000/svg">
<circle cx="21.5" cy="21.5" r="21.5" fill="#D5DCEB" fill-opacity="0.38"/>
<path d="M13.25 23H30.75M27 27H28M23 27H24M15.45 14.11L13.288 21.957C13.0971 22.6492 13.0002 23.364 13 24.082V29C13 29.5304 13.2107 30.0391 13.5858 30.4142C13.9609 30.7893 14.4696 31 15 31H29C29.5304 31 30.0391 30.7893 30.4142 30.4142C30.7893 30.0391 31 29.5304 31 29V24.082C30.9998 23.364 30.9029 22.6492 30.712 21.957L28.55 14.11C28.3844 13.7768 28.1292 13.4964 27.813 13.3003C27.4967 13.1042 27.1321 13.0002 26.76 13H17.24C16.8679 13.0002 16.5033 13.1042 16.187 13.3003C15.8708 13.4964 15.6156 13.7768 15.45 14.11Z" stroke="#1E1E1E" stroke-width="1.5" stroke-linecap="round" stroke-linejoin="round"/>
</svg>
