<svg width="43" height="43" viewBox="0 0 43 43" fill="none" xmlns="http://www.w3.org/2000/svg">
<circle cx="21.5" cy="21.5" r="21.5" fill="#D5DCEB" fill-opacity="0.38"/>
<path d="M20.95 25.55L26.6 19.9L25.175 18.475L20.95 22.7L18.85 20.6L17.425 22.025L20.95 25.55ZM22 32C19.6833 31.4167 17.771 30.0873 16.263 28.012C14.755 25.9367 14.0007 23.6327 14 21.1V15L22 12L30 15V21.1C30 23.6333 29.246 25.9377 27.738 28.013C26.23 30.0883 24.3173 31.4173 22 32ZM22 29.9C23.7333 29.35 25.1667 28.25 26.3 26.6C27.4333 24.95 28 23.1167 28 21.1V16.375L22 14.125L16 16.375V21.1C16 23.1167 16.5667 24.95 17.7 26.6C18.8333 28.25 20.2667 29.35 22 29.9Z" fill="#1E1E1E"/>
</svg>
